<svg xmlns="http://www.w3.org/2000/svg" xml:space="preserve" width="1662" height="1662" baseProfile="tiny" version="1.2"><circle cx="831" cy="831" r="830.939" fill-rule="evenodd"/><g fill-rule="evenodd"><path fill="#FFF" d="M935.019 1564.386c.003-17.332.107-34.666-.048-51.997-.063-6.988 2.003-12.863 6.341-18.424 9.766-12.518 16.757-26.402 19.092-42.357 1.374-9.389-.3-18.233-4.156-26.774-4.262-9.438-11.583-15.201-21.418-18.082-9.955-2.917-20.09-4.81-30.42-5.626-22.481-1.776-44.94-.584-67.402.553-9.979.505-19.994.437-29.88 2.189-10.763 1.909-20.933 5.432-30.417 10.935-7.395 4.291-13.241 3.88-16.555-.945-3.42-4.979-1.544-10.683 5.251-16.173 9.852-7.96 19.758-15.854 29.482-23.967 5.045-4.208 10.368-6.056 17.048-4.975 17.106 2.768 34.268 5.206 51.427 7.632 8.614 1.218 16.933-.352 24.958-3.525 3.628-1.435 6.734-3.678 9.072-6.84 4.323-5.848 3.275-12.41-2.694-16.493-4.335-2.966-9.253-4.647-14.369-5.532-23.645-4.089-47.311-8.055-70.964-12.09-3.191-.544-6.292-.234-9.406.523-17.325 4.215-34.692 8.267-51.979 12.631-19.251 4.859-30.277 19.529-30.117 39.315.201 24.709 4.586 48.383 16.85 70.182 6.907 12.277 16.095 22.514 27.966 30.097 5.814 3.715 8.335 8.56 8.317 15.357-.104 40.331-.026 80.662-.094 120.993-.017 9.443-3.3 13.048-12.71 13.813-12.749 1.035-25.251-1.577-37.763-3.328-92.338-12.92-179.747-41.283-262.318-84.501-59.208-30.99-113.594-68.988-163.346-113.602-80.686-72.352-144.542-157.361-191.079-255.233-37.225-78.285-61.213-160.479-71.93-246.573-5.45-43.781-7.096-87.714-5.513-131.705 2.542-70.63 14.368-139.781 35.403-207.324 32.182-103.332 82.914-196.559 152.4-279.504 66.143-78.955 144.511-143.08 235.097-192.143 84.834-45.947 175.061-75.646 270.58-89.339 48.815-6.997 97.898-9.147 147.085-7.25 75.033 2.896 148.333 16.11 219.64 39.796 80.322 26.682 154.797 64.776 223.158 114.788 38.302 28.021 74.031 58.993 106.783 93.292 61.732 64.648 111.893 137.284 149.587 218.455 33.653 72.468 56.206 148.186 67.489 227.288 6.94 48.649 9.127 97.568 7.24 146.589-2.896 75.201-16.102 148.672-39.87 220.131-26.873 80.796-65.255 155.676-115.738 224.333-27.716 37.693-58.255 72.907-92.058 105.214-64.626 61.767-137.252 111.932-218.399 149.667-69.827 32.471-142.728 54.692-218.856 66.317-2.305.352-4.574.923-6.871 1.331-8.629 1.532-13.676-2.36-13.804-11.123-.198-13.496-.08-26.997-.093-40.496-.007-5.167-.003-10.334.001-15.5z"/><path d="M751.087 1557.947c-.005 17.166.023 34.331-.018 51.497-.018 7.156-.809 7.742-7.893 6.935-90.628-10.323-176.935-35.45-258.705-75.882-61.72-30.517-118.556-68.391-170.434-113.733-63.009-55.071-116.074-118.424-158.98-190.233C97.2 1139.698 61.849 1035.214 48.71 923.143c-4.923-41.996-6.306-84.134-4.452-126.255 4.766-108.245 30.248-211.446 77.685-309.067 32.697-67.291 73.928-128.806 123.979-184.428 65.376-72.654 141.609-131.139 228.541-175.776C560.09 83.649 650.878 57.038 746.41 46.174c40.329-4.587 80.835-5.754 121.289-3.935 124.619 5.603 241.749 38.228 350.779 99.263 57.441 32.155 110.082 70.786 157.85 116.091 92.119 87.371 159.479 190.871 202.187 310.398 21.584 60.41 34.842 122.694 41.334 186.474 3.771 37.049 4.586 74.237 2.9 111.346-5.88 129.537-40.854 250.714-106.245 362.923-30.679 52.646-66.927 101.088-108.835 145.322-87.564 92.426-191.37 159.886-311.234 202.691-42.805 15.285-86.714 26.32-131.508 33.905-9.801 1.66-9.986 1.498-9.988-8.188-.008-28.498.078-56.997-.072-85.495-.028-5.405 1.338-9.854 4.494-14.353 12.154-17.322 20.921-35.919 20.818-57.798-.061-12.892-3.3-24.663-10.114-35.546-2.872-4.585-2.472-5.38 2.937-6.272 6.908-1.141 13.89-2.045 20.497-4.417 4.376-1.57 6.664-.17 8.746 3.757 14.986 28.269 30.164 56.435 45.241 84.655 9.699 18.155 23.73 31.648 43.786 37.009 23.736 6.346 45.31 1.052 63.28-16.099 8.963-8.554 12.678-19.679 13.551-31.925.854-12.003-1.867-23.533-4.148-35.129-13.732-69.816-26.764-139.779-43.05-209.07-3.442-14.648-8.671-28.4-20.316-38.769-.124-.11-.229-.245-.362-.344-7.54-5.602-14.597-11.157-18.932-20.302-3.615-7.624-12.2-10.159-20.556-10.213-28.496-.184-57.056-1.137-85.462.477-10.805.613-17.23-.911-24.529-9.168-11.043-12.492-29.957-13.791-44.612-5.076-4.487 2.668-6.863 2.198-10.33-1.67-12.028-13.421-31.354-16.17-47.427-6.884-4.063 2.347-6.308 2.244-9.613-1.378-17.495-19.167-46.859-16.533-60.838 5.438-2.653 4.171-4.831 4.627-9.229 2.745-19.703-8.434-40.271-1.028-50.16 17.89-1.767 3.381-3.382 4.486-6.899 2.345-5.843-3.558-12.384-4.823-19.159-4.829-28.332-.025-56.664-.097-84.995.026-12.827.056-22.633 5.096-27.049 17.971-.881 2.568-2.69 4.119-4.939 5.36-14.672 8.103-23.804 20.683-28.529 36.441-7.665 25.566-12.881 51.74-18.311 77.837-10.829 52.045-21.294 104.166-31.963 156.244-2.97 14.493-2.521 28.65 4.915 41.757 10.182 17.945 27.022 25.8 46.526 28.103 31.027 3.664 53.809-10.301 69.104-36.182 16.866-28.539 32.354-57.893 48.402-86.913 3.693-6.679 3.609-6.679 11.324-5.194 4.581.882 9.179 1.691 13.792 2.38 7.714 1.152 8.02 1.302 9.042 9.248 1.928 14.972 5.67 29.44 11.751 43.272 7.932 18.042 19.279 33.457 35.33 45.109 3.233 2.347 4.269 5.175 4.25 8.946-.086 17.167-.039 34.333-.044 51.499z"/></g><g fill-rule="evenodd"><path d="M650.835 1181.865c13.666 0 27.333.074 40.999-.034 5.932-.047 10.849 1.259 13.495 7.29.633 1.443 1.908 3.018 3.29 3.645 5.233 2.377 5.636 6.638 5.598 11.594-.067 8.653-.546 17.327.598 25.966 3.435 25.937 29.012 40.964 53.211 30.85 5.155-2.154 7.527-1.081 10.463 3.346 15.709 23.687 49.941 22.893 64.803-1.44 2.172-3.556 3.907-4.411 7.897-2.601 18.961 8.603 38.587 2.628 49.563-14.98 2.101-3.37 3.978-4.026 7.677-2.39 26.716 11.825 53.479-4.784 55.334-34.249.293-4.651-.023-9.342.278-13.992.62-9.563 4.015-12.923 13.443-12.96 26.666-.104 53.332-.084 79.998-.022 7.262.017 8.236.831 9.965 7.735 1.172 4.683 3.735 8.198 8.098 10.189 14.022 6.401 21.484 17.705 25.069 32.302 10.421 42.421 18.71 85.293 27.337 128.093 6.619 32.835 13.054 65.707 19.463 98.584 5.385 27.628-6.195 43.719-34.093 47.639-18.255 2.564-37.836-8.689-47.789-27.323a37583.048 37583.048 0 0 0-50.77-94.742c-5.212-9.691-9.164-10.744-19.571-7.148-22.527 7.784-45.629 10.684-69.354 6.951-3.127-.492-6.272-.867-9.397-1.373-4.76-.771-5.158-1.634-2.529-5.707 6.277-9.725 8.268-19.995 3.5-30.872-3.445-7.858-9.901-12.818-17.419-16.489-6.501-3.174-13.46-4.869-20.549-6.074-21.686-3.687-43.374-7.354-65.062-11.025-6.656-1.126-13.231-.934-19.828.701-17.146 4.25-34.335 8.322-51.499 12.501-23.843 5.806-41.561 25.195-44.848 49.427-.604 4.452-2.509 5.597-6.635 4.935-6.589-1.058-13.128-2.284-19.578-4.01-9.17-2.454-13.702-.614-18.264 7.588-17.252 31.023-34.525 62.034-51.638 93.135-8.979 16.318-21.768 27.361-40.726 29.578-11.991 1.403-23.343-1.631-33.281-8.356-13.324-9.018-15.123-22.618-12.31-36.976 7.658-39.085 15.693-78.096 23.728-117.105 7.061-34.277 14.228-68.534 22.435-102.561 1.327-5.502 2.796-10.999 4.668-16.334 4.059-11.568 11.465-20.234 23.1-24.765 5.142-2.002 8.087-5.481 9.083-10.925 1.146-6.261 2.566-7.485 9.048-7.539 14.332-.119 28.666-.037 42.999-.037v-.02z"/><path d="M829.008 1204.106c0 12.815.121 25.634-.037 38.448-.137 11.125-7.196 18.801-17.44 19.393-10.329.597-18.218-6.163-19.723-17.053-.386-2.788-.617-5.645-.486-8.45 1.018-21.79.957-43.575.025-65.366-.222-5.17-.041-10.384 2.296-15.148 3.735-7.615 12.149-11.639 20.462-9.999 8.444 1.666 14.583 8.625 14.772 17.731.28 13.477.072 26.963.072 40.444h.059zM849.161 1199.138c0-8.481-.118-16.966.034-25.444.139-7.712 3.219-13.896 10.361-17.485 12.91-6.488 27.681 3.099 27.099 18.093-.582 14.975-.649 29.906.226 44.858.213 3.651.028 7.313-.868 10.906-2.236 8.968-10.147 15.108-18.925 14.653-9.101-.471-16.716-6.86-17.43-16.176-.748-9.748-.167-19.599-.167-29.404l-.33-.001zM734.237 1203.585c0-7.498-.328-15.015.087-22.489.47-8.476 5.765-15.092 12.966-17.3 7.572-2.321 15.195.017 20.227 6.183 2.059 2.522 3.461 5.39 3.683 8.612 1.152 16.802 1.651 33.676-.114 50.402-1.423 13.477-16.967 20.039-28.244 12.666-6.089-3.979-8.604-10.021-8.744-17.077-.14-6.996-.03-13.998-.03-20.997h.169zM943.963 1195.396c0 4.487.188 8.983-.037 13.459-.544 10.825-8.544 18.303-19.186 18.154-10.39-.146-17.646-7.65-17.803-18.658a904.978 904.978 0 0 1 .011-26.923c.165-10.704 7.382-18.166 17.549-18.406 10.462-.248 18.624 6.941 19.359 17.423.348 4.961.06 9.966.06 14.951h.047z"/><path fill="#FFF" d="M717.063 1286.498c.015 42.435-33.827 76.451-76.074 76.467-42.126.015-76.907-34.512-76.731-76.169.18-42.436 34.53-76.834 76.701-76.811 42.194.025 76.09 34.102 76.104 76.513zM1029.866 1213.917c17.02.063 30.971 13.871 30.958 30.64-.014 17.06-14.075 31.111-31.192 31.172-16.72.059-30.69-14.024-30.68-30.928.011-17.692 13.281-30.949 30.914-30.884zM961.955 1309.574c-.035-17.547 13.385-30.949 30.978-30.937 17.02.013 30.86 13.803 30.911 30.797.05 16.987-13.689 30.808-30.741 30.923-17.559.12-31.114-13.276-31.148-30.783zM1097.106 1307.932c-.102 17.066-14.017 30.961-30.831 30.783-16.688-.177-31.129-14.716-30.926-31.135.214-17.29 14.066-30.771 31.512-30.667 17.52.106 30.351 13.265 30.245 31.019z"/><path d="M640.351 1343.088c-31.218-.104-56.433-25.52-56.345-56.794.088-31.525 25.681-56.438 57.848-56.309 30.752.124 56.251 26.003 55.961 56.796-.295 31.452-25.769 56.412-57.464 56.307zM1018.899 1244.6c0-6.199 4.529-10.925 10.559-11.015 5.987-.09 11.379 5.092 11.412 10.969.034 6.049-5.018 11.215-11.058 11.308-6.003.092-10.913-4.974-10.913-11.262zM992.592 1320.559c-6.238-.15-11.399-5.606-11.135-11.771.248-5.804 5.895-10.852 11.812-10.56 6.036.297 10.857 5.646 10.561 11.715-.278 5.693-5.633 10.75-11.238 10.616zM1077.703 1307.623c-.064 5.847-5.471 11.135-11.319 11.07-5.906-.066-11.138-5.409-11.063-11.3.075-5.902 5.426-11.147 11.299-11.075 5.882.073 11.148 5.443 11.083 11.305z"/><path fill="#FFF" d="M616.548 1295.953c-3.164 0-6.35.24-9.486-.054-5.22-.489-8.682-4.337-8.715-9.229-.034-5.045 3.633-9.243 8.958-9.555 5.813-.34 11.656-.257 17.484-.189 4.211.049 6.107-1.872 6.054-6.042-.06-4.663-.037-9.33.068-13.993.18-7.907 3.56-12.263 9.431-12.317 5.851-.054 9.574 4.76 9.713 12.659.072 4.164-.017 8.331.06 12.494.115 6.254.979 7.086 7.396 7.186 4.663.073 9.334-.067 13.992.12 6.438.26 10.849 4.168 10.905 9.392.058 5.229-4.348 9.284-10.727 9.551-5.157.215-10.328.189-15.491.126-4.164-.051-6.142 1.803-6.084 6.015.073 5.33.104 10.666-.06 15.992-.201 6.546-3.927 10.581-9.518 10.617-5.449.036-9.745-4.108-10.037-10.365-.231-4.974.342-9.979.327-14.971-.019-6.338-.933-7.162-7.274-7.283-2.331-.045-4.664-.008-6.997-.008l.001-.146z"/></g><path fill="#FFF" fill-rule="evenodd" d="M1599.072 832.221c-.94 124.122-28.578 241.764-85.927 352.094-29.262 56.294-64.788 108.391-107.003 155.795-36.346 40.812-76.271 77.768-120.52 109.949-6.029 4.386-6.249 4.348-10.145-2.072-23.345-38.468-46.688-76.936-70.029-115.405a135.641 135.641 0 0 1-2.287-3.874c-1.361-2.424-.56-3.406 2.117-3.139 3.315.332 6.628.707 9.95.936 3.319.229 6.66.547 9.971.39 7.4-.353 12.049-4.225 13.887-11.456 1.358-5.346 1.599-10.865 2.193-16.331.885-8.122 3.059-10.014 11.182-10.126 4.499-.063 9.008.11 13.497-.124 10.673-.557 15.869-5.384 16.738-16.042.526-6.463.236-12.99.406-19.486.222-8.498 1.965-10.535 10.335-11.708 6.762-.948 13.607-1.362 20.329-2.519 9.345-1.606 13.277-6.357 13.246-15.804-.02-5.817-.603-11.633-.953-17.448-.311-5.142 2.108-8.217 7.066-9.343 5.199-1.181 10.459-2.13 15.605-3.505 10.631-2.843 14.495-8.824 12.807-19.683-.818-5.267-1.945-10.484-2.893-15.732-1.481-8.206.068-10.689 8.131-13.228 5.086-1.6 10.23-3.049 15.228-4.892 9.765-3.6 13.208-9.862 10.95-19.937-1.165-5.196-2.897-10.265-4.147-15.445-1.376-5.698-.027-8.426 5.257-10.823 4.551-2.065 9.267-3.772 13.794-5.884 10.114-4.719 12.984-11.522 9.232-21.991-2.079-5.802-4.591-11.447-6.716-17.234-2.786-7.588-1.675-10.449 5.321-14.316 4.958-2.74 10.074-5.211 14.927-8.124 10.943-6.569 12.746-12.891 7.127-24.209-1.852-3.73-3.941-7.345-5.774-11.084-3.181-6.487-2.42-9.518 3.405-13.628 3.812-2.69 7.815-5.113 11.57-7.877 8.804-6.479 10.373-13.551 4.968-23-2.81-4.912-6.127-9.53-9.084-14.362-4.108-6.712-3.616-9.632 2.295-14.633 4.198-3.552 8.505-6.979 12.64-10.603 7.412-6.498 8.465-14.138 2.84-22.232-3.036-4.369-6.71-8.29-9.856-12.589-3.795-5.184-3.481-8.11.91-12.804 3.869-4.136 7.96-8.085 11.581-12.426 5.88-7.049 5.789-13.774-.293-20.705-4.941-5.632-10.313-10.884-15.373-16.415-4.047-4.424-4.373-7.13-.869-12.013 3.587-5 7.727-9.601 11.516-14.461 8.648-11.094 7.894-18.326-2.806-27.48-2.912-2.491-5.945-4.842-8.835-7.358-4.987-4.342-5.56-7.466-2.193-13.101 2.733-4.575 5.925-8.883 8.545-13.518 5.049-8.928 3.637-15.617-4.553-21.811-4.516-3.415-9.29-6.486-13.945-9.717-6.772-4.7-7.383-6.871-3.786-14.114 2.224-4.478 4.61-8.874 6.839-13.349 5.801-11.645 3.918-18.048-7.213-24.534-3.312-1.929-6.701-3.724-10.055-5.577-7.4-4.091-8.438-6.808-5.439-14.575 1.68-4.352 3.709-8.582 5.152-13.007 3.227-9.893.598-16.455-8.685-21.128-5.794-2.918-11.942-5.123-17.855-7.814-6.726-3.06-7.867-5.47-5.986-12.656 1.477-5.642 3.389-11.171 4.778-16.831 3.047-12.41-.346-18.541-12.326-22.69-4.408-1.526-8.856-2.94-13.292-4.39-4.046-1.322-5.8-4.096-5.642-8.338.201-5.377 1.829-10.495 2.621-15.764 1.834-12.203-1.731-17.874-13.587-20.931-5.16-1.33-10.421-2.266-15.614-3.471-7.927-1.84-9.545-4.283-8.76-12.309.6-6.128 1.292-12.28 1.309-18.424.022-8.436-4.159-13.41-12.447-15.063-5.05-1.007-10.235-1.326-15.358-1.971-8.118-1.022-9.979-3.09-10.11-11.229-.078-4.831.137-9.686-.265-14.489-.845-10.119-5.263-14.731-15.404-15.666-6.287-.579-12.652-.315-18.981-.438-9.813-.188-11.852-2.023-13.024-11.821-.772-6.449-1.176-12.96-2.304-19.345-1.553-8.793-6.303-12.735-15.184-12.758-5.815-.016-11.629.742-17.449.891-6.316.161-8.407-1.429-9.961-7.494-1.282-5.001-2.065-10.132-3.401-15.115-2.855-10.65-8.814-14.513-19.669-12.826-5.432.844-10.809 2.029-16.225 2.981-7.601 1.337-10.198-.278-12.594-7.729-1.683-5.235-3.15-10.548-5.047-15.704-3.593-9.771-9.849-13.22-19.926-10.961-5.033 1.128-9.936 2.828-14.937 4.114-5.878 1.513-8.736.22-11.304-5.26-2.119-4.524-3.813-9.248-5.934-13.771-4.751-10.129-11.509-12.977-21.998-9.215-5.958 2.138-11.753 4.729-17.709 6.872-7.064 2.542-9.963 1.404-13.59-5.066-2.933-5.231-5.533-10.659-8.638-15.783-6.296-10.391-12.684-12.197-23.501-6.9-3.89 1.905-7.642 4.09-11.531 5.996-6.476 3.172-9.518 2.399-13.627-3.429-2.784-3.949-5.281-8.107-8.18-11.968-6.243-8.312-13.243-9.858-22.26-4.779-5.074 2.858-9.828 6.277-14.804 9.317-6.715 4.104-9.604 3.609-14.627-2.323-3.553-4.197-6.979-8.504-10.604-12.638-6.491-7.403-14.135-8.446-22.233-2.813-4.368 3.037-8.29 6.71-12.59 9.855-5.187 3.794-8.089 3.476-12.8-.934-4.135-3.869-8.084-7.961-12.428-11.578-7.053-5.873-13.766-5.774-20.706.319-5.63 4.942-10.983 10.205-16.37 15.419-3.856 3.733-7.887 4.09-12.087.835-4.871-3.773-9.571-7.77-14.435-11.554-11.104-8.64-18.343-7.876-27.479 2.83-2.596 3.042-5.032 6.223-7.688 9.209-4.023 4.523-7.132 5.093-12.33 2.037-4.737-2.784-9.179-6.078-13.957-8.782-8.909-5.043-15.629-3.614-21.806 4.572-3.41 4.52-6.481 9.295-9.717 13.945-4.71 6.769-6.867 7.368-14.121 3.766-4.478-2.224-8.872-4.613-13.348-6.842-11.635-5.791-18.048-3.902-24.528 7.237-2.095 3.601-4 7.311-6.066 10.928-3.599 6.295-6.452 7.388-13.158 4.889-4.682-1.745-9.206-3.942-13.946-5.493-9.889-3.235-16.442-.591-21.118 8.706-2.914 5.796-5.119 11.944-7.811 17.857-3.05 6.703-5.487 7.85-12.671 5.964-5.64-1.48-11.168-3.397-16.828-4.783-12.402-3.037-18.526.362-22.681 12.354-1.527 4.408-2.942 8.856-4.388 13.293-1.323 4.06-4.118 5.785-8.352 5.615-5.205-.208-10.189-1.647-15.276-2.507-12.602-2.13-18.394 1.553-21.531 13.983-1.345 5.329-2.287 10.76-3.592 16.1-1.626 6.654-4.342 8.456-11.133 7.867-6.302-.547-12.608-1.361-18.919-1.416-9.065-.079-13.914 4.038-15.615 12.975-.963 5.06-1.243 10.247-1.927 15.364-1.012 7.563-3.111 9.433-10.673 9.576-4.665.089-9.346-.123-13.994.182-11.073.726-15.995 5.502-16.765 16.55-.439 6.308-.176 12.66-.34 18.99-.218 8.437-2.065 10.593-10.364 11.736-6.764.932-13.614 1.296-20.336 2.442-9.181 1.565-13.23 6.544-13.212 15.908.01 4.983.628 9.964.901 14.949.453 8.261-1.084 10.355-9.064 12.235-4.216.993-8.502 1.7-12.7 2.762-11.535 2.915-15.457 8.846-13.561 20.523.908 5.591 2.176 11.124 3.066 16.718.997 6.268-.639 8.965-6.627 11.02-5.673 1.945-11.491 3.482-17.115 5.554-9.721 3.581-13.098 9.869-10.818 20.002 1.097 4.871 2.707 9.624 3.936 14.469 1.711 6.746.389 9.325-6.086 12.146-4.431 1.931-8.983 3.599-13.328 5.7-9.556 4.622-12.329 11.326-8.791 21.354 2.161 6.125 4.835 12.069 7.025 18.185 2.508 7.004 1.328 9.889-5.194 13.541-5.378 3.012-10.972 5.667-16.194 8.923-9.761 6.083-11.521 12.575-6.535 22.859 2.108 4.347 4.581 8.52 6.609 12.9 2.54 5.49 1.698 8.507-3.229 12.066-3.916 2.829-8.067 5.331-11.977 8.169-9.069 6.585-10.686 13.707-5.127 23.353 2.908 5.047 6.341 9.789 9.399 14.754 3.571 5.796 3.041 9.145-2.063 13.536-4.168 3.586-8.46 7.027-12.647 10.593-8.301 7.066-9.285 14.882-2.831 23.746 2.842 3.901 6.142 7.468 9.021 11.344 4.007 5.394 3.741 8.354-.826 13.199-3.542 3.758-7.259 7.364-10.619 11.277-7.065 8.23-6.876 14.981.512 23.011 4.512 4.904 9.217 9.629 13.737 14.525 4.808 5.206 5.064 7.843.806 13.609-3.856 5.222-8.274 10.029-12.141 15.245-6.917 9.33-6.197 16.252 2.339 24.138 3.057 2.824 6.344 5.398 9.537 8.072 6.366 5.333 6.84 8.275 2.372 15.401-2.654 4.234-5.6 8.304-8.007 12.672-4.572 8.299-3.271 14.871 4.21 20.688 5.125 3.983 10.666 7.426 15.934 11.23 5.16 3.728 5.792 6.205 3.018 11.931-2.688 5.548-5.714 10.935-8.328 16.516-4.481 9.567-2.498 16.074 6.557 21.622 4.4 2.697 9.058 4.975 13.491 7.622 5.199 3.106 6.243 6.011 4.183 11.753-1.631 4.546-3.664 8.946-5.328 13.48-3.996 10.886-1.192 17.944 9.285 22.936 5.562 2.649 11.369 4.779 16.977 7.339 6.641 3.031 7.787 5.622 5.842 12.718-1.586 5.785-3.552 11.476-4.922 17.308-2.789 11.878.636 17.931 12.108 21.951 4.246 1.488 8.52 2.91 12.833 4.186 4.986 1.475 7.082 4.766 6.361 9.787-.686 4.778-1.617 9.521-2.428 14.282-2.111 12.393 1.559 18.246 13.61 21.324 5.648 1.443 11.412 2.43 17.064 3.858 6.109 1.544 7.877 4.276 7.34 10.521-.543 6.304-1.396 12.604-1.486 18.916-.137 9.493 4.196 14.541 13.563 16.194 5.077.896 10.266 1.145 15.373 1.896 7.031 1.032 8.82 3.117 8.981 10.168.107 4.664-.101 9.343.165 13.995.658 11.547 5.579 16.546 17.167 17.228 6.314.371 12.664.111 18.992.311 7.793.244 9.975 2.154 11.069 9.941.928 6.596 1.27 13.279 2.333 19.849 1.649 10.189 6.426 14.178 16.649 14.105 4.818-.034 9.63-.665 14.45-.896 1.769-.085 4.057-.813 5.155.872 1.186 1.816-.763 3.386-1.661 4.871-18.722 30.94-37.488 61.854-56.248 92.772-4.928 8.121-9.84 16.252-14.802 24.353-3.231 5.274-3.894 5.399-8.831 1.849-22.894-16.462-44.581-34.42-65.323-53.485-57.709-53.045-106.259-113.471-145.748-181.212-49.641-85.158-81.039-176.631-95.334-274.056-6.229-42.452-9.077-85.17-7.874-128.045 2.944-104.907 25.44-205.425 69.3-300.926 30.164-65.681 68.821-126.021 115.998-180.764 62.682-72.735 136.46-131.733 221.071-177.207 80.002-42.997 165.151-70.101 254.948-82.798 41.145-5.817 82.561-8.436 124.097-7.183 117.408 3.545 228.766 31.124 333.189 85.387 56.6 29.412 108.951 65.134 156.642 107.533 78.624 69.899 140.507 152.48 185.642 247.458 33.952 71.445 55.676 146.61 66.068 225.028 1.467 11.062 2.779 22.153 3.753 33.267 1.992 22.741 3.17 45.527 3.203 68.381z"/><g fill="#FFF"><path d="M652.439 503.149c-34.781 0-58.713-24.411-58.713-57.437v-.319c0-31.75 24.729-57.756 58.553-57.756 20.103 0 32.229 5.425 43.875 15.316l-15.476 18.667c-8.616-7.18-16.274-11.328-29.197-11.328-17.869 0-32.068 15.795-32.068 34.781v.319c0 20.422 14.04 35.419 33.823 35.419 8.935 0 16.912-2.233 23.134-6.701v-15.954h-24.729v-21.22h48.502v48.502c-11.487 9.734-27.282 17.711-47.704 17.711zM806.881 501.234l-10.211-25.049h-47.226l-10.211 25.049h-25.049l47.864-112.48h22.656l47.863 112.48h-25.686zm-33.824-82.963-14.838 36.217h29.675l-14.837-36.217zM937.071 501.234v-72.913l-31.431 47.705h-.639L873.89 428.8v72.434H849.8V389.552h26.484l29.356 47.226 29.356-47.226h26.484v111.682h-24.409zM988.288 501.234V389.552h84.24v21.858h-59.83v22.655h52.65v21.858h-52.65v23.453h60.627v21.858h-85.037zM537.404 657.736h-21.379l-25.208-73.072-25.208 73.072H444.23l-38.132-112.48h26.325l23.134 75.625 25.049-75.943h21.06l25.049 75.943 23.134-75.625h25.687l-38.132 112.48zM641.591 658.853c-34.462 0-59.191-25.687-59.191-57.437v-.319c0-31.75 25.049-57.756 59.511-57.756s59.191 25.687 59.191 57.437v.319c0 31.75-25.049 57.756-59.511 57.756zm33.824-57.755c0-19.146-14.04-35.101-33.824-35.101s-33.505 15.636-33.505 34.781v.319c0 19.146 14.04 35.1 33.824 35.1 19.783 0 33.504-15.635 33.504-34.781v-.318zM790.767 656.938 766.835 621.2H747.53v35.738h-24.57V545.256h51.055c26.325 0 42.12 13.88 42.12 36.855v.319c0 18.028-9.732 29.356-23.932 34.621l27.282 39.887h-28.718zm.479-73.55c0-10.53-7.339-15.955-19.305-15.955h-24.41v32.069h24.889c11.966 0 18.827-6.382 18.827-15.795v-.319zM910.427 656.938l-34.621-47.545-12.923 13.402v34.143h-24.57V545.256h24.57v48.821l45.311-48.821h29.676l-45.471 47.385 47.545 64.297h-29.517zM954.782 656.938V545.256h84.24v21.858h-59.83v22.655h52.65v21.858h-52.65v23.453h60.627v21.858h-85.037zM1129.486 656.938l-23.932-35.738h-19.306v35.738h-24.57V545.256h51.055c26.325 0 42.121 13.88 42.121 36.855v.319c0 18.028-9.732 29.356-23.933 34.621l27.282 39.887h-28.717zm.479-73.55c0-10.53-7.339-15.955-19.305-15.955h-24.411v32.069h24.89c11.966 0 18.826-6.382 18.826-15.795v-.319zM1216.759 658.534c-16.912 0-33.983-5.903-47.385-17.869l14.519-17.391c10.051 8.296 20.581 13.562 33.345 13.562 10.052 0 16.114-3.989 16.114-10.53v-.319c0-6.222-3.829-9.413-22.496-14.199-22.496-5.744-37.015-11.966-37.015-34.143v-.319c0-20.263 16.273-33.664 39.089-33.664 16.273 0 30.154 5.105 41.481 14.199l-12.764 18.507c-9.892-6.86-19.624-11.008-29.037-11.008s-14.359 4.308-14.359 9.732v.319c0 7.339 4.787 9.732 24.092 14.678 22.655 5.903 35.419 14.04 35.419 33.504v.319c0 22.177-16.911 34.622-41.003 34.622zM492.365 895.9c-52.401 0-84.456-29.268-84.456-86.686V697.721h42.925V808.1c0 31.775 15.888 48.221 42.088 48.221s42.088-15.889 42.088-46.827V697.721h42.925v110.1c.001 59.091-33.168 88.079-85.57 88.079zM758.551 892.834l-94.49-124.036v124.036h-42.367V697.721h39.58l91.424 120.134V697.721h42.368v195.113h-36.515zM843.839 892.834V697.721h42.925v195.113h-42.925zM1023.898 737.301v155.533h-42.925V737.301h-59.37v-39.58h161.665v39.58h-59.37zM1116.155 892.834V697.721h147.171v38.187h-104.524v39.58h91.981v38.186h-91.981v40.974h105.918v38.187h-148.565zM493.073 1052.149v-66.267l-28.566 43.355h-.58l-28.276-42.921v65.832h-21.896V950.646h24.071l26.681 42.921 26.681-42.921h24.071v101.503h-22.186zM588.917 1053.89c-31.321 0-53.797-23.346-53.797-52.202v-.29c0-28.855 22.766-52.491 54.087-52.491 31.321 0 53.796 23.346 53.796 52.201v.29c0 28.856-22.766 52.492-54.086 52.492zm30.74-52.493c0-17.4-12.76-31.9-30.741-31.9s-30.451 14.21-30.451 31.61v.29c0 17.401 12.761 31.901 30.741 31.901s30.451-14.21 30.451-31.611v-.29zM734.061 1052.149l-49.156-64.527v64.527h-22.041V950.646h20.591l47.562 62.497v-62.497h22.041v101.503h-18.997zM823.379 971.237v80.912h-22.331v-80.912h-30.886v-20.591h84.102v20.591h-30.885zM932.999 1052.149l-21.751-32.481h-17.546v32.481h-22.33V950.646h46.401c23.926 0 38.281 12.615 38.281 33.496v.29c0 16.386-8.846 26.681-21.751 31.466l24.796 36.251h-26.1zm.435-66.846c0-9.57-6.67-14.501-17.546-14.501h-22.186v29.146h22.621c10.875 0 17.11-5.801 17.11-14.355v-.29zM976.206 1052.149V950.646h76.562v19.865h-54.376v20.591h47.852v19.865h-47.852v21.316h55.102v19.865h-77.288zm26.101-109.478 16.386-25.665 18.995 8.265-18.561 17.4h-16.82zM1148.902 1052.149l-9.28-22.766h-42.921l-9.28 22.766h-22.766l43.501-102.228h20.591l43.501 102.228h-23.346zm-30.741-75.402-13.485 32.916h26.971l-13.486-32.916zM1187.905 1052.149V950.646h22.33v81.202h50.606v20.301h-72.936z"/></g><circle cx="831.001" cy="831" r="667.02" fill="none"/><path d="m404.511 1344.347-46.552 52.276-11.501-10.241 37.242-41.821-26.063-23.209 9.311-10.455 37.563 33.45zM321.705 1262.205l-7.368 15.271 19.832 21.976 15.943-5.767 10.519 11.656-72.44 24.961-9.513-10.543 32.241-69.507 10.786 11.953zm-24.402 50.579 23.083-8.305-12.461-13.809-10.622 22.114zM283.636 1212.261l19.284 27.148-57.07 40.538-18.821-26.496c-8.282-11.659-7.589-22.946 1.379-29.316l.163-.115c6.441-4.575 12.46-3.699 17.639-1.244-2.164-8.398-1.228-15.198 6.436-20.641l.163-.115c10.436-7.414 21.676-2.641 30.827 10.241zm-44.248 22.842c-3.751 2.664-3.786 7.105-.021 12.405l8.803 12.392 12.066-8.57-8.223-11.577c-3.938-5.544-8.221-7.775-12.461-4.765l-.164.115zm20.57-19.394c-3.832 2.722-4.169 7.254.406 13.695l10.308 14.513 12.556-8.918-10.598-14.92c-3.938-5.544-8.269-7.497-12.508-4.487l-.164.117zM245.12 1147.494c10.281 18.996 3.5 40.289-14.001 49.762l-.176.095c-17.501 9.472-39.308 3.423-49.588-15.572-10.281-18.995-3.5-40.29 14.001-49.762l.175-.095c17.501-9.472 39.308-3.423 49.589 15.572zm-41.925-1.414c-10.553 5.712-15.159 18.211-9.257 29.115 5.902 10.905 18.613 13.803 29.167 8.092l.175-.095c10.554-5.713 15.159-18.211 9.257-29.114-5.902-10.905-18.613-13.804-29.167-8.094l-.175.096zM210.332 1072.69c6.825 17.518 1.216 32.046-17.979 39.524l-37.273 14.523-5.591-14.351 36.9-14.377c10.623-4.14 14.051-11.593 10.638-20.351-3.413-8.761-10.793-12.003-21.136-7.972l-37.367 14.558-5.591-14.35 36.807-14.341c19.755-7.695 33.766-.381 40.592 17.137zM181.886 985.827l-17.876 20.183 3.062 11.706 21.673-5.669 3.897 14.901-67.727 17.714-8.099-30.961c-4.176-15.964 1.736-27.744 15.668-31.388l.193-.051c10.933-2.86 19.346 1.245 24.792 9.021l19.861-22.871 4.556 17.415zm-44.679 11.377c-6.386 1.67-8.511 6.981-6.613 14.237l3.872 14.804 19.447-5.087-3.947-15.094c-1.898-7.256-6.857-10.404-12.565-8.911l-.194.051zM167.574 888.039c1.874 20.514-12.569 37.195-32.585 39.023l-.199.018c-19.817 1.81-37.413-11.645-39.368-33.055-1.201-13.146 2.462-21.412 8.245-28.467l12.144 8.731c-4.389 5.822-6.876 11.572-6.239 18.544 1.073 11.75 11.605 19.323 23.555 18.232l.199-.019c11.95-1.091 21.153-10.266 20.063-22.216-.728-7.967-4.36-12.555-9.839-17.577l8.968-10.659c8.321 6.471 13.828 14.002 15.056 27.445zM164.333 801.844l-22.576 14.736-.142 12.1 22.399.263-.181 15.4-69.998-.823.376-32c.194-16.499 9.01-26.296 23.41-26.127l.2.002c11.3.133 18.328 6.316 21.523 15.254l25.2-16.805-.211 18zm-46.095-.843c-6.6-.078-10.054 4.482-10.142 11.982l-.18 15.299 20.1.237.184-15.6c.088-7.5-3.861-11.847-9.761-11.917l-.201-.001zM166.349 769.494l-69.418-8.981 6.774-52.36 13.586 1.758-4.812 37.188 14.083 1.822 4.234-32.726 13.586 1.758-4.234 32.726 14.577 1.886 4.876-37.684 13.586 1.758-6.838 52.855zM188.549 649.858l-16.778 2.446-7.102 28.737 13.707 9.98-3.767 15.243-61.248-46.04 3.407-13.786 75.643-12.211-3.862 15.631zm-55.57 8.106 19.807 14.476 4.462-18.059-24.269 3.583zM152.452 581.307l52.578 18.7-5.161 14.51-52.577-18.7-7.139 20.07-13.379-4.759 19.438-54.65 13.379 4.759-7.139 20.07zM217.979 566.473l-63.173-30.167 22.754-47.65 12.364 5.904-16.161 33.842 12.815 6.12L200.8 504.74l12.364 5.904-14.221 29.781 13.266 6.335 16.376-34.294 12.364 5.905-22.97 48.102zM262.915 483.151c-5.526 9.045-14.262 16.248-25.042 19.506l-4.558-13.448c7.722-2.666 13.979-6.578 18.149-13.405 3.285-5.377 3.132-9.923-.367-12.06l-.171-.104c-3.328-2.034-6.286-1.028-14.945 7.393-10.423 10.156-18.495 15.889-30.357 8.643l-.17-.104c-10.838-6.621-12.689-19.705-5.234-31.908 5.317-8.705 12.583-14.46 21.149-17.548l5.729 12.875c-6.902 3.049-12.301 6.899-15.376 11.935-3.076 5.035-2.388 9.087.514 10.86l.171.104c3.925 2.397 6.769.62 15.723-8.09 10.561-10.189 19.083-14.357 29.495-7.997l.171.104c11.86 7.245 12.99 20.358 5.119 33.244zM327.44 395.368c-14.199 16.541-35.579 17.958-51.286 4.475l-.151-.13c-15.1-12.962-17.373-35.339-3.564-51.425 8.207-9.561 15.737-13.113 25.196-14.614l2.56 14.981c-6.932 1.166-12.031 3.115-17.307 9.261-7.294 8.499-5.579 21.7 3.45 29.451l.151.13c9.712 8.337 22.577 7.782 30.653-1.627 3.647-4.249 5.842-8.955 6.257-13.738l-7.587-6.514-10.096 11.762-10.091-8.663 19.8-23.067 23.066 19.801c-.06 9.436-2.714 20.205-11.051 29.917zM396.656 324.339l-15.315-7.273-21.853 19.965 5.865 15.908-11.591 10.59-25.406-72.285 10.484-9.578 69.702 31.813-11.886 10.86zm-50.727-24.09 8.446 23.032 13.731-12.546-22.177-10.486zM463.749 273.767l-26.295-37.379 1.091 35.792-.327.23-32.981-12.991 26.122 37.134-12.351 8.688-40.276-57.255 13.578-9.551 32.081 13.624-1.98-34.797 13.578-9.551 40.276 57.256-12.516 8.8zM493.121 255.231l-33.198-61.63 46.488-25.041 6.497 12.061-33.016 17.785 6.734 12.502 29.055-15.651 6.497 12.062-29.055 15.651 6.972 12.942 33.457-18.022 6.498 12.063-46.929 25.278zM578.528 214.497c-9.798 4.042-21.1 4.701-31.725.97l4.256-13.545c7.807 2.405 15.166 2.939 22.562-.111 5.824-2.402 8.383-6.163 6.82-9.952l-.076-.185c-1.487-3.605-4.468-4.539-16.428-2.851-14.406 2.048-24.305 1.913-29.605-10.937l-.077-.185c-4.842-11.739 1.384-23.394 14.603-28.846 9.429-3.889 18.691-4.249 27.428-1.686l-2.972 13.773c-7.371-1.611-14-1.688-19.455.561-5.455 2.25-7.29 5.927-5.994 9.07l.076.185c1.754 4.252 5.099 4.496 17.466 2.747 14.537-1.994 23.876-.329 28.529 10.948l.076.185c5.3 12.85-1.525 24.102-15.484 29.859zM660.87 164.875c-7.946 2.026-16.094-2.811-18.12-10.757s2.811-16.094 10.757-18.121c7.946-2.026 16.094 2.812 18.12 10.758s-2.811 16.095-10.757 18.12zM783.299 165.373l-38.063-40.993 4.325 44.288-15.127 1.478-6.804-69.666 14.131-1.38 36.834 39.706-4.19-42.895 15.127-1.478 6.806 69.666-13.039 1.274zM849.607 165.416c-21.58-.953-36.356-17.721-35.478-37.603l.008-.199c.878-19.882 17.281-35.475 38.862-34.522 21.579.953 36.355 17.721 35.478 37.603l-.009.2c-.877 19.88-17.28 35.473-38.861 34.521zm22.777-35.232c.529-11.989-7.822-22.368-20.21-22.914-12.389-.547-21.414 8.865-21.941 20.854l-.009.199c-.529 11.989 7.821 22.368 20.21 22.915 12.388.546 21.412-8.865 21.942-20.854l.008-.2zM939.408 116.222l-7.71 55.261-15.251-2.128 7.71-55.26-21.094-2.943 1.963-14.063 57.438 8.015-1.962 14.063-21.094-2.945zM1008.361 187.63l-9.098-25.379-11.737-2.945-5.453 21.728-14.938-3.749 17.038-67.899 31.04 7.789c16.005 4.016 23.49 14.865 19.986 28.833l-.05.193c-2.75 10.961-10.396 16.363-19.832 17.398l10.502 28.412-17.458-4.381zm11.512-44.643c1.605-6.402-2.027-10.82-9.303-12.645l-14.841-3.725-4.894 19.497 15.132 3.797c7.275 1.826 12.42-1.008 13.856-6.731l.05-.193zM1039.622 196.73l24.349-65.633 49.506 18.365-4.765 12.845-35.161-13.043-4.938 13.314 30.94 11.479-4.766 12.845-30.94-11.478-5.112 13.783 35.628 13.217-4.765 12.846-49.976-18.54zM1190.049 203.435l-27.229 48.701-13.44-7.514 27.229-48.702-18.591-10.394 6.929-12.394 50.622 28.303-6.928 12.393-18.592-10.393zM1228.414 294.983l.72-26.95-9.871-6.999-12.956 18.273-12.563-8.908 40.49-57.104 26.105 18.51c13.459 9.544 16.504 22.368 8.174 34.115l-.116.163c-6.535 9.219-15.619 11.482-24.787 9.026l-.512 30.286-14.684-10.412zm26.909-37.434c3.818-5.384 2.033-10.819-4.086-15.157l-12.481-8.85-11.626 16.397 12.727 9.023c6.117 4.338 11.939 3.563 15.352-1.25l.114-.163zM1293.026 349.408l5.76-15.946-21.983-19.822-15.267 7.375-11.659-10.514 69.491-32.27 10.545 9.509-24.93 72.45-11.957-10.782zm19.078-52.816-22.108 10.631 13.813 12.456 8.295-23.087zM1330.959 390.108l-9.103-10.107 33.455-68.209 11.377 12.634-24.393 46.591 48.885-19.392 11.109 12.336-71.33 26.147zM1383.082 455.939l8.932-14.411-17.413-23.938-16.462 4.061-9.236-12.696 74.661-17.215 8.354 11.483-39.363 65.736-9.473-13.02zm29.58-47.735-23.828 5.834 10.942 15.042 12.886-20.876zM1399.521 481.851l60.032-35.999 7.919 13.207-60.031 35.999-7.92-13.207zM1417.955 513.032l62.613-31.299 6.886 13.775-50.092 25.04 15.605 31.217-12.522 6.26-22.49-44.993zM1467.338 634.302c-6.209-19.642 4.34-39.021 23.505-45.08l.191-.06c18.973-5.998 39.035 3.391 45.516 23.891 3.978 12.586 2.164 21.444-1.979 29.57l-13.729-5.938c3.045-6.625 4.247-12.774 2.138-19.449-3.558-11.25-15.463-16.401-26.904-12.785l-.189.061c-11.442 3.616-18.476 14.544-14.858 25.986 2.411 7.628 6.938 11.335 13.364 15.072l-6.486 12.328c-9.512-4.543-16.501-10.725-20.569-23.596zM1488.645 717.636l19.129-18.996-2.308-11.878-21.99 4.271-2.936-15.117 68.717-13.35 6.102 31.413c3.146 16.198-3.506 27.575-17.643 30.321l-.195.038c-11.093 2.155-19.227-2.479-24.163-10.587l-21.28 21.554-3.433-17.669zm45.311-8.496c6.479-1.259 8.94-6.422 7.509-13.785l-2.917-15.02-19.731 3.833 2.975 15.314c1.43 7.362 6.178 10.821 11.969 9.695l.195-.037zM1493.659 749.833l69.756-5.809 4.381 52.616-13.652 1.137-3.11-37.369-14.151 1.178 2.738 32.885-13.653 1.137-2.737-32.885-14.648 1.22 3.153 37.868-13.653 1.137-4.424-53.115zm76.731 11.671 18.575 9.792-4.593 13.527-13.02-11.759-.962-11.56zM1498.2 819.593l69.998.823-.621 52.799-13.699-.161.44-37.499-14.2-.167-.387 32.999-13.7-.161.388-32.999-14.699-.173-.447 37.999-13.699-.161.626-53.299zM1492.118 922.943l68.984 11.897-2.617 15.176-55.187-9.518-5.932 34.394-13.797-2.38 8.549-49.569zM1480.256 986.641l67.422 18.819-14.195 50.856-13.194-3.684 10.081-36.119-13.676-3.817-8.873 31.784-13.195-3.684 8.872-31.784-14.158-3.952-10.217 36.601-13.195-3.684 14.328-51.336zM1450.37 1076.413c3.888-9.862 11.254-18.46 21.312-23.524l6.804 12.463c-7.148 3.954-12.639 8.885-15.572 16.327-2.311 5.862-1.377 10.314 2.438 11.816l.186.074c3.629 1.431 6.37-.068 13.451-9.854 8.52-11.798 15.485-18.834 28.418-13.736l.186.073c11.815 4.656 15.89 17.227 10.646 30.531-3.74 9.489-9.907 16.411-17.813 20.927l-7.859-11.698c6.275-4.19 10.93-8.912 13.094-14.402 2.163-5.489.788-9.363-2.375-10.61l-.187-.072c-4.279-1.688-6.775.554-14.096 10.675-8.65 11.854-16.328 17.427-27.678 12.952l-.187-.072c-12.935-5.099-16.305-17.822-10.768-31.87zM1410.861 1158.95c5.43-9.45 13.18-13.303 20.512-14.624l4.532 13.79c-5.808 1.276-10.005 3.362-12.446 7.61-2.89 5.029-1.648 9.894 5.374 13.93l39.103 22.468-7.872 13.699-39.709-22.817c-14.74-8.47-16.867-21.226-9.494-34.056zM1389.472 1196.777l57.037 40.585-30.612 43.021-11.163-7.943 21.741-30.554-11.569-8.234-19.134 26.89-11.161-7.943 19.132-26.889-11.978-8.523-22.031 30.964-11.164-7.942 30.902-43.432zM1328.067 1274.175c12.521-14.021 28.013-15.605 43.378-1.884l29.834 26.644-10.259 11.486-29.535-26.378c-8.503-7.593-16.7-7.271-22.961-.26-6.261 7.01-5.807 15.059 2.473 22.451l29.908 26.711-10.258 11.486-29.461-26.312c-15.811-14.119-15.641-29.923-3.119-43.944zM1263.412 1339.117l27.694 7.458-4.187-28.429 13.06-11.65 5.491 42.812 40.365 10.093-13.433 11.983-26.082-7.153 4.067 26.793-13.061 11.65-5.307-41.102-42.043-10.472 13.436-11.983z"/></svg>