<?xml version="1.0" encoding="utf-8"?>
<!-- Generator: Adobe Illustrator 16.0.0, SVG Export Plug-In . SVG Version: 6.00 Build 0)  -->
<!DOCTYPE svg PUBLIC "-//W3C//DTD SVG 1.1//EN" "http://www.w3.org/Graphics/SVG/1.1/DTD/svg11.dtd">
<svg version="1.1" id="Layer_1" xmlns="http://www.w3.org/2000/svg" xmlns:xlink="http://www.w3.org/1999/xlink" x="0px" y="0px"
	 width="945.956px" height="478.495px" viewBox="0 0 945.956 478.495" enable-background="new 0 0 945.956 478.495"
	 xml:space="preserve">
<g id="bg">
	<path fill="#221D5A" d="M650.16,322.989h-17.707l4.628-13H242.019l-13.853,38.201l-5.6-25.201h-10.269l-2.81-13H136.92
		l-35.199,96.933c-1.085,2.983-1.6,4.067-6.131,4.067h-0.416l31.97-88h-17.708l4.628-13h-44.97L32.108,411.634
		c-4.41,12.115-4.046,21.985,1.081,29.308c2.581,3.686,6.145,6.474,10.724,8.396c0.623,1.527,1.406,2.821,2.355,4.177
		c5.476,7.821,15.32,11.475,30.093,11.475h27.094c12.668,0,23.453-2.897,32.133-8.526l-3.104,8.526h44.79l13.596-36.996
		l5.769,24.996h10.102l2.977,12h139.391l15.281-42h-17.707l4.628-12h-15.024l16.82-47h44.784l-32.102,89h17.707l-4.628,12h44.789
		l36.73-101h14.054l-32.102,89h17.707l-4.628,12h143.525L650.16,322.989z"/>
	<path fill="#221D5A" d="M923.957,69.989l15.158-41h-17.708l4.629-13H359.947L335.89,43.303l-2.115-15.313h-11.28l-1.799-12h-41.161
		l-15.596,42.492l-1.633-30.492h-12.39l-0.689-12h-39.398l-28.795,36.685c-0.126-4.95-1.478-9.298-4.057-12.982
		c-2.54-3.627-6.079-6.38-10.654-8.234c-0.629-1.595-1.434-2.985-2.425-4.399c-5.27-7.525-14.789-11.068-29.102-11.068h-27.821
		c-25.811,0-43.822,11.869-52.086,34.573L30.534,117.41c-4.424,12.156-4.074,21.991,1.042,29.297
		c2.572,3.673,6.133,6.43,10.715,8.347c0.623,1.539,1.41,2.988,2.364,4.351c5.459,7.797,15.315,11.585,30.131,11.585h26.549
		c12.783,0,23.649-2.948,32.369-8.677l-3.158,8.677h44.971l11.939-32.893l0.797-1.107h14.904l-7.681,21h17.708l-4.628,13h32.181
		h12.609h32.181l18.228-49.898l1.004,9.898h12.426l-10.063,27h17.707l-4.628,13h568.287l15.158-41h-17.709l3.848-11h10.165
		l15.157-41h-17.708l2.7-8H923.957z"/>
	<path fill="#221D5A" d="M874.497,200.755c-2.438-3.481-5.977-6.025-10.561-7.632c-0.584-1.819-1.421-3.698-2.519-5.266
		c-4.5-6.427-12.72-9.868-24.43-9.868h-17.866c-12.625,0-23.342,4.063-31.233,11.204c-0.258-0.438-0.529-0.96-0.823-1.38
		c-4.521-6.458-12.777-9.824-24.538-9.824H617.819l-15.256,13h-5.57l4.628-13h-38.425l-2.115,5.811
		c-4.796-3.854-11.771-5.811-20.843-5.811h-49.729l-2.316,6.365c-4.783-4.226-11.976-6.365-21.46-6.365h-23.048
		c-5.973,0-11.402,0.839-16.282,2.446l0.89-2.446h-37.061l-9.163,25.605l-2.61,5.395h-7.847l6.342-18h-17.708l4.628-13H54.948
		l-39.09,112h20.584l-4.575,13H304.47l4.673-13h8.539l-2.28,13h32.945l6.908-10.014l-0.381,10.014h32.132l8.228-15.233
		c0.207,0.079,0.417,0.035,0.629,0.109c0.584,1.819,1.421,3.694,2.519,5.261c4.5,6.428,12.72,9.863,24.431,9.863h23.048
		c6.819,0,12.934-1.088,18.32-3.177l-1.156,3.177h38.563l4.628-13h10.672l-4.628,13h61.879l4.628-13h13.673l-4.628,13h136.065
		l4.628-13h10.672l-4.628,13h38.426l2.421-6.651c4.78,4.413,12.072,6.651,21.764,6.651h18.003c20.724,0,35.765-10.205,42.353-28.307
		l4.367-12.118c3.724-10.23,3.418-18.608-0.907-24.785c-0.744-1.063-1.59-2.065-2.536-2.949l14.772-3.488l2.371-6.528
		C879.157,214.989,878.792,206.89,874.497,200.755z"/>
</g>
<g id="fg">
	<g>
		<path fill="#FFC807" d="M131.807,120.45c-7.346,20.182-22.64,28.729-43.551,28.729H61.708c-21.093,0-29.984-8.546-22.639-28.729
			l24.354-66.913c7.346-20.184,22.64-28.729,43.551-28.729h27.821c20.912,0,28.712,8.545,21.366,28.729l-1.919,5.273l-28.022,6.545
			l2.647-7.272c2.449-6.729,0.664-9.819-7.519-9.819h-19.457c-8.183,0-12.216,3.09-14.665,9.819l-20.913,57.457
			c-2.448,6.728-0.665,9.819,7.336,9.819h21.275c7.818,0,11.043-2.364,13.558-9.274l5.956-16.364H95.529l7.28-20.001h43.823
			L131.807,120.45z"/>
		<path fill="#FFC807" d="M245.62,116.995l-11.714,32.184h-25.458l10.258-28.184l-0.312-5.636h-47.643l-4.415,5.636l-10.258,28.184
			h-25.64l11.714-32.184l72.103-92.186h26.367L245.62,116.995z M186.662,92.63h32.186l-1.608-38.547h-0.909L186.662,92.63z"/>
		<path fill="#FFC807" d="M320.092,149.179l28.854-79.276h-0.728l-32.346,38.911h-16.002l-4.021-38.911h-0.909l-28.854,79.276
			h-25.458l45.267-124.37h26.912l7.176,50.729l44.104-50.729h26.912l-45.267,124.37H320.092z"/>
		<path fill="#FFC807" d="M353.365,149.179l45.267-124.37h86.737l-8.537,23.456h-61.098l-9.331,25.638h49.824l-8.405,23.092h-49.824
			l-10.324,28.365h61.098l-8.669,23.819H353.365z"/>
	</g>
	<g>
		<path fill="#FFC807" d="M369.846,217.576l-2.13,30.957h0.955l21.722-41.321l7.198-19.775h17.729l-8.687,23.866l-38.085,69.415
			h-17.32l1.162-30.548h-0.818l-21.074,30.548h-17.32l12.444-69.415l8.687-23.866h17.594l-7.198,19.775l-8.357,41.321h1.091
			l20.27-30.957H369.846z"/>
		<path fill="#FFC807" d="M409.733,280.718c-15.685,0-22.489-6.411-16.98-21.547l18.267-50.187
			c5.51-15.137,16.98-21.547,32.665-21.547h23.048c15.685,0,22.489,6.41,16.979,21.547l-18.267,50.187
			c-5.509,15.137-16.979,21.547-32.664,21.547H409.733z M436.692,262.852c6.137,0,9.163-2.318,11-7.364l15.685-43.094
			c1.837-5.046,0.498-7.364-5.639-7.364h-17.729c-6.138,0-9.163,2.318-11,7.364l-15.685,43.094
			c-1.837,5.046-0.499,7.364,5.639,7.364H436.692z"/>
		<path fill="#FFC807" d="M512.151,280.718l6.304-17.32l-6.776-17.729h-16.775l-12.756,35.049h-19.23l33.951-93.281h43.37
			c15.685,0,22.625,6.41,17.115,21.547l-4.964,13.638c-3.375,9.274-11.039,16.092-20.153,18.274l7,17.865l-7.991,21.957H512.151z
			 M522.891,228.35c6.139,0,9.164-2.318,11-7.364l3.127-8.591c1.837-5.046,0.499-7.364-5.639-7.364h-21.685l-8.487,23.32H522.891z"
			/>
		<path fill="#FFC807" d="M587.703,280.718l8.091-22.229l-12.393-19.911l-18.379,13.773l-10.324,28.367h-19.094l33.951-93.281
			h19.094l-13.898,38.185h0.546l45.812-38.185h24.822l-45.316,36.822l16.892,25.911l-11.118,30.548H587.703z"/>
		<path fill="#FFC807" d="M613.746,280.718l33.951-93.281h65.055l-6.403,17.593h-45.824l-6.999,19.229h37.369l-6.304,17.319h-37.369
			l-7.743,21.274h45.824l-6.502,17.866H613.746z"/>
		<path fill="#FFC807" d="M734.44,280.718l6.304-17.32l-6.776-17.729h-16.775l-12.756,35.049h-19.23l33.951-93.281h43.37
			c15.685,0,22.625,6.41,17.115,21.547l-4.964,13.638c-3.375,9.274-11.039,16.092-20.153,18.274l7,17.865l-7.991,21.957H734.44z
			 M745.18,228.35c6.139,0,9.164-2.318,11-7.364l3.127-8.591c1.837-5.046,0.499-7.364-5.639-7.364h-21.685l-8.487,23.32H745.18z"/>
		<path fill="#FFC807" d="M787.669,255.488c-1.837,5.046-0.498,7.364,5.639,7.364h13.639c6.138,0,9.163-2.318,11-7.364l2.233-6.137
			c1.837-5.046,0.499-7.364-5.639-7.364h-17.32c-15.685,0-21.336-6.955-15.777-22.229l3.724-10.229
			c5.509-15.138,18.27-22.093,33.954-22.093h17.866c15.684,0,22.488,6.41,16.979,21.547l-0.694,1.91l-20.881,4.91l1.24-3.409
			c1.837-5.046,0.499-7.364-5.639-7.364h-13.639c-6.137,0-9.163,2.318-11,7.364l-1.787,4.91c-1.836,5.045-0.497,7.364,5.64,7.364
			h17.185c15.685,0,21.385,6.818,15.875,21.956l-4.367,12c-5.56,15.274-18.134,22.093-33.817,22.093h-18.003
			c-15.684,0-22.488-6.411-16.979-21.547l0.894-2.455l21.017-4.91L787.669,255.488z"/>
	</g>
	<g>
		<path fill="#FFC807" d="M133.926,414.766c-7.346,20.182-22.64,28.729-43.551,28.729H63.282c-20.912,0-29.984-8.547-22.639-28.729
			l34.811-95.642h25.639l-33.024,90.731c-2.448,6.728-0.664,9.819,7.519,9.819H95.59c8.183,0,12.218-3.092,14.667-9.819
			l33.024-90.731h25.457L133.926,414.766z"/>
		<path fill="#FFC807" d="M203.839,443.494l-17.582-75.095h-1.091l-27.332,75.095h-25.458l45.267-124.37h24.549l17.036,77.094h1.091
			l28.06-77.094h25.64l-45.267,124.37H203.839z"/>
		<path fill="#FFC807" d="M247.418,419.675h32.731l28.061-77.096h-30.913l8.537-23.455h87.102l-8.537,23.455h-30.731l-28.061,77.096
			h32.731l-8.669,23.819h-90.92L247.418,419.675z"/>
		<path fill="#FFC807" d="M440.947,342.579l-36.73,100.915H378.76l36.73-100.915h-39.096l8.537-23.455h103.467l-8.537,23.455
			H440.947z"/>
		<path fill="#FFC807" d="M455.31,443.494l45.267-124.37h86.738l-8.537,23.455H517.68l-9.332,25.639h49.824l-8.404,23.092h-49.824
			l-10.324,28.365h61.098l-8.67,23.819H455.31z"/>
		<path fill="#FFC807" d="M552.591,443.494l9.397-25.82h26.912l-9.397,25.82H552.591z M566.422,407.492l32.229-88.55h25.457
			l-32.229,88.55H566.422z"/>
	</g>
	<polygon fill="#FFC807" points="904.518,48.352 489.723,48.352 498.268,24.882 913.063,24.882 	"/>
	<polygon fill="#FFC807" points="880.51,97.405 461.445,97.405 469.989,73.937 889.054,73.937 	"/>
	<polygon fill="#FFC807" points="869.048,149.609 454.256,149.609 462.799,126.139 877.593,126.139 	"/>
	<polygon fill="#FFC807" points="308.17,204.891 54.896,204.891 61.306,187.29 314.579,187.29 	"/>
	<polygon fill="#FFC807" points="295.618,241.682 42.346,241.682 48.753,224.078 302.025,224.078 	"/>
	<polygon fill="#FFC807" points="285.032,280.834 31.76,280.834 38.167,263.231 291.442,263.231 	"/>
</g>
<g>
</g>
<g>
</g>
<g>
</g>
<g>
</g>
<g>
</g>
<g>
</g>
<g>
</g>
<g>
</g>
<g>
</g>
<g>
</g>
<g>
</g>
<g>
</g>
<g>
</g>
<g>
</g>
<g>
</g>
</svg>
