<?xml version="1.0" encoding="utf-8"?>
<!-- Generator: Adobe Illustrator 16.0.0, SVG Export Plug-In . SVG Version: 6.00 Build 0)  -->
<!DOCTYPE svg PUBLIC "-//W3C//DTD SVG 1.1 Tiny//EN" "http://www.w3.org/Graphics/SVG/1.1/DTD/svg11-tiny.dtd">
<svg version="1.1" baseProfile="tiny" id="Logo" xmlns="http://www.w3.org/2000/svg" xmlns:xlink="http://www.w3.org/1999/xlink"
	 x="0px" y="0px" width="270.148px" height="270.148px" viewBox="0 0 270.148 270.148" xml:space="preserve">
<g>
	<path fill-rule="evenodd" d="M268.645,135.021c0.116,73.888-60.232,134.141-134.587,133.648
		C60.671,268.183,0.795,208.17,1.331,133.965C1.86,60.605,61.89,0.74,136.127,1.333C209.278,1.918,268.76,61.535,268.645,135.021z
		 M256.463,134.93c-0.028-10.067-1.241-19.983-3.694-29.753c-12.681-50.515-56.922-87.574-108.896-91.186
		c-12.762-0.887-25.362,0.165-37.788,3.238C55.159,29.826,17.961,73.994,14.29,126.243c-0.802,11.413-0.022,22.719,2.338,33.919
		c7.334,34.799,30.085,65.028,61.55,81.762c12.545,6.672,25.85,11.011,39.911,13.032c1.607,0.23,3.22,0.496,4.837,0.565
		c1.984,0.086,2.973-0.235,2.972-2.072c-0.004-6.149-0.003-12.299,0.011-18.448c0.002-0.88-0.319-1.542-1.062-2.014
		c-3.063-1.948-4.864-4.804-5.931-8.202c-0.704-2.241-0.929-4.548-1.012-6.872c-0.104-2.92,1.655-5.206,4.501-5.907
		c2.619-0.645,5.24-1.288,7.868-1.896c0.472-0.109,0.998-0.123,1.477-0.046c2.86,0.462,5.72,0.934,8.568,1.465
		c1.269,0.237,2.563,0.491,3.747,0.976c1.384,0.565,1.518,1.961,0.367,2.938c-0.443,0.376-1.016,0.728-1.572,0.814
		c-1.195,0.188-2.436,0.362-3.627,0.242c-2.458-0.25-4.898-0.689-7.343-1.066c-0.867-0.134-1.609,0.04-2.299,0.617
		c-1.592,1.331-3.224,2.612-4.827,3.93c-0.265,0.218-0.514,0.486-0.683,0.782c-0.312,0.543-0.274,1.111,0.109,1.62
		c0.364,0.482,0.874,0.678,1.458,0.548c0.333-0.074,0.665-0.221,0.96-0.396c1.571-0.928,3.257-1.649,5.065-1.731
		c4.615-0.211,9.236-0.34,13.855-0.353c1.5-0.004,3.011,0.405,4.499,0.713c1.946,0.402,3.284,1.581,3.834,3.5
		c0.25,0.874,0.394,1.821,0.355,2.726c-0.111,2.652-1.33,4.89-2.915,6.936c-0.615,0.795-0.894,1.623-0.889,2.623
		c0.023,5.075,0.011,10.149,0.01,15.225c0,0.424-0.025,0.85-0.01,1.273c0.042,1.144,0.845,1.783,1.96,1.574
		c0.318-0.06,0.634-0.137,0.952-0.198c3.358-0.652,6.745-1.183,10.07-1.973C217.883,239.901,256.469,190.995,256.463,134.93z"/>
	<path fill-rule="evenodd" fill="#FFFFFF" d="M256.463,134.93c0.006,56.065-38.58,104.971-93.068,117.917
		c-3.325,0.79-6.712,1.32-10.07,1.973c-0.318,0.062-0.634,0.139-0.952,0.198c-1.115,0.209-1.918-0.431-1.96-1.574
		c-0.016-0.424,0.01-0.85,0.01-1.273c0.001-5.075,0.014-10.149-0.01-15.225c-0.005-1,0.273-1.828,0.889-2.623
		c1.585-2.046,2.804-4.283,2.915-6.936c0.038-0.904-0.105-1.852-0.355-2.726c-0.55-1.919-1.888-3.098-3.834-3.5
		c-1.488-0.308-2.999-0.717-4.499-0.713c-4.619,0.013-9.24,0.142-13.855,0.353c-1.808,0.082-3.494,0.804-5.065,1.731
		c-0.296,0.176-0.627,0.322-0.96,0.396c-0.584,0.13-1.094-0.065-1.458-0.548c-0.383-0.509-0.42-1.077-0.109-1.62
		c0.169-0.296,0.418-0.564,0.683-0.782c1.603-1.317,3.235-2.599,4.827-3.93c0.69-0.577,1.432-0.751,2.299-0.617
		c2.445,0.377,4.885,0.816,7.343,1.066c1.191,0.12,2.432-0.055,3.627-0.242c0.557-0.087,1.129-0.438,1.572-0.814
		c1.15-0.977,1.017-2.372-0.367-2.938c-1.185-0.484-2.479-0.738-3.747-0.976c-2.849-0.531-5.708-1.003-8.568-1.465
		c-0.479-0.077-1.004-0.063-1.477,0.046c-2.628,0.608-5.249,1.252-7.868,1.896c-2.846,0.701-4.605,2.987-4.501,5.907
		c0.083,2.324,0.308,4.631,1.012,6.872c1.067,3.398,2.868,6.254,5.931,8.202c0.743,0.472,1.064,1.134,1.062,2.014
		c-0.014,6.149-0.015,12.299-0.011,18.448c0.001,1.837-0.988,2.158-2.972,2.072c-1.618-0.069-3.23-0.335-4.837-0.565
		c-14.061-2.021-27.366-6.36-39.911-13.032c-31.465-16.734-54.216-46.963-61.55-81.762c-2.361-11.2-3.14-22.506-2.338-33.919
		c3.671-52.25,40.869-96.417,91.795-109.014c12.426-3.074,25.026-4.125,37.788-3.238c51.974,3.612,96.215,40.671,108.896,91.186
		C255.222,114.946,256.435,124.863,256.463,134.93z M153.476,251.874c51.04-6.869,99.153-52.527,100.165-115.119
		c1.085-67.137-53.885-121.967-121.535-120.236C65.913,18.211,13.093,74.214,16.99,141.783
		c3.593,62.309,53.588,106.4,105.794,110.856c0.019-0.142,0.053-0.285,0.053-0.429c0.004-5.449,0.012-10.898-0.014-16.349
		c-0.001-0.283-0.228-0.659-0.465-0.835c-2.608-1.924-4.448-4.427-5.681-7.4c-0.858-2.07-1.38-4.228-1.613-6.45
		c-0.059-0.559-0.208-0.835-0.825-0.891c-0.918-0.084-1.842-0.226-2.731-0.463c-0.66-0.175-0.97-0.01-1.292,0.578
		c-2.425,4.427-4.877,8.84-7.34,13.246c-2.241,4.01-6.39,6.09-10.802,5.446c-5.575-0.813-8.553-4.886-7.458-10.373
		c1.632-8.184,3.318-16.356,5.04-24.521c0.741-3.518,1.572-7.02,2.467-10.501c0.656-2.551,2.142-4.539,4.493-5.834
		c0.25-0.137,0.476-0.438,0.57-0.713c0.473-1.375,1.406-2.234,2.808-2.54c0.628-0.137,1.288-0.169,1.934-0.172
		c3.775-0.015,7.549-0.002,11.324-0.009c1.515-0.003,3.001,0.095,4.324,1.114c0.743-1.738,1.889-2.993,3.647-3.612
		c1.79-0.63,3.485-0.33,5.14,0.587c1.039-2.048,2.62-3.29,4.868-3.5c2.278-0.212,4.059,0.777,5.438,2.573
		c1.403-1.032,2.902-1.478,4.569-1.23c1.694,0.252,2.998,1.163,3.982,2.48c0.102-0.02,0.13-0.018,0.149-0.029
		c3.611-2.086,6.226-1.553,8.708,1.751c0.107,0.144,0.405,0.224,0.603,0.205c0.939-0.088,1.875-0.311,2.813-0.321
		c3.649-0.039,7.299-0.019,10.949-0.013c0.474,0.001,0.952,0.01,1.421,0.07c1.143,0.149,2.271,0.577,2.711,1.64
		c0.523,1.269,1.535,1.906,2.463,2.746c0.888,0.803,1.639,1.823,2.224,2.875c0.524,0.942,0.854,2.033,1.077,3.099
		c2.372,11.396,4.754,22.792,7.021,34.209c0.69,3.476-0.26,6.522-3.396,8.563c-1.582,1.029-3.366,1.564-5.248,1.581
		c-4.184,0.036-7.213-2.01-9.204-5.55c-2.424-4.312-4.706-8.704-7.019-13.079c-0.311-0.589-0.584-0.774-1.26-0.558
		c-0.923,0.295-1.896,0.434-2.85,0.632c-0.324,0.068-0.653,0.116-1.046,0.186c0.138,0.238,0.204,0.37,0.284,0.491
		c1.455,2.206,1.973,4.617,1.582,7.226c-0.414,2.764-1.657,5.159-3.258,7.409c-0.267,0.376-0.446,0.903-0.449,1.363
		c-0.033,4.599-0.021,9.198-0.021,13.799C153.476,251.378,153.476,251.62,153.476,251.874z M114.739,217.322
		c0.057-0.325,0.091-0.471,0.107-0.617c0.425-3.731,3.054-6.733,6.728-7.65c2.738-0.684,5.476-1.373,8.228-1.995
		c0.687-0.155,1.447-0.174,2.143-0.064c3.183,0.499,6.367,1.011,9.527,1.631c1.454,0.285,2.962,0.628,4.262,1.299
		c2.689,1.386,3.298,4.318,1.621,6.842c-0.129,0.193-0.255,0.391-0.439,0.675c1.44,0.203,2.746,0.538,4.052,0.541
		c3.055,0.007,6.093-0.221,8.969-1.439c0.981-0.416,1.743-0.093,2.289,0.827c0.166,0.279,0.313,0.569,0.467,0.855
		c2.489,4.647,4.966,9.303,7.472,13.941c1.99,3.682,6.005,4.979,9.669,3.161c1.563-0.775,2.45-2.035,2.577-3.769
		c0.054-0.739,0.033-1.509-0.108-2.233c-1.404-7.208-2.804-14.416-4.282-21.608c-0.905-4.403-1.913-8.787-2.94-13.163
		c-0.463-1.971-1.595-3.478-3.536-4.281c-0.655-0.272-1.112-0.753-1.271-1.474c-0.276-1.254-0.327-1.303-1.623-1.304
		c-3.824-0.005-7.648-0.004-11.473,0.002c-0.373,0.001-0.784-0.033-1.108,0.107c-0.346,0.15-0.701,0.436-0.892,0.757
		c-0.608,1.03-0.313,2.195-0.361,3.305c-0.183,4.249-4.546,6.895-8.383,5.066c-0.216-0.103-0.432-0.205-0.645-0.307
		c-1.707,3.264-5.232,4.483-8.639,2.62c-1.133,2.146-2.852,3.453-5.349,3.471c-2.531,0.018-4.276-1.291-5.443-3.487
		c-0.181,0.081-0.316,0.138-0.447,0.202c-4.134,2.032-8.552-0.693-8.603-5.313c-0.013-1.199-0.024-2.4,0.006-3.599
		c0.013-0.487-0.136-0.735-0.584-0.977c-0.385-0.208-0.616-0.687-0.951-1.007c-0.289-0.275-0.597-0.587-0.956-0.72
		c-0.382-0.141-0.836-0.119-1.258-0.12c-3.924-0.007-7.849-0.005-11.773-0.003c-0.274,0-0.551,0.006-0.823,0.035
		c-0.544,0.061-0.886,0.345-0.884,0.921c0.003,0.997-0.542,1.549-1.427,1.88c-1.568,0.587-2.613,1.726-3.244,3.244
		c-0.267,0.643-0.486,1.317-0.631,1.998c-2.417,11.358-4.844,22.716-7.208,34.087c-0.626,3.015,0.715,5.122,3.641,6.059
		c0.591,0.189,1.211,0.34,1.827,0.387c3.253,0.244,5.604-1.266,7.162-3.992c2.677-4.687,5.255-9.429,7.875-14.147
		c0.89-1.604,1.403-1.796,3.16-1.355C112.367,216.893,113.522,217.078,114.739,217.322z M128.99,190.743
		c0,1.975-0.019,3.949,0.006,5.924c0.017,1.324,0.807,2.347,1.996,2.689c1.842,0.531,3.523-0.803,3.534-2.864
		c0.022-3.85,0.007-7.698-0.001-11.548c-0.002-0.864-0.29-1.626-0.963-2.194c-0.86-0.726-1.846-0.891-2.875-0.456
		c-1.094,0.461-1.672,1.34-1.688,2.524C128.974,186.792,128.992,188.768,128.99,190.743z M137.664,190.107
		c0,1.322-0.014,2.645,0.003,3.967c0.021,1.604,1.103,2.732,2.624,2.769c1.549,0.037,2.794-1.087,2.819-2.68
		c0.044-2.718,0.039-5.438-0.005-8.156c-0.024-1.527-1.294-2.66-2.8-2.623c-1.503,0.036-2.611,1.146-2.636,2.683
		C137.648,187.413,137.666,188.76,137.664,190.107z M125.865,190.783c-0.001,0-0.002,0-0.004,0c0-1.173,0.028-2.348-0.007-3.52
		c-0.043-1.469-1.192-2.548-2.678-2.573c-1.422-0.025-2.699,1.029-2.739,2.431c-0.067,2.394-0.077,4.792-0.01,7.186
		c0.042,1.517,1.298,2.572,2.792,2.538c1.492-0.035,2.61-1.159,2.641-2.691C125.883,193.03,125.865,191.906,125.865,190.783z
		 M151.803,189.455c-0.036,0-0.072-0.001-0.108-0.002c0-0.82,0.088-1.653-0.02-2.46c-0.195-1.47-1.441-2.395-2.927-2.292
		c-1.41,0.098-2.474,1.222-2.493,2.678c-0.02,1.396-0.071,2.797,0.027,4.186c0.042,0.603,0.302,1.279,0.678,1.75
		c0.688,0.862,1.678,1.134,2.766,0.814c1.073-0.315,1.78-1.028,1.941-2.141C151.79,191.155,151.764,190.3,151.803,189.455z"/>
	<path fill-rule="evenodd" d="M153.476,251.874c0-0.254,0-0.495,0-0.736c0-4.601-0.013-9.2,0.021-13.799
		c0.003-0.46,0.183-0.987,0.449-1.363c1.601-2.25,2.844-4.646,3.258-7.409c0.391-2.608-0.127-5.02-1.582-7.226
		c-0.08-0.121-0.146-0.253-0.284-0.491c0.393-0.069,0.722-0.117,1.046-0.186c0.953-0.198,1.927-0.337,2.85-0.632
		c0.676-0.217,0.949-0.031,1.26,0.558c2.313,4.375,4.595,8.768,7.019,13.079c1.991,3.54,5.021,5.586,9.204,5.55
		c1.882-0.017,3.666-0.552,5.248-1.581c3.136-2.041,4.086-5.088,3.396-8.563c-2.267-11.417-4.648-22.813-7.021-34.209
		c-0.223-1.065-0.553-2.156-1.077-3.099c-0.585-1.052-1.336-2.072-2.224-2.875c-0.928-0.84-1.939-1.478-2.463-2.746
		c-0.439-1.063-1.568-1.49-2.711-1.64c-0.469-0.061-0.947-0.069-1.421-0.07c-3.65-0.006-7.3-0.026-10.949,0.013
		c-0.938,0.011-1.874,0.233-2.813,0.321c-0.197,0.019-0.495-0.062-0.603-0.205c-2.482-3.304-5.097-3.837-8.708-1.751
		c-0.02,0.012-0.048,0.01-0.149,0.029c-0.984-1.317-2.288-2.229-3.982-2.48c-1.667-0.248-3.166,0.199-4.569,1.23
		c-1.379-1.796-3.16-2.785-5.438-2.573c-2.248,0.209-3.829,1.451-4.868,3.5c-1.655-0.917-3.35-1.217-5.14-0.587
		c-1.758,0.619-2.904,1.874-3.647,3.612c-1.323-1.02-2.809-1.117-4.324-1.114c-3.775,0.007-7.549-0.006-11.324,0.009
		c-0.646,0.003-1.306,0.035-1.934,0.172c-1.401,0.306-2.335,1.165-2.808,2.54c-0.094,0.274-0.32,0.576-0.57,0.713
		c-2.351,1.295-3.837,3.283-4.493,5.834c-0.895,3.481-1.726,6.983-2.467,10.501c-1.722,8.165-3.408,16.338-5.04,24.521
		c-1.094,5.487,1.884,9.561,7.458,10.373c4.412,0.644,8.561-1.437,10.802-5.446c2.462-4.406,4.915-8.819,7.34-13.246
		c0.322-0.588,0.632-0.753,1.292-0.578c0.89,0.237,1.813,0.379,2.731,0.463c0.616,0.056,0.766,0.332,0.825,0.891
		c0.233,2.223,0.755,4.38,1.613,6.45c1.233,2.974,3.072,5.477,5.681,7.4c0.238,0.176,0.464,0.552,0.465,0.835
		c0.026,5.45,0.018,10.899,0.014,16.349c0,0.144-0.035,0.287-0.053,0.429C70.578,248.183,20.583,204.091,16.99,141.783
		C13.093,74.214,65.913,18.211,132.106,16.519c67.65-1.73,122.62,53.1,121.535,120.236
		C252.629,199.346,204.516,245.004,153.476,251.874z M202.078,228.411c36.798-26.032,57.762-75.062,43.563-125.083
		c-14.311-50.41-62.765-87.233-119.282-83.099C74.527,24.021,31.123,62.859,21.8,114.248
		c-8.924,49.189,14.763,92.398,46.185,114.153c3.881-6.399,7.761-12.795,11.704-19.296c-0.349-0.021-0.564-0.058-0.776-0.044
		c-0.798,0.053-1.593,0.155-2.392,0.177c-1.61,0.045-2.358-0.589-2.579-2.181c-0.137-0.989-0.209-1.988-0.332-2.979
		c-0.14-1.137-0.449-1.414-1.589-1.454c-1.099-0.038-2.201-0.027-3.297-0.105c-1.397-0.101-2.072-0.805-2.153-2.206
		c-0.045-0.772-0.011-1.55-0.022-2.324c-0.018-1.199-0.298-1.504-1.472-1.633c-0.695-0.076-1.395-0.13-2.084-0.246
		c-1.712-0.288-2.342-1.126-2.192-2.871c0.071-0.821,0.185-1.64,0.235-2.462c0.063-1.026-0.182-1.34-1.186-1.576
		c-0.972-0.229-1.963-0.39-2.923-0.662c-1.29-0.365-1.827-1.215-1.649-2.55c0.112-0.841,0.305-1.671,0.451-2.508
		c0.167-0.959-0.042-1.319-0.975-1.64c-0.78-0.269-1.583-0.47-2.351-0.768c-1.349-0.523-1.797-1.371-1.463-2.786
		c0.241-1.021,0.574-2.019,0.846-3.032c0.266-0.994,0.096-1.368-0.832-1.792c-0.932-0.426-1.894-0.786-2.817-1.229
		c-1.437-0.691-1.821-1.64-1.285-3.131c0.278-0.774,0.64-1.519,0.927-2.291c0.297-0.8,0.157-1.199-0.575-1.638
		c-0.664-0.398-1.365-0.734-2.031-1.129c-1.479-0.877-1.78-1.86-1.036-3.402c0.38-0.787,0.824-1.543,1.212-2.326
		c0.444-0.896,0.356-1.271-0.445-1.853c-0.768-0.558-1.581-1.055-2.336-1.629c-1.248-0.949-1.429-1.913-0.639-3.262
		c0.353-0.603,0.764-1.172,1.142-1.761c0.719-1.123,0.657-1.513-0.352-2.352c-0.519-0.432-1.05-0.851-1.544-1.309
		c-1.174-1.087-1.271-2.063-0.311-3.363c0.563-0.764,1.188-1.481,1.779-2.225c0.829-1.042,0.81-1.435-0.101-2.383
		c-0.709-0.739-1.452-1.451-2.12-2.225c-0.97-1.123-0.944-2.107,0.039-3.207c0.466-0.521,0.978-1.001,1.467-1.502
		c0.982-1.005,1.002-1.341,0.144-2.422c-0.373-0.47-0.761-0.928-1.124-1.405c-1.103-1.45-0.981-2.51,0.419-3.699
		c0.609-0.518,1.239-1.012,1.846-1.532c0.801-0.688,0.867-1.096,0.303-2.009c-0.473-0.765-0.996-1.5-1.46-2.27
		c-0.823-1.368-0.634-2.35,0.646-3.318c0.637-0.482,1.325-0.896,1.974-1.362c0.801-0.574,0.892-0.955,0.456-1.851
		c-0.251-0.516-0.536-1.017-0.801-1.526c-1.059-2.03-0.773-2.962,1.251-4.075c0.569-0.313,1.147-0.611,1.718-0.921
		c1.403-0.763,1.503-1.032,0.924-2.489c-0.295-0.743-0.613-1.477-0.893-2.225c-0.649-1.735-0.256-2.684,1.416-3.435
		c0.592-0.266,1.201-0.496,1.797-0.754c1.109-0.48,1.279-0.828,0.966-1.979c-0.19-0.699-0.422-1.388-0.589-2.093
		c-0.359-1.514,0.102-2.395,1.561-2.937c0.819-0.304,1.668-0.523,2.499-0.797c1.105-0.364,1.297-0.675,1.107-1.836
		c-0.137-0.838-0.334-1.667-0.456-2.506c-0.248-1.716,0.305-2.524,1.995-2.936c0.776-0.189,1.565-0.327,2.346-0.5
		c0.686-0.152,1.028-0.576,0.972-1.292c-0.064-0.822-0.159-1.643-0.187-2.466c-0.057-1.706,0.567-2.446,2.244-2.673
		c0.94-0.127,1.888-0.205,2.831-0.312c1.223-0.138,1.502-0.439,1.542-1.664c0.035-1.074,0.025-2.151,0.101-3.222
		c0.099-1.402,0.797-2.083,2.195-2.165c0.822-0.048,1.649-0.005,2.474-0.028c1.053-0.029,1.361-0.326,1.486-1.381
		c0.086-0.719,0.135-1.445,0.254-2.159c0.286-1.717,1.122-2.353,2.861-2.205c0.822,0.07,1.64,0.185,2.462,0.237
		c1.031,0.065,1.349-0.178,1.585-1.175c0.224-0.948,0.382-1.913,0.641-2.851c0.38-1.381,1.224-1.922,2.636-1.724
		c0.84,0.118,1.67,0.312,2.508,0.454c0.88,0.149,1.246-0.058,1.545-0.906c0.283-0.8,0.49-1.628,0.795-2.42
		c0.521-1.353,1.369-1.803,2.78-1.477c0.875,0.202,1.733,0.479,2.597,0.729c1.542,0.448,1.806,0.323,2.448-1.18
		c0.304-0.713,0.592-1.433,0.913-2.137c0.768-1.681,1.72-2.073,3.437-1.42c0.583,0.222,1.152,0.481,1.731,0.714
		c1.215,0.489,1.553,0.373,2.184-0.751c0.306-0.545,0.584-1.105,0.899-1.645c0.927-1.585,1.911-1.875,3.571-1.048
		c0.648,0.323,1.279,0.681,1.922,1.015c1.23,0.638,1.545,0.556,2.352-0.599c0.515-0.737,0.987-1.51,1.55-2.208
		c0.869-1.076,1.775-1.235,2.979-0.553c0.716,0.405,1.383,0.896,2.084,1.331c0.923,0.572,1.354,0.495,2.067-0.34
		c0.487-0.57,0.945-1.166,1.456-1.714c1.035-1.11,2.019-1.214,3.248-0.316c0.867,0.634,1.674,1.347,2.529,1.998
		c0.81,0.617,1.235,0.589,1.976-0.108c0.692-0.65,1.346-1.342,2.045-1.984c1.48-1.36,2.443-1.345,3.886,0.034
		c0.524,0.501,1.032,1.018,1.553,1.522c0.534,0.517,1.098,0.538,1.68,0.078c0.627-0.496,1.24-1.011,1.883-1.486
		c1.336-0.987,2.377-0.874,3.48,0.379c0.595,0.675,1.139,1.394,1.732,2.07c0.585,0.665,1.021,0.738,1.776,0.283
		c0.792-0.477,1.549-1.012,2.337-1.495c1.442-0.883,2.427-0.701,3.431,0.647c0.493,0.661,0.932,1.361,1.401,2.039
		c0.42,0.605,0.962,0.757,1.627,0.412c0.71-0.368,1.41-0.754,2.131-1.099c1.507-0.721,2.493-0.427,3.347,1.015
		c0.508,0.86,0.946,1.761,1.45,2.624c0.504,0.865,0.86,0.99,1.797,0.644c1.007-0.372,1.987-0.817,3.003-1.163
		c1.397-0.476,2.313-0.081,2.955,1.243c0.349,0.719,0.622,1.473,0.949,2.203c0.436,0.973,0.794,1.142,1.836,0.866
		c0.725-0.191,1.436-0.435,2.164-0.61c1.519-0.365,2.404,0.092,2.944,1.546c0.33,0.889,0.567,1.812,0.878,2.708
		c0.303,0.873,0.604,1.065,1.523,0.934c0.988-0.142,1.965-0.369,2.953-0.507c1.418-0.198,2.239,0.337,2.633,1.725
		c0.224,0.792,0.356,1.609,0.543,2.412c0.242,1.042,0.51,1.25,1.556,1.191c0.798-0.045,1.593-0.155,2.391-0.174
		c1.558-0.038,2.306,0.602,2.524,2.158c0.146,1.039,0.214,2.088,0.356,3.128c0.14,1.015,0.45,1.283,1.47,1.323
		c1.049,0.041,2.101,0.028,3.147,0.09c1.707,0.101,2.356,0.781,2.421,2.503c0.028,0.749-0.014,1.5,0.013,2.249
		c0.034,0.978,0.325,1.288,1.291,1.414c0.743,0.097,1.494,0.139,2.232,0.261c1.725,0.285,2.36,1.116,2.216,2.853
		c-0.064,0.771-0.171,1.54-0.231,2.312c-0.095,1.203,0.139,1.513,1.306,1.775c0.854,0.192,1.717,0.342,2.562,0.565
		c1.557,0.413,2.098,1.242,1.858,2.82c-0.12,0.79-0.299,1.571-0.434,2.359c-0.15,0.887,0.052,1.253,0.896,1.551
		c0.777,0.274,1.581,0.474,2.353,0.763c1.432,0.537,1.894,1.394,1.538,2.879c-0.237,0.996-0.563,1.97-0.828,2.959
		c-0.276,1.024-0.101,1.396,0.874,1.837c0.91,0.412,1.849,0.765,2.75,1.195c1.467,0.702,1.845,1.658,1.286,3.192
		c-0.256,0.703-0.574,1.383-0.844,2.082c-0.387,1.001-0.257,1.362,0.684,1.903c0.628,0.361,1.282,0.678,1.902,1.051
		c1.434,0.863,1.727,1.838,0.998,3.354c-0.389,0.81-0.848,1.587-1.245,2.394c-0.416,0.845-0.319,1.229,0.453,1.792
		c0.807,0.589,1.666,1.11,2.451,1.726c1.146,0.899,1.313,1.832,0.588,3.093c-0.424,0.735-0.932,1.421-1.372,2.147
		c-0.475,0.785-0.399,1.231,0.291,1.84c0.6,0.529,1.24,1.012,1.826,1.556c1.115,1.033,1.223,2.02,0.328,3.246
		c-0.617,0.847-1.314,1.636-1.955,2.468c-0.678,0.88-0.651,1.292,0.103,2.094c0.754,0.801,1.556,1.559,2.271,2.392
		c0.937,1.088,0.903,2.073-0.058,3.148c-0.532,0.596-1.125,1.137-1.672,1.721c-0.74,0.79-0.759,1.18-0.108,2.027
		c0.442,0.575,0.923,1.12,1.354,1.702c0.991,1.338,0.883,2.378-0.366,3.481c-0.655,0.579-1.353,1.11-2.014,1.683
		c-0.742,0.643-0.816,1.062-0.313,1.889c0.481,0.79,1.019,1.545,1.497,2.335c0.832,1.372,0.653,2.356-0.617,3.323
		c-0.655,0.499-1.366,0.923-2.034,1.406c-0.736,0.532-0.838,0.919-0.449,1.732c0.335,0.698,0.729,1.368,1.063,2.066
		c0.724,1.509,0.434,2.498-1.002,3.35c-0.838,0.497-1.718,0.922-2.563,1.408c-0.944,0.544-1.07,0.896-0.692,1.905
		c0.366,0.982,0.8,1.94,1.139,2.932c0.479,1.398,0.088,2.319-1.231,2.96c-0.74,0.36-1.52,0.64-2.27,0.982
		c-0.899,0.409-1.072,0.769-0.829,1.725c0.186,0.726,0.43,1.437,0.609,2.165c0.404,1.631-0.063,2.51-1.653,3.08
		c-0.822,0.295-1.672,0.514-2.5,0.795c-0.962,0.325-1.154,0.622-1.007,1.618c0.145,0.988,0.373,1.965,0.509,2.954
		c0.183,1.332-0.353,2.163-1.65,2.542c-0.813,0.237-1.656,0.374-2.483,0.566c-1.067,0.248-1.265,0.512-1.198,1.622
		c0.046,0.772,0.151,1.543,0.171,2.316c0.039,1.562-0.598,2.313-2.147,2.532c-1.014,0.144-2.038,0.213-3.054,0.343
		c-1.096,0.141-1.37,0.451-1.411,1.55c-0.041,1.124-0.028,2.252-0.113,3.372c-0.103,1.354-0.808,2.025-2.169,2.109
		c-0.797,0.049-1.599,0.013-2.398,0.027c-1.151,0.022-1.457,0.308-1.588,1.438c-0.096,0.819-0.162,1.644-0.312,2.453
		c-0.226,1.22-0.936,1.809-2.179,1.865c-0.347,0.016-0.697-0.033-1.046-0.061c-0.8-0.064-1.6-0.134-2.561-0.214
		C194.258,215.522,198.154,221.944,202.078,228.411z M139.329,157.083c-0.24-0.368-0.406-0.612-0.563-0.862
		c-1.742-2.797-3.48-5.598-5.233-8.388c-0.132-0.209-0.373-0.494-0.568-0.499c-1.718-0.039-3.438-0.022-5.191-0.022
		c0,7.767,0,15.467,0,23.16c1.679,0,3.289,0,4.977,0c0-4.915,0-9.768,0-14.622c0.052-0.017,0.104-0.034,0.156-0.051
		c2.095,3.169,4.19,6.338,6.347,9.601c2.177-3.308,4.283-6.506,6.389-9.706c0.058,0.018,0.115,0.035,0.173,0.052
		c0,4.899,0,9.799,0,14.742c1.73,0,3.365,0,5.031,0c0-7.738,0-15.437,0-23.18c-1.657,0-3.255,0.019-4.851-0.011
		c-0.467-0.009-0.716,0.168-0.946,0.549c-1.022,1.688-2.073,3.359-3.113,5.036C141.095,154.237,140.253,155.592,139.329,157.083z
		 M123.167,75.15c-0.035,0.159-0.064,0.23-0.064,0.302c-0.005,7.447-0.003,14.895-0.018,22.342
		c-0.001,0.492,0.217,0.572,0.636,0.571c3.574-0.013,7.148,0.011,10.721-0.023c1.836-0.018,3.642-0.278,5.293-1.166
		c2.069-1.112,3.042-2.875,3.064-5.2c0.022-2.308-0.921-4.05-2.98-5.147c-0.389-0.208-0.784-0.401-1.257-0.642
		c1.325-0.817,2.306-1.813,2.721-3.266c0.988-3.455-0.93-6.583-4.614-7.443c-0.844-0.197-1.728-0.305-2.594-0.313
		C130.456,75.131,126.835,75.15,123.167,75.15z M170.438,86.745c0.017-6.811-5.293-12.001-12.283-12.008
		c-6.938-0.007-12.332,5.213-12.365,11.97c-0.034,6.846,5.223,12.009,12.245,12.026C165.073,98.75,170.422,93.58,170.438,86.745z
		 M174.813,75.289c0,7.634,0,15.313,0,23.025c1.697,0,3.334,0,5.071,0c0-2.474,0-4.904,0-7.391c1.172,0,2.243,0.024,3.313-0.011
		c0.481-0.016,0.772,0.139,1.037,0.546c1.116,1.717,2.379,3.35,3.371,5.135c0.798,1.437,1.793,1.983,3.404,1.793
		c1.196-0.141,2.422-0.028,3.818-0.028c-1.944-2.844-3.782-5.532-5.644-8.255c0.188-0.098,0.313-0.173,0.445-0.231
		c3.637-1.596,4.887-4.775,4.392-8.325c-0.5-3.584-2.974-6.002-6.723-6.207C183.169,75.115,179.017,75.289,174.813,75.289z
		 M88.324,127.028c1.173,0,2.221,0.025,3.267-0.011c0.505-0.017,0.815,0.142,1.096,0.572c1.353,2.069,2.759,4.104,4.1,6.181
		c0.33,0.51,0.69,0.678,1.276,0.664c1.498-0.038,2.998-0.011,4.497-0.016c0.18-0.001,0.36-0.041,0.622-0.072
		c-1.883-2.757-3.709-5.43-5.557-8.136c0.167-0.099,0.267-0.172,0.376-0.22c2.995-1.319,4.432-3.652,4.533-6.885
		c0.101-3.243-1.397-5.899-4.261-6.995c-1.323-0.506-2.804-0.767-4.225-0.816c-3.369-0.116-6.744-0.041-10.116-0.04
		c-0.238,0-0.477,0.024-0.698,0.036c0,7.752,0,15.409,0,23.067c1.711,0,3.365,0,5.091,0
		C88.324,131.906,88.324,129.518,88.324,127.028z M92.095,161.537c0,0.981-0.034,1.852,0.013,2.717
		c0.028,0.51-0.188,0.772-0.601,0.993c-1.789,0.96-3.701,1.242-5.663,0.856c-3.423-0.672-5.584-3.557-5.55-7.261
		c0.033-3.655,2.417-6.628,5.828-7.118c2.281-0.328,4.35,0.326,6.176,1.734c0.227,0.175,0.459,0.343,0.718,0.535
		c1.104-1.339,2.143-2.6,3.188-3.868c-2.474-2.237-5.343-3.086-8.515-3.218c-6.985-0.29-12.515,4.795-12.74,11.775
		c-0.171,5.287,2.763,9.843,7.605,11.452c5.13,1.705,9.857,0.701,14.103-2.601c0.224-0.174,0.369-0.586,0.372-0.889
		c0.027-2.923,0.018-5.847,0.014-8.77c0-0.216-0.035-0.431-0.058-0.711c-0.533,0-1.003,0-1.474,0c-2.624,0-5.248-0.009-7.871,0.016
		c-0.227,0.002-0.642,0.22-0.646,0.349c-0.048,1.315-0.03,2.632-0.03,4.009C88.685,161.537,90.326,161.537,92.095,161.537z
		 M173.697,147.358c-5.847,0-11.607,0-17.381,0c0,7.732,0,15.414,0,23.129c5.868,0,11.678,0,17.542,0c0-1.503,0-2.963,0-4.525
		c-0.318,0-0.611,0-0.903,0c-3.624,0-7.248-0.012-10.872,0.012c-0.59,0.004-0.786-0.167-0.765-0.762c0.043-1.123,0.045-2.25,0-3.373
		c-0.024-0.612,0.204-0.75,0.777-0.745c3.099,0.024,6.197,0.012,9.297,0.012c0.265,0,0.53,0,0.795,0c0-1.566,0-3.022,0-4.537
		c-0.339,0-0.61,0-0.882,0c-2.799,0-5.599,0-8.397,0c-1.577,0-1.577,0-1.578-1.579c0-1.012,0-2.023,0-3.11c4.201,0,8.265,0,12.367,0
		C173.697,150.336,173.697,148.872,173.697,147.358z M112.042,120.453c0-1.345,0.032-2.613-0.014-3.878
		c-0.023-0.629,0.181-0.8,0.8-0.795c3.573,0.027,7.146,0.014,10.719,0.011c0.288,0,0.576-0.025,0.88-0.039c0-1.526,0-2.964,0-4.429
		c-5.841,0-11.638,0-17.423,0c0,7.728,0,15.386,0,23.049c5.886,0,11.72,0,17.569,0c0-1.506,0-2.963,0-4.49c-1.028,0-1.999,0-2.969,0
		c-2.948,0-5.896,0.003-8.845-0.004c-0.295,0-0.71,0.131-0.712-0.399c-0.006-1.442-0.002-2.885-0.002-4.443
		c3.683,0,7.287,0,10.886,0c0-1.581,0-3.042,0-4.582C119.296,120.453,115.711,120.453,112.042,120.453z M190.897,134.39
		c0-1.527,0-2.984,0-4.531c-4.189,0-8.323,0-12.467,0c0-1.646,0-3.201,0-4.847c3.646,0,7.231,0,10.821,0c0-1.555,0-3.017,0-4.557
		c-3.637,0-7.222,0-10.826,0c0-1.586,0-3.092,0-4.687c4.141,0,8.225,0,12.317,0c0-1.547,0-3.005,0-4.449c-5.839,0-11.619,0-17.407,0
		c0,7.725,0,15.382,0,23.07C179.205,134.39,185.021,134.39,190.897,134.39z M151.524,134.418c-0.069-0.228-0.1-0.37-0.155-0.501
		c-3.163-7.44-6.331-14.879-9.484-22.324c-0.175-0.413-0.41-0.554-0.847-0.544c-1.124,0.026-2.25,0.042-3.372-0.006
		c-0.572-0.024-0.822,0.193-1.038,0.703c-3.082,7.285-6.186,14.561-9.283,21.839c-0.104,0.246-0.198,0.495-0.333,0.835
		c1.604,0,3.099-0.021,4.593,0.012c0.487,0.011,0.695-0.171,0.862-0.605c0.519-1.35,1.098-2.676,1.623-4.024
		c0.157-0.403,0.362-0.575,0.814-0.572c2.873,0.02,5.746,0.019,8.618,0.001c0.45-0.003,0.664,0.165,0.822,0.572
		c0.533,1.373,1.09,2.737,1.669,4.091c0.09,0.21,0.342,0.496,0.524,0.5C148.176,134.434,149.817,134.418,151.524,134.418z
		 M124.286,170.528c-0.086-0.277-0.127-0.466-0.202-0.641c-3.147-7.395-6.301-14.785-9.436-22.185
		c-0.19-0.448-0.436-0.58-0.896-0.567c-1.124,0.03-2.25,0.044-3.373-0.005c-0.554-0.024-0.776,0.205-0.976,0.676
		c-3.098,7.306-6.213,14.605-9.322,21.907c-0.101,0.236-0.175,0.483-0.295,0.816c1.706,0,3.277,0.016,4.847-0.022
		c0.184-0.004,0.438-0.28,0.526-0.487c0.582-1.352,1.144-2.712,1.673-4.084c0.178-0.46,0.401-0.641,0.922-0.635
		c2.824,0.031,5.648,0.026,8.472,0.004c0.472-0.004,0.709,0.138,0.881,0.583c0.528,1.374,1.093,2.734,1.672,4.088
		c0.092,0.215,0.325,0.524,0.5,0.528C120.92,170.544,122.563,170.528,124.286,170.528z M95.137,98.359
		c1.61,0,3.076-0.025,4.54,0.013c0.524,0.014,0.748-0.19,0.923-0.649c0.509-1.328,1.082-2.632,1.587-3.961
		c0.18-0.474,0.433-0.625,0.938-0.62c2.822,0.026,5.645,0.023,8.468,0.002c0.47-0.003,0.724,0.131,0.889,0.583
		c0.343,0.938,0.739,1.855,1.115,2.781c0.752,1.852,0.753,1.852,2.726,1.852c1.087,0,2.175,0,3.344,0
		c-0.084-0.261-0.118-0.401-0.173-0.532c-3.164-7.442-6.333-14.882-9.483-22.33c-0.182-0.431-0.431-0.529-0.851-0.521
		c-1.099,0.021-2.2,0.046-3.296-0.008c-0.62-0.031-0.91,0.184-1.149,0.75c-3.066,7.267-6.157,14.523-9.241,21.782
		C95.377,97.727,95.293,97.959,95.137,98.359z M194.38,149.923c-3.584-2.643-7.452-3.636-11.715-2.472
		c-3.085,0.843-4.974,3.298-5.057,6.237c-0.096,3.379,1.221,5.281,4.618,6.511c1.335,0.483,2.734,0.785,4.085,1.229
		c0.943,0.311,1.898,0.64,2.766,1.112c0.961,0.524,1.227,1.872,0.512,2.651c-0.425,0.462-1.081,0.852-1.693,0.977
		c-2.499,0.513-4.729-0.282-6.8-1.64c-0.47-0.309-0.917-0.653-1.407-1.004c-1.019,1.222-2.004,2.404-3.027,3.631
		c3.711,3.054,7.838,4.329,12.5,3.408c4.159-0.821,6.265-3.781,5.827-7.989c-0.245-2.36-1.697-3.859-3.784-4.72
		c-1.518-0.626-3.128-1.026-4.688-1.554c-0.967-0.327-1.938-0.655-2.868-1.071c-0.705-0.316-0.974-0.979-0.936-1.74
		c0.037-0.744,0.409-1.357,1.1-1.553c0.821-0.232,1.708-0.403,2.552-0.353c1.707,0.101,3.212,0.866,4.64,1.771
		c0.223,0.141,0.446,0.28,0.703,0.44C192.617,152.478,193.478,151.23,194.38,149.923z M211.409,113.871
		c-1.377-1.125-2.824-1.9-4.427-2.353c-2.807-0.792-5.632-1.001-8.358,0.259c-2.696,1.246-3.979,3.42-3.953,6.407
		c0.026,2.893,1.474,4.756,4.097,5.733c1.54,0.574,3.149,0.961,4.714,1.476c0.874,0.287,1.773,0.568,2.565,1.018
		c1.376,0.782,1.307,2.612-0.112,3.32c-0.562,0.28-1.233,0.426-1.866,0.467c-2.464,0.16-4.597-0.745-6.541-2.183
		c-0.251-0.186-0.504-0.372-0.783-0.579c-1.031,1.233-2.004,2.396-3.012,3.601c0.3,0.253,0.535,0.472,0.791,0.665
		c2.88,2.176,6.123,3.185,9.732,3.034c1.7-0.071,3.315-0.437,4.768-1.355c2.357-1.492,3.205-3.721,3.067-6.411
		c-0.124-2.423-1.41-4.069-3.545-5.052c-1.149-0.529-2.372-0.903-3.574-1.311c-1.32-0.448-2.679-0.791-3.975-1.298
		c-0.985-0.386-1.314-1.062-1.218-2.011c0.093-0.922,0.688-1.501,1.521-1.633c0.942-0.148,1.986-0.285,2.873-0.03
		c1.585,0.456,3.086,1.209,4.718,1.877C209.64,116.427,210.502,115.18,211.409,113.871z M79.088,114.486
		c-2.594-3.359-8.938-4.635-13.707-2.813c-4.955,1.894-7.91,6.792-7.458,12.36c0.415,5.111,4.114,9.396,9.059,10.493
		c4.747,1.053,10.481-0.774,12.201-3.868c-1.065-1.052-2.125-2.098-3.097-3.058c-1.167,0.686-2.297,1.471-3.528,2.039
		c-1.248,0.576-2.624,0.575-3.977,0.311c-1.399-0.273-2.557-0.973-3.498-2.037c-2.418-2.733-2.452-7.287-0.069-10.084
		c1.01-1.186,2.286-1.928,3.827-2.174c2.773-0.442,5.012,0.688,7.04,2.527C76.985,116.911,78.042,115.692,79.088,114.486z
		 M157.391,115.968c0,6.187,0,12.293,0,18.411c1.743,0,3.383,0,5.122,0c0-6.147,0-12.253,0-18.441c2.387,0,4.675,0,7.004,0
		c0-1.589,0-3.095,0-4.63c-6.412,0-12.768,0-19.143,0c0,1.563,0,3.071,0,4.661C152.715,115.968,155.002,115.968,157.391,115.968z
		 M76.824,75.188c0,7.734,0,15.414,0,23.108c5.556,0,11.06,0,16.564,0c0-1.549,0-3.036,0-4.601c-3.837,0-7.623,0-11.499,0
		c0-6.208,0-12.337,0-18.508C80.161,75.188,78.523,75.188,76.824,75.188z"/>
	<path fill-rule="evenodd" d="M114.739,217.322c-1.216-0.244-2.372-0.429-3.502-0.712c-1.756-0.44-2.27-0.248-3.16,1.355
		c-2.621,4.719-5.199,9.461-7.875,14.147c-1.558,2.727-3.908,4.236-7.162,3.992c-0.616-0.047-1.236-0.197-1.827-0.387
		c-2.926-0.937-4.268-3.044-3.641-6.059c2.364-11.371,4.791-22.729,7.208-34.087c0.145-0.681,0.364-1.355,0.631-1.998
		c0.63-1.519,1.676-2.657,3.244-3.244c0.884-0.331,1.43-0.883,1.427-1.88c-0.001-0.576,0.34-0.86,0.884-0.921
		c0.272-0.029,0.549-0.035,0.823-0.035c3.924-0.002,7.849-0.004,11.773,0.003c0.422,0.001,0.876-0.021,1.258,0.12
		c0.359,0.133,0.667,0.444,0.956,0.72c0.335,0.32,0.566,0.799,0.951,1.007c0.448,0.241,0.597,0.489,0.584,0.977
		c-0.031,1.198-0.019,2.399-0.006,3.599c0.051,4.619,4.468,7.345,8.603,5.313c0.131-0.064,0.267-0.121,0.447-0.202
		c1.167,2.196,2.913,3.505,5.443,3.487c2.498-0.018,4.216-1.325,5.349-3.471c3.406,1.863,6.932,0.644,8.639-2.62
		c0.213,0.102,0.429,0.204,0.645,0.307c3.837,1.828,8.2-0.817,8.383-5.066c0.048-1.109-0.247-2.274,0.361-3.305
		c0.19-0.321,0.546-0.606,0.892-0.757c0.324-0.141,0.735-0.106,1.108-0.107c3.824-0.006,7.648-0.007,11.473-0.002
		c1.296,0.001,1.347,0.05,1.623,1.304c0.158,0.721,0.615,1.201,1.271,1.474c1.941,0.804,3.073,2.311,3.536,4.281
		c1.027,4.376,2.035,8.76,2.94,13.163c1.479,7.192,2.878,14.4,4.282,21.608c0.142,0.725,0.162,1.494,0.108,2.233
		c-0.127,1.733-1.015,2.993-2.577,3.769c-3.664,1.818-7.679,0.521-9.669-3.161c-2.506-4.639-4.982-9.294-7.472-13.941
		c-0.154-0.286-0.301-0.576-0.467-0.855c-0.546-0.92-1.308-1.243-2.289-0.827c-2.876,1.219-5.914,1.446-8.969,1.439
		c-1.306-0.003-2.611-0.338-4.052-0.541c0.185-0.284,0.311-0.481,0.439-0.675c1.677-2.523,1.068-5.456-1.621-6.842
		c-1.3-0.671-2.808-1.014-4.262-1.299c-3.16-0.62-6.344-1.132-9.527-1.631c-0.696-0.109-1.457-0.091-2.143,0.064
		c-2.752,0.622-5.489,1.312-8.228,1.995c-3.673,0.917-6.303,3.919-6.728,7.65C114.83,216.851,114.796,216.997,114.739,217.322z
		 M106.311,214.708c6.379,0.005,11.563-5.158,11.546-11.533c-0.015-6.009-4.653-11.478-11.554-11.547
		c-6.341-0.063-11.491,5.196-11.501,11.516C94.792,209.538,99.934,214.704,106.311,214.708z M170.124,211.046
		c2.613,0.02,4.736-2.059,4.761-4.661c0.024-2.605-2.067-4.744-4.664-4.769c-2.602-0.024-4.741,2.073-4.763,4.669
		C165.437,208.894,167.527,211.026,170.124,211.046z M169.369,196.873c-0.012-2.604-2.138-4.712-4.736-4.698
		c-2.589,0.013-4.712,2.159-4.697,4.749c0.015,2.601,2.142,4.698,4.751,4.685C167.299,201.594,169.38,199.489,169.369,196.873z
		 M163.81,206.636c0.006-2.617-2.084-4.727-4.688-4.733c-2.607-0.007-4.729,2.099-4.736,4.697c-0.006,2.598,2.107,4.726,4.703,4.734
		C161.687,211.343,163.805,209.236,163.81,206.636z"/>
	<path fill-rule="evenodd" d="M128.991,190.743c0.001-1.975-0.018-3.95,0.008-5.925c0.016-1.185,0.594-2.063,1.688-2.524
		c1.03-0.435,2.015-0.27,2.875,0.456c0.673,0.568,0.961,1.33,0.963,2.194c0.008,3.85,0.023,7.698,0.001,11.548
		c-0.011,2.062-1.692,3.396-3.534,2.864c-1.189-0.343-1.979-1.365-1.996-2.689C128.971,194.692,128.99,192.717,128.991,190.743z"/>
	<path fill-rule="evenodd" d="M137.665,190.107c0.001-1.347-0.017-2.694,0.005-4.041c0.024-1.536,1.133-2.646,2.636-2.683
		c1.506-0.037,2.775,1.096,2.8,2.623c0.044,2.718,0.049,5.438,0.005,8.156c-0.025,1.593-1.271,2.717-2.819,2.68
		c-1.521-0.036-2.604-1.165-2.624-2.769C137.65,192.751,137.664,191.429,137.665,190.107z"/>
	<path fill-rule="evenodd" d="M125.865,190.783c0,1.123,0.019,2.247-0.004,3.37c-0.031,1.532-1.149,2.656-2.641,2.691
		c-1.494,0.034-2.75-1.021-2.792-2.538c-0.067-2.394-0.058-4.792,0.01-7.186c0.04-1.401,1.316-2.456,2.739-2.431
		c1.486,0.025,2.635,1.104,2.678,2.573c0.035,1.172,0.007,2.347,0.007,3.52C125.862,190.783,125.864,190.783,125.865,190.783z"/>
	<path fill-rule="evenodd" d="M151.803,189.455c-0.039,0.846-0.014,1.7-0.136,2.533c-0.161,1.112-0.868,1.825-1.941,2.141
		c-1.088,0.319-2.077,0.048-2.766-0.814c-0.376-0.471-0.636-1.147-0.678-1.75c-0.099-1.389-0.047-2.79-0.027-4.186
		c0.02-1.456,1.083-2.58,2.493-2.678c1.485-0.103,2.731,0.822,2.927,2.292c0.107,0.807,0.02,1.64,0.02,2.46
		C151.731,189.454,151.767,189.455,151.803,189.455z"/>
	<path fill-rule="evenodd" fill="#FFFFFF" d="M202.078,228.411c-3.924-6.467-7.819-12.889-11.816-19.477
		c0.961,0.08,1.761,0.149,2.561,0.214c0.349,0.027,0.699,0.076,1.046,0.061c1.243-0.057,1.953-0.646,2.179-1.865
		c0.149-0.81,0.216-1.634,0.312-2.453c0.131-1.131,0.437-1.416,1.588-1.438c0.8-0.015,1.602,0.021,2.398-0.027
		c1.361-0.084,2.066-0.756,2.169-2.109c0.085-1.12,0.072-2.248,0.113-3.372c0.041-1.099,0.315-1.409,1.411-1.55
		c1.016-0.13,2.04-0.199,3.054-0.343c1.55-0.219,2.187-0.971,2.147-2.532c-0.02-0.773-0.125-1.544-0.171-2.316
		c-0.066-1.11,0.131-1.374,1.198-1.622c0.827-0.192,1.67-0.329,2.483-0.566c1.298-0.379,1.833-1.21,1.65-2.542
		c-0.136-0.989-0.364-1.966-0.509-2.954c-0.147-0.996,0.045-1.293,1.007-1.618c0.828-0.281,1.678-0.5,2.5-0.795
		c1.591-0.57,2.058-1.448,1.653-3.08c-0.18-0.728-0.424-1.438-0.609-2.165c-0.243-0.956-0.07-1.315,0.829-1.725
		c0.75-0.342,1.529-0.622,2.27-0.982c1.319-0.642,1.71-1.562,1.231-2.96c-0.339-0.991-0.772-1.95-1.139-2.932
		c-0.378-1.009-0.252-1.361,0.692-1.905c0.845-0.486,1.725-0.912,2.563-1.408c1.436-0.852,1.726-1.841,1.002-3.35
		c-0.334-0.698-0.728-1.368-1.063-2.066c-0.389-0.813-0.287-1.2,0.449-1.732c0.668-0.483,1.379-0.908,2.034-1.406
		c1.271-0.966,1.449-1.951,0.617-3.323c-0.479-0.79-1.016-1.545-1.497-2.335c-0.504-0.828-0.43-1.247,0.313-1.889
		c0.661-0.573,1.358-1.104,2.014-1.683c1.249-1.103,1.357-2.144,0.366-3.481c-0.431-0.582-0.911-1.127-1.354-1.702
		c-0.65-0.847-0.632-1.237,0.108-2.027c0.547-0.583,1.14-1.125,1.672-1.721c0.961-1.075,0.994-2.06,0.058-3.148
		c-0.716-0.833-1.518-1.591-2.271-2.392c-0.754-0.801-0.78-1.214-0.103-2.094c0.641-0.832,1.338-1.621,1.955-2.468
		c0.895-1.226,0.787-2.213-0.328-3.246c-0.586-0.543-1.227-1.027-1.826-1.556c-0.69-0.609-0.766-1.055-0.291-1.84
		c0.44-0.727,0.948-1.413,1.372-2.147c0.726-1.261,0.558-2.194-0.588-3.093c-0.785-0.616-1.645-1.137-2.451-1.726
		c-0.772-0.564-0.869-0.947-0.453-1.792c0.397-0.807,0.856-1.583,1.245-2.394c0.729-1.516,0.436-2.491-0.998-3.354
		c-0.62-0.374-1.274-0.69-1.902-1.051c-0.94-0.541-1.07-0.902-0.684-1.903c0.27-0.699,0.588-1.379,0.844-2.082
		c0.559-1.534,0.181-2.49-1.286-3.192c-0.901-0.431-1.84-0.784-2.75-1.195c-0.975-0.44-1.15-0.813-0.874-1.837
		c0.266-0.989,0.591-1.963,0.828-2.959c0.355-1.486-0.106-2.342-1.538-2.879c-0.771-0.289-1.575-0.488-2.353-0.763
		c-0.844-0.298-1.046-0.664-0.896-1.551c0.135-0.788,0.313-1.569,0.434-2.359c0.239-1.578-0.302-2.408-1.858-2.82
		c-0.845-0.224-1.708-0.374-2.562-0.565c-1.167-0.262-1.4-0.572-1.306-1.775c0.061-0.772,0.167-1.541,0.231-2.312
		c0.145-1.737-0.491-2.568-2.216-2.853c-0.738-0.122-1.489-0.164-2.232-0.261c-0.966-0.126-1.257-0.437-1.291-1.414
		c-0.026-0.749,0.016-1.5-0.013-2.249c-0.064-1.723-0.714-2.403-2.421-2.503c-1.047-0.062-2.099-0.049-3.147-0.09
		c-1.02-0.04-1.33-0.308-1.47-1.323c-0.143-1.04-0.211-2.089-0.356-3.128c-0.219-1.556-0.967-2.196-2.524-2.158
		c-0.798,0.02-1.593,0.129-2.391,0.174c-1.046,0.059-1.313-0.15-1.556-1.191c-0.187-0.803-0.319-1.62-0.543-2.412
		c-0.394-1.387-1.215-1.923-2.633-1.725c-0.988,0.138-1.965,0.366-2.953,0.507c-0.92,0.131-1.221-0.061-1.523-0.934
		c-0.311-0.896-0.548-1.82-0.878-2.708c-0.54-1.454-1.426-1.911-2.944-1.546c-0.729,0.175-1.439,0.418-2.164,0.61
		c-1.042,0.275-1.4,0.106-1.836-0.866c-0.327-0.729-0.601-1.484-0.949-2.203c-0.643-1.324-1.558-1.719-2.955-1.243
		c-1.016,0.346-1.996,0.791-3.003,1.163c-0.937,0.346-1.293,0.221-1.797-0.644c-0.504-0.863-0.942-1.764-1.45-2.624
		c-0.854-1.442-1.84-1.736-3.347-1.015c-0.721,0.345-1.421,0.731-2.131,1.099c-0.665,0.346-1.207,0.194-1.627-0.412
		c-0.47-0.677-0.908-1.378-1.401-2.039c-1.004-1.348-1.988-1.53-3.431-0.647c-0.788,0.483-1.545,1.019-2.337,1.495
		c-0.755,0.455-1.191,0.382-1.776-0.283c-0.594-0.676-1.138-1.395-1.732-2.07c-1.104-1.253-2.145-1.366-3.48-0.379
		c-0.643,0.475-1.256,0.991-1.883,1.486c-0.582,0.459-1.146,0.439-1.68-0.078c-0.521-0.504-1.028-1.021-1.553-1.522
		c-1.442-1.379-2.406-1.395-3.886-0.034c-0.699,0.642-1.353,1.334-2.045,1.984c-0.741,0.697-1.166,0.725-1.976,0.108
		c-0.854-0.651-1.662-1.364-2.529-1.998c-1.229-0.898-2.212-0.794-3.248,0.316c-0.511,0.548-0.969,1.144-1.456,1.714
		c-0.713,0.835-1.145,0.912-2.067,0.34c-0.701-0.434-1.368-0.925-2.084-1.331c-1.205-0.682-2.11-0.523-2.979,0.553
		c-0.563,0.698-1.035,1.47-1.55,2.208c-0.807,1.155-1.121,1.236-2.352,0.599c-0.643-0.333-1.274-0.692-1.922-1.015
		c-1.661-0.826-2.645-0.537-3.571,1.048c-0.315,0.539-0.594,1.1-0.899,1.645c-0.631,1.124-0.969,1.24-2.184,0.751
		c-0.579-0.233-1.148-0.492-1.731-0.714c-1.716-0.653-2.669-0.261-3.437,1.42c-0.321,0.705-0.609,1.424-0.913,2.137
		c-0.642,1.503-0.906,1.628-2.448,1.18c-0.864-0.251-1.722-0.527-2.597-0.729c-1.412-0.326-2.26,0.125-2.78,1.477
		c-0.305,0.792-0.512,1.62-0.795,2.42c-0.299,0.848-0.665,1.055-1.545,0.906c-0.838-0.142-1.667-0.335-2.508-0.454
		c-1.413-0.198-2.256,0.343-2.636,1.724c-0.258,0.938-0.417,1.903-0.641,2.851c-0.236,0.997-0.554,1.24-1.585,1.175
		c-0.822-0.052-1.64-0.167-2.462-0.237c-1.74-0.148-2.575,0.487-2.861,2.205c-0.119,0.714-0.168,1.439-0.254,2.159
		c-0.125,1.055-0.434,1.352-1.486,1.381c-0.824,0.023-1.651-0.02-2.474,0.028c-1.398,0.082-2.096,0.762-2.195,2.165
		c-0.076,1.071-0.066,2.148-0.101,3.222c-0.041,1.225-0.32,1.525-1.542,1.664c-0.943,0.106-1.891,0.184-2.831,0.312
		c-1.677,0.227-2.301,0.968-2.244,2.673c0.028,0.823,0.123,1.644,0.187,2.466c0.056,0.716-0.287,1.14-0.972,1.292
		c-0.78,0.173-1.569,0.311-2.346,0.5c-1.69,0.412-2.243,1.22-1.995,2.936c0.122,0.84,0.319,1.668,0.456,2.506
		c0.189,1.161-0.002,1.472-1.107,1.836c-0.831,0.273-1.68,0.493-2.499,0.797c-1.459,0.542-1.92,1.423-1.561,2.937
		c0.167,0.705,0.399,1.394,0.589,2.093c0.313,1.151,0.143,1.5-0.966,1.979c-0.596,0.258-1.205,0.488-1.797,0.754
		c-1.672,0.751-2.064,1.7-1.416,3.435c0.28,0.749,0.598,1.482,0.893,2.225c0.579,1.458,0.479,1.726-0.924,2.489
		c-0.571,0.31-1.148,0.608-1.718,0.921c-2.024,1.112-2.31,2.045-1.251,4.075c0.266,0.509,0.55,1.01,0.801,1.526
		c0.437,0.896,0.345,1.277-0.456,1.851c-0.649,0.466-1.337,0.88-1.974,1.362c-1.28,0.969-1.469,1.95-0.646,3.318
		c0.464,0.771,0.987,1.505,1.46,2.27c0.564,0.913,0.499,1.322-0.303,2.009c-0.606,0.521-1.236,1.015-1.846,1.532
		c-1.401,1.188-1.522,2.249-0.419,3.699c0.363,0.477,0.75,0.936,1.124,1.405c0.858,1.081,0.838,1.417-0.144,2.422
		c-0.489,0.501-1.001,0.981-1.467,1.502c-0.983,1.099-1.009,2.083-0.039,3.207c0.668,0.774,1.411,1.486,2.12,2.225
		c0.91,0.948,0.93,1.34,0.101,2.383c-0.591,0.743-1.216,1.461-1.779,2.225c-0.959,1.299-0.863,2.276,0.311,3.363
		c0.494,0.458,1.025,0.877,1.544,1.309c1.008,0.838,1.07,1.229,0.352,2.352c-0.377,0.589-0.789,1.158-1.142,1.761
		c-0.791,1.349-0.609,2.313,0.639,3.262c0.755,0.574,1.568,1.072,2.336,1.629c0.801,0.582,0.89,0.958,0.445,1.853
		c-0.389,0.783-0.832,1.539-1.212,2.326c-0.745,1.542-0.443,2.525,1.036,3.402c0.666,0.395,1.367,0.73,2.031,1.129
		c0.732,0.439,0.872,0.838,0.575,1.638c-0.287,0.772-0.648,1.517-0.927,2.291c-0.536,1.491-0.151,2.44,1.285,3.131
		c0.923,0.443,1.885,0.804,2.817,1.229c0.928,0.424,1.097,0.798,0.832,1.792c-0.271,1.014-0.605,2.012-0.846,3.032
		c-0.334,1.415,0.115,2.263,1.463,2.786c0.767,0.298,1.571,0.499,2.351,0.768c0.933,0.32,1.142,0.681,0.975,1.64
		c-0.146,0.837-0.339,1.667-0.451,2.508c-0.178,1.335,0.359,2.185,1.649,2.55c0.96,0.272,1.951,0.433,2.923,0.662
		c1.004,0.236,1.25,0.55,1.186,1.576c-0.051,0.822-0.165,1.641-0.235,2.462c-0.15,1.745,0.48,2.583,2.192,2.871
		c0.689,0.116,1.389,0.17,2.084,0.246c1.174,0.129,1.454,0.434,1.472,1.633c0.011,0.774-0.022,1.552,0.022,2.324
		c0.081,1.401,0.756,2.105,2.153,2.206c1.096,0.078,2.198,0.067,3.297,0.105c1.14,0.04,1.449,0.317,1.589,1.454
		c0.123,0.991,0.194,1.99,0.332,2.979c0.221,1.592,0.968,2.226,2.579,2.181c0.798-0.021,1.594-0.124,2.392-0.177
		c0.211-0.014,0.427,0.022,0.776,0.044c-3.943,6.501-7.823,12.896-11.704,19.296C36.563,206.646,12.875,163.437,21.8,114.248
		c9.323-51.389,52.728-90.227,104.558-94.019c56.518-4.135,104.972,32.689,119.282,83.099
		C259.839,153.349,238.875,202.378,202.078,228.411z M241.167,130.408c-0.409,0.182-0.647,0.297-0.894,0.396
		c-1.574,0.634-3.144,1.278-4.728,1.887c-0.426,0.164-0.725,0.35-0.58,0.851c0.15,0.524-0.262,1.226,0.698,1.481
		c2.913,0.774,5.801,1.647,8.7,2.478c0.202,0.058,0.414,0.082,0.708,0.138c-0.032-0.606-0.083-1.125-0.081-1.643
		c0.001-0.418-0.142-0.631-0.575-0.711c-0.611-0.112-1.21-0.292-1.813-0.447c-1.372-0.354-2.743-0.71-4.328-1.122
		c2.101-0.812,3.968-1.578,5.869-2.244c0.661-0.231,0.652-0.625,0.613-1.142c-0.04-0.517,0.025-1.001-0.713-1.177
		c-1.7-0.403-3.377-0.908-5.063-1.375c-0.25-0.069-0.494-0.159-0.938-0.303c0.462-0.176,0.713-0.275,0.967-0.367
		c1.622-0.583,3.24-1.178,4.872-1.735c0.46-0.157,0.635-0.392,0.569-0.873c-0.069-0.51-0.081-1.027-0.123-1.611
		c-0.319,0.105-0.556,0.171-0.783,0.261c-2.719,1.068-5.436,2.141-8.153,3.209c-0.417,0.164-0.876,0.257-0.746,0.902
		c0.124,0.612-0.12,1.294,0.878,1.526C237.367,129.214,239.167,129.822,241.167,130.408z M130.67,25.874
		c-1.52-0.215-2.671,0.032-3.117,1.62c-0.106,0.377-0.351,0.716-0.534,1.072c-0.278,0.541-0.557,1.081-0.889,1.725
		c-0.917-1.231-1.725-2.341-2.566-3.423c-0.16-0.206-0.458-0.425-0.695-0.428c-0.639-0.007-1.28,0.099-1.967,0.165
		c0.277,3.268,0.547,6.466,0.824,9.737c0.446-0.025,0.816-0.077,1.184-0.061c0.689,0.03,1.027-0.18,0.862-0.948
		c-0.104-0.485-0.097-0.993-0.136-1.491c-0.096-1.225-0.19-2.45-0.285-3.675c0.048-0.019,0.097-0.038,0.145-0.057
		c0.945,1.198,1.89,2.396,2.905,3.682c0.797-1.464,1.526-2.802,2.255-4.14c0.058,0.021,0.117,0.042,0.175,0.063
		c0.173,1.976,0.346,3.952,0.526,6.011c0.742-0.071,1.396-0.133,2.122-0.202C131.204,32.245,130.938,29.065,130.67,25.874z
		 M29.001,164.499c3.214-0.742,6.358-1.467,9.547-2.203c-0.174-0.747-0.324-1.389-0.483-2.07c-2.018,0.458-3.923,0.891-6.028,1.368
		c1.475-1.774,2.749-3.445,4.178-4.973c0.838-0.896,0.79-1.718,0.298-2.78c-3.126,0.719-6.271,1.443-9.469,2.178
		c0.168,0.733,0.312,1.358,0.472,2.057c1.907-0.426,3.749-0.838,5.591-1.25c-1.358,1.883-2.785,3.584-4.193,5.301
		c-0.156,0.19-0.304,0.482-0.279,0.707C28.694,163.371,28.86,163.895,29.001,164.499z M181.757,36.115
		c-0.727-0.302-1.347-0.561-1.972-0.82c-0.794,1.861-1.521,3.566-2.326,5.45c-0.099-0.304-0.14-0.411-0.168-0.521
		c-0.489-1.882-0.979-3.765-1.465-5.648c-0.299-1.156-0.865-1.615-2.17-1.705c-1.23,2.923-2.468,5.862-3.735,8.875
		c0.667,0.283,1.272,0.54,1.958,0.831c0.793-1.874,1.55-3.663,2.384-5.632c0.121,0.376,0.182,0.534,0.224,0.697
		c0.47,1.812,1.038,3.607,1.37,5.444c0.227,1.259,0.926,1.759,2.111,1.976C179.212,42.125,180.462,39.173,181.757,36.115z
		 M239.044,143.716c-2.854,0.005-5.038,2.309-5.03,5.308c0.008,2.892,2.255,5.145,5.123,5.136c2.838-0.009,5.043-2.34,5.035-5.32
		C244.165,145.939,241.934,143.711,239.044,143.716z M241.684,162.151c-3.163-0.906-6.262-1.793-9.443-2.704
		c-0.202,0.718-0.382,1.355-0.582,2.063c1.019,0.306,1.979,0.595,2.92,0.878c-0.073,1.124-0.462,1.849-1.608,2.038
		c-0.655,0.108-1.287,0.378-1.918,0.607c-0.191,0.07-0.437,0.215-0.495,0.383c-0.232,0.668-0.401,1.358-0.634,2.183
		c1.42-0.466,2.677-0.878,3.915-1.285c0.074,0.148,0.104,0.19,0.116,0.237c0.426,1.719,1.469,2.612,3.193,2.73
		c1.365,0.093,2.583-0.758,3.114-2.329C240.786,165.403,241.197,163.814,241.684,162.151z M226.264,87.628
		c0.802,0.879,0.937,1.701,0.208,2.635c-0.409,0.525-0.688,1.155-1.001,1.75c-0.085,0.161-0.169,0.406-0.106,0.546
		c0.3,0.663,0.649,1.302,1.04,2.065c0.727-1.312,1.373-2.477,2.03-3.663c0.244,0.168,0.384,0.273,0.531,0.364
		c1.264,0.779,2.48,0.581,3.641-0.218c1.114-0.768,1.596-1.923,1.161-3.142c-0.646-1.814-1.555-3.536-2.38-5.359
		c-3.04,1.536-5.919,2.99-8.826,4.459c0.355,0.694,0.659,1.287,0.984,1.921C224.484,88.517,225.371,88.074,226.264,87.628z
		 M75.896,52.659c0.011-2.77-2.276-5.101-5.009-5.105c-2.86-0.004-5.349,2.45-5.35,5.275c-0.001,2.747,2.252,5.043,4.971,5.067
		C73.359,57.921,75.885,55.467,75.896,52.659z M64.152,207.871c-2.803-0.011-5.067,2.223-5.078,5.007
		c-0.011,2.861,2.425,5.282,5.315,5.282c2.756,0,5.03-2.236,5.056-4.973C69.474,210.347,67.02,207.882,64.152,207.871z
		 M212.75,203.908c-0.031,0.258-0.052,0.428-0.073,0.599c-0.194,1.498,0.412,2.668,1.767,3.406c1.179,0.644,2.513,0.526,3.575-0.547
		c1.242-1.254,2.346-2.645,3.562-4.036c-2.547-2.143-5.019-4.221-7.523-6.327c-0.502,0.599-0.931,1.109-1.386,1.651
		c0.822,0.701,1.59,1.355,2.313,1.971c-0.517,1.046-1.177,1.508-2.275,1.22c-0.646-0.17-1.335-0.177-2.007-0.235
		c-0.187-0.016-0.453-0.022-0.558,0.087c-0.501,0.525-0.96,1.093-1.545,1.774C210.1,203.628,211.38,203.763,212.75,203.908z
		 M51.957,207.546c2.596-2.096,5.106-4.123,7.656-6.181c-0.483-0.594-0.902-1.107-1.361-1.671c-0.846,0.676-1.633,1.304-2.383,1.901
		c-0.874-0.71-1.281-1.418-0.77-2.456c0.294-0.597,0.434-1.272,0.604-1.923c0.057-0.218,0.082-0.527-0.03-0.688
		c-0.392-0.565-0.85-1.083-1.386-1.747c-0.433,1.424-0.819,2.693-1.215,3.993c-0.217-0.078-0.332-0.119-0.446-0.161
		c-1.439-0.529-2.767-0.175-3.769,1.008c-0.873,1.029-1.04,2.366-0.203,3.608C49.653,204.711,50.822,206.078,51.957,207.546z
		 M43.16,75.27c2.705,1.932,5.333,3.809,8.005,5.718c0.89-1.271,1.769-2.396,2.507-3.608c1.44-2.366,0.866-5.117-1.306-6.646
		c-2.157-1.519-4.946-1.093-6.683,1.077C44.811,72.9,44.033,74.065,43.16,75.27z M188.939,39.73
		c-1.774,2.89-3.462,5.639-5.177,8.432c1.246,0.763,2.388,1.473,3.543,2.16c0.297,0.177,0.628,0.307,0.957,0.419
		c2.242,0.768,4.503-0.021,5.743-1.993c1.229-1.953,1.033-4.456-0.727-6.005C191.988,41.605,190.441,40.756,188.939,39.73z
		 M39.324,187.01c-0.588,1.807,0.411,4.335,2.152,5.6c2.787,2.023,6.959,0.593,7.89-2.726c0.802-2.86-1.206-5.787-3.802-6.742
		c-0.145-0.053-0.364-0.06-0.491,0.014c-1.143,0.652-2.273,1.326-3.464,2.028c0.737,1.25,1.428,2.422,2.16,3.662
		c0.575-0.343,1.072-0.641,1.595-0.953c-0.209-0.368-0.369-0.648-0.527-0.929c-0.167-0.296-0.332-0.592-0.612-1.091
		c0.635-0.139,1.221-0.471,1.59-0.31c1.241,0.544,1.912,2.322,1.499,3.576c-0.447,1.355-2.013,2.375-3.392,2.21
		c-1.515-0.183-2.578-1.325-2.66-2.875c-0.02-0.368-0.003-0.739-0.003-1.152C40.573,187.212,39.942,187.11,39.324,187.01z
		 M97.117,33.709c-1.875-0.59-3.511-0.228-5.019,0.748c-1.867,1.208-2.66,3.455-2.042,5.577c0.635,2.178,2.386,3.643,4.574,3.672
		c2.373,0.031,4.147-1.095,5.381-3.095c0.096-0.155,0.186-0.404,0.128-0.549c-0.492-1.243-1.019-2.472-1.556-3.753
		c-1.359,0.568-2.613,1.092-3.92,1.637c0.264,0.623,0.483,1.141,0.721,1.704c0.695-0.277,1.312-0.522,1.913-0.762
		c0.766,1.168,0.699,1.525-0.388,2.209c-0.21,0.132-0.437,0.243-0.667,0.336c-1.127,0.456-2.182,0.304-3.06-0.531
		c-0.931-0.886-1.312-1.987-0.974-3.272c0.315-1.202,1.159-1.856,2.33-2.05c0.623-0.104,1.277-0.019,2.01-0.019
		C96.711,35.033,96.899,34.42,97.117,33.709z M35.523,125.168c0.351-2.545,0.683-4.953,1.021-7.41
		c-0.693-0.086-1.273-0.159-1.89-0.235c-0.257,1.778-0.501,3.471-0.755,5.232c-0.702-0.092-1.309-0.172-2.003-0.264
		c0.203-1.548,0.399-3.038,0.602-4.579c-0.661-0.092-1.242-0.173-1.881-0.262c-0.228,1.553-0.447,3.046-0.672,4.581
		c-0.677-0.108-1.278-0.204-1.927-0.308c0.235-1.78,0.458-3.468,0.685-5.19c-0.695-0.086-1.254-0.155-1.89-0.233
		c-0.343,2.473-0.673,4.857-1.015,7.319C29.062,124.272,32.238,124.712,35.523,125.168z M53.224,62.273
		c2.39,2.283,4.727,4.516,7.092,6.776c1.75-1.829,3.437-3.591,5.167-5.398c-0.485-0.462-0.914-0.87-1.234-1.175
		c-1.349,1.195-2.653,2.351-3.992,3.536c-0.358-0.343-0.822-0.787-1.315-1.258c1.072-1.132,2.1-2.218,3.171-3.348
		c-0.458-0.439-0.901-0.862-1.313-1.256c-1.159,1.06-2.271,2.078-3.412,3.121c-0.368-0.37-0.799-0.803-1.246-1.251
		c1.201-1.267,2.368-2.497,3.458-3.646c-0.417-0.498-0.811-0.969-1.241-1.483C56.605,58.729,54.938,60.476,53.224,62.273z
		 M217.588,192.167c0.597,0.363,1.097,0.667,1.643,0.999c0.967-1.529,1.883-2.979,2.829-4.477c0.595,0.379,1.133,0.721,1.717,1.092
		c-0.829,1.328-1.618,2.591-2.44,3.905c0.566,0.355,1.082,0.68,1.62,1.018c0.848-1.329,1.66-2.603,2.483-3.895
		c0.604,0.384,1.12,0.712,1.654,1.052c-0.954,1.524-1.851,2.956-2.786,4.449c0.57,0.357,1.083,0.68,1.632,1.023
		c1.342-2.137,2.624-4.18,3.938-6.271c-2.797-1.758-5.518-3.466-8.308-5.219C220.236,187.963,218.939,190.024,217.588,192.167z
		 M138.62,25.825c-0.211,3.304-0.414,6.505-0.622,9.77c2.515,0.156,4.925,0.306,7.43,0.461c0.038-0.668,0.07-1.251,0.107-1.901
		c-1.221-0.087-2.361-0.18-3.505-0.246c-2.136-0.122-1.779,0.269-1.617-1.981c0.002-0.02,0.027-0.038,0.106-0.146
		c1.419,0.078,2.901,0.16,4.478,0.247c0.03-0.646,0.059-1.229,0.09-1.892c-1.547-0.112-3.025-0.218-4.576-0.33
		c0.054-0.677,0.103-1.281,0.155-1.946c1.768,0.105,3.43,0.204,5.194,0.308c0.037-0.648,0.071-1.25,0.108-1.905
		c-2.319-0.15-4.534-0.295-6.749-0.437C139.05,25.815,138.879,25.825,138.62,25.825z M236.808,177.024
		c-2.998-1.348-5.925-2.663-8.924-4.011c-0.311,0.686-0.591,1.304-0.888,1.959c0.653,0.299,1.176,0.617,1.742,0.781
		c0.994,0.288,1.319,1.023,1.515,1.975c-1.488,0.313-2.952,0.606-4.407,0.941c-0.257,0.059-0.571,0.236-0.691,0.452
		c-0.338,0.604-0.588,1.257-0.913,1.98c0.33-0.049,0.573-0.072,0.81-0.123c1.803-0.387,3.612-0.75,5.402-1.189
		c0.53-0.129,0.703,0.027,0.869,0.476c0.346,0.937,0.736,1.858,1.112,2.785c0.236,0.584,0.478,1.166,0.771,1.881
		c0.716-1.32,1.416-2.427,0.486-3.798c-0.385-0.568-0.568-1.273-0.838-1.919c-0.245-0.587-0.482-1.178-0.792-1.936
		c1.394,0.618,2.607,1.157,3.867,1.715C236.234,178.312,236.503,177.707,236.808,177.024z M27.154,139.131c0-1.661,0-3.288,0-5.09
		c0.445,0.379,0.746,0.631,1.042,0.888c1.607,1.388,3.175,2.825,4.845,4.131c0.416,0.325,1.16,0.28,1.752,0.274
		c0.089,0,0.242-0.713,0.248-1.098c0.031-2.048,0.025-4.097,0.028-6.146c0-0.265-0.022-0.53-0.034-0.79c-0.67,0-1.253,0-1.935,0
		c0,1.754,0,3.45,0,5.281c-1.939-1.674-3.782-3.207-5.552-4.82c-0.72-0.656-1.45-0.577-2.236-0.46
		c-0.037,0.11-0.065,0.157-0.065,0.203c-0.01,2.048-0.015,4.096-0.025,6.145C25.214,139.404,25.212,139.404,27.154,139.131z
		 M202.576,48.922c-0.357,0.411-0.675,0.757-0.973,1.119c-1.08,1.312-2.249,2.563-3.206,3.959c-1.235,1.803-0.837,3.641,0.923,5.191
		c1.755,1.545,3.716,1.777,5.265,0.309c1.62-1.536,3.008-3.316,4.551-5.05c-0.631-0.53-1.152-0.969-1.699-1.428
		c-0.424,0.5-0.778,0.917-1.133,1.336c-0.855,1.012-1.693,2.039-2.571,3.031c-0.959,1.083-2.027,1.191-3.025,0.358
		c-0.982-0.82-1.052-1.906-0.182-3.05c0.272-0.358,0.572-0.695,0.861-1.04c0.928-1.105,1.855-2.209,2.82-3.358
		C203.642,49.823,203.133,49.394,202.576,48.922z M105.962,39.629c0.128,0.033,0.176,0.061,0.22,0.055
		c1.863-0.288,1.873-0.286,2.121-2.145c0.061-0.452,0.214-0.723,0.7-0.804c0.54-0.09,1.095-0.188,1.595-0.398
		c1.292-0.542,2.274-0.368,2.9,1.004c0.086,0.188,0.43,0.4,0.623,0.374c0.602-0.082,1.188-0.273,1.856-0.441
		c-0.198-0.286-0.316-0.471-0.448-0.646c-1.841-2.456-3.698-4.901-5.515-7.375c-0.342-0.465-0.678-0.591-1.19-0.396
		c-0.185,0.071-0.383,0.111-0.579,0.145c-0.442,0.076-0.652,0.28-0.721,0.775c-0.238,1.727-0.552,3.442-0.828,5.164
		C106.446,36.504,106.206,38.071,105.962,39.629z M40.203,167.846c-0.165,0.129-0.249,0.183-0.318,0.252
		c-2.303,2.285-4.589,4.587-6.916,6.848c-0.588,0.571-0.092,0.999,0.044,1.477c0.122,0.429,0.261,0.786,0.885,0.794
		c3.168,0.041,6.336,0.144,9.504,0.223c0.168,0.004,0.336-0.02,0.602-0.036c-0.218-0.557-0.369-1.085-0.63-1.551
		c-0.124-0.22-0.488-0.488-0.693-0.451c-1.486,0.268-2.282-0.36-2.541-1.795c-0.021-0.121-0.07-0.244-0.136-0.347
		c-0.767-1.196-0.652-2.198,0.617-2.975c0.355-0.217,0.391-0.521,0.208-0.901C40.604,168.914,40.434,168.42,40.203,167.846z
		 M207.928,64.879c-0.193,2.1,1.33,4.619,3.177,5.329c1.134,0.435,2.152,0.21,3.054-0.6c0.865-0.777,1.055-1.73,0.698-2.794
		c-0.198-0.589-0.484-1.147-0.734-1.719c-0.169-0.388-0.437-0.763-0.487-1.166c-0.042-0.338,0.062-0.87,0.292-1.018
		c0.236-0.152,0.857-0.077,1.043,0.133c0.447,0.508,0.765,1.14,1.08,1.749c0.153,0.295,0.184,0.653,0.275,1.005
		c0.533-0.063,1.011-0.081,1.464-0.194c0.158-0.04,0.371-0.318,0.366-0.483c-0.041-1.668-1.558-3.731-3.117-4.247
		c-1.118-0.37-2.107-0.119-2.958,0.704c-0.813,0.788-0.958,1.719-0.604,2.748c0.161,0.469,0.39,0.916,0.589,1.372
		c0.219,0.502,0.51,0.987,0.632,1.511c0.07,0.3-0.03,0.801-0.243,0.961c-0.223,0.168-0.761,0.168-1.001,0.006
		c-0.417-0.281-0.814-0.694-1.031-1.144c-0.328-0.679-0.493-1.437-0.754-2.241C209.13,64.818,208.522,64.849,207.928,64.879z
		 M206.062,209.875c0-0.313,0.037-0.788-0.02-1.252c-0.021-0.168-0.27-0.441-0.412-0.439c-1.968,0.018-4.457,1.539-5.026,3.528
		c-0.316,1.107,0.014,2.063,0.818,2.874c0.752,0.758,1.649,0.92,2.622,0.594c0.659-0.222,1.279-0.556,1.922-0.828
		c0.411-0.176,0.82-0.405,1.252-0.469c0.259-0.038,0.65,0.124,0.812,0.33c0.139,0.175,0.152,0.652,0.013,0.802
		c-0.413,0.442-0.894,0.851-1.417,1.152c-0.418,0.241-0.937,0.307-1.487,0.474c0.081,0.615,0.16,1.219,0.248,1.888
		c2.049-0.242,3.623-1.084,4.536-2.875c0.556-1.092,0.398-2.187-0.444-3.127c-0.874-0.975-1.815-1.199-3.116-0.683
		c-0.926,0.367-1.806,0.851-2.739,1.191c-0.244,0.089-0.708-0.072-0.892-0.278c-0.161-0.18-0.165-0.621-0.065-0.88
		c0.119-0.306,0.373-0.639,0.658-0.784C204.172,210.659,205.065,210.311,206.062,209.875z M35.257,89.478
		c-0.243,0.584-0.401,1.057-0.631,1.492c-0.251,0.476-0.165,0.786,0.241,1.146c1.436,1.276,2.837,2.591,4.248,3.896
		c0.15,0.138,0.275,0.303,0.512,0.565c-0.407,0-0.649,0.006-0.892-0.001c-1.896-0.056-3.791-0.124-5.687-0.162
		c-0.24-0.005-0.617,0.068-0.702,0.227c-0.31,0.58-0.522,1.211-0.817,1.934c0.403,0,0.649-0.001,0.895,0
		c2.919,0.019,5.839,0.036,8.759,0.057c0.864,0.006,1.666-0.797,1.613-1.649c-0.008-0.13-0.105-0.28-0.205-0.377
		C40.18,94.255,37.763,91.911,35.257,89.478z M230.04,104.258c1.066-0.363,2.065-0.738,3.088-1.036
		c0.383-0.111,0.837-0.132,1.226-0.046c1.799,0.4,3.587,0.853,5.379,1.282c0.22,0.053,0.447,0.075,0.766,0.127
		c-0.143-0.419-0.285-0.693-0.324-0.981c-0.14-1.015-0.724-1.451-1.719-1.584c-1.037-0.139-2.055-0.431-3.195-0.681
		c0.931-1.094,1.761-2.056,2.57-3.036c0.145-0.175,0.328-0.453,0.282-0.625c-0.188-0.701-0.459-1.379-0.739-2.179
		c-1.308,1.628-2.541,3.132-3.733,4.667c-0.43,0.555-0.911,0.939-1.602,1.132c-0.901,0.252-1.773,0.606-2.699,0.931
		C229.586,102.947,229.804,103.576,230.04,104.258z M221.467,71.011c0.573,0.846,1.108,1.636,1.669,2.463
		c-2.171,1.508-4.269,2.966-6.401,4.447c0.434,0.627,0.813,1.174,1.228,1.775c2.166-1.496,4.27-2.948,6.419-4.433
		c0.584,0.83,1.139,1.619,1.718,2.443c0.561-0.398,1.078-0.765,1.624-1.153c-1.561-2.251-3.076-4.438-4.624-6.67
		C222.537,70.273,222.031,70.623,221.467,71.011z M164.493,29.788c-0.12,0.396-0.216,0.702-0.306,1.01
		c-0.748,2.585-1.503,5.169-2.228,7.761c-0.061,0.217,0.021,0.658,0.154,0.714c0.537,0.227,1.121,0.342,1.73,0.51
		c0.915-3.167,1.806-6.245,2.714-9.388C165.855,30.189,165.22,30.002,164.493,29.788z M25.989,148.592
		c3.285-0.356,6.474-0.702,9.75-1.057c-0.083-0.756-0.158-1.431-0.237-2.151c-3.303,0.36-6.492,0.708-9.74,1.063
		C25.84,147.187,25.908,147.826,25.989,148.592z M39.33,81.727c-0.367,0.668-0.686,1.248-1.041,1.893
		c2.9,1.596,5.728,3.151,8.593,4.727c0.36-0.656,0.681-1.24,1.011-1.842c-0.143-0.109-0.231-0.196-0.336-0.254
		C44.849,84.76,42.141,83.271,39.33,81.727z M33.637,106.479c-1.153-0.006-2.105,0.929-2.106,2.067
		c-0.001,1.126,0.967,2.096,2.097,2.103c1.138,0.006,2.078-0.94,2.084-2.097C35.717,107.374,34.826,106.484,33.637,106.479z
		 M239.86,114.252c-0.008-1.176-0.938-2.089-2.106-2.067c-1.133,0.021-2.055,0.938-2.071,2.057c-0.018,1.13,0.959,2.112,2.099,2.11
		C238.953,116.35,239.867,115.427,239.86,114.252z M154.464,30.37c-1.122-0.038-2.065,0.843-2.118,1.98
		c-0.056,1.192,0.804,2.142,1.978,2.184c1.185,0.042,2.123-0.828,2.167-2.006C156.533,31.363,155.637,30.41,154.464,30.37z
		 M84.483,44.833c0.015-1.184-0.883-2.102-2.06-2.107c-1.184-0.005-2.083,0.896-2.082,2.084c0.002,1.131,0.9,2.063,2.02,2.094
		C83.499,46.937,84.469,45.989,84.483,44.833z"/>
	<path fill-rule="evenodd" fill="#FFFFFF" d="M139.329,157.083c0.925-1.49,1.767-2.846,2.607-4.201
		c1.04-1.677,2.091-3.348,3.113-5.036c0.23-0.381,0.479-0.558,0.946-0.549c1.596,0.03,3.193,0.011,4.851,0.011
		c0,7.743,0,15.441,0,23.18c-1.666,0-3.301,0-5.031,0c0-4.943,0-9.843,0-14.742c-0.058-0.017-0.115-0.034-0.173-0.052
		c-2.105,3.199-4.212,6.398-6.389,9.706c-2.156-3.263-4.251-6.432-6.347-9.601c-0.052,0.017-0.104,0.034-0.156,0.051
		c0,4.854,0,9.708,0,14.622c-1.688,0-3.298,0-4.977,0c0-7.692,0-15.393,0-23.16c1.754,0,3.473-0.017,5.191,0.022
		c0.195,0.005,0.436,0.29,0.568,0.499c1.753,2.791,3.491,5.591,5.233,8.388C138.922,156.471,139.088,156.715,139.329,157.083z"/>
	<path fill-rule="evenodd" fill="#FFFFFF" d="M123.167,75.15c3.669,0,7.289-0.02,10.909,0.014c0.866,0.008,1.75,0.116,2.594,0.313
		c3.685,0.86,5.603,3.988,4.614,7.443c-0.415,1.453-1.396,2.449-2.721,3.266c0.473,0.241,0.868,0.434,1.257,0.642
		c2.06,1.097,3.003,2.839,2.98,5.147c-0.022,2.325-0.995,4.088-3.064,5.2c-1.651,0.888-3.457,1.148-5.293,1.166
		c-3.573,0.034-7.147,0.01-10.721,0.023c-0.419,0.001-0.637-0.079-0.636-0.571c0.014-7.447,0.013-14.895,0.018-22.342
		C123.103,75.381,123.132,75.31,123.167,75.15z M128.111,93.882c1.298,0,2.494,0.018,3.689-0.005
		c1.222-0.024,2.452-0.006,3.661-0.155c1.507-0.187,2.277-1.13,2.243-2.507c-0.029-1.175-0.747-2.059-2.104-2.238
		c-1.353-0.179-2.734-0.153-4.104-0.186c-1.115-0.026-2.231-0.005-3.385-0.005C128.111,90.517,128.111,92.151,128.111,93.882z
		 M128.105,84.385c2.078,0,4.088,0.023,6.097-0.02c0.399-0.009,0.893-0.167,1.166-0.436c0.417-0.411,0.86-0.941,0.973-1.487
		c0.289-1.388-0.469-2.458-1.962-2.625c-1.651-0.186-3.33-0.127-4.996-0.17c-0.414-0.01-0.828-0.001-1.278-0.001
		C128.105,81.294,128.105,82.832,128.105,84.385z"/>
	<path fill-rule="evenodd" fill="#FFFFFF" d="M170.438,86.745c-0.016,6.835-5.365,12.005-12.403,11.988
		c-7.022-0.017-12.279-5.18-12.245-12.026c0.033-6.757,5.427-11.978,12.365-11.97C165.145,74.744,170.455,79.934,170.438,86.745z
		 M151.167,86.695c-0.008,4.073,2.911,7.239,6.765,7.338c4.654,0.119,8.041-4.165,7-8.856c-0.824-3.717-3.95-6.044-7.6-5.66
		C153.707,79.899,151.173,82.849,151.167,86.695z"/>
	<path fill-rule="evenodd" fill="#FFFFFF" d="M174.813,75.289c4.204,0,8.356-0.174,12.486,0.051
		c3.749,0.204,6.223,2.623,6.723,6.207c0.495,3.55-0.755,6.729-4.392,8.325c-0.132,0.058-0.258,0.133-0.445,0.231
		c1.861,2.723,3.699,5.412,5.644,8.255c-1.396,0-2.622-0.113-3.818,0.028c-1.611,0.19-2.606-0.356-3.404-1.793
		c-0.992-1.785-2.255-3.418-3.371-5.135c-0.265-0.408-0.556-0.562-1.037-0.546c-1.07,0.035-2.142,0.011-3.313,0.011
		c0,2.487,0,4.917,0,7.391c-1.737,0-3.374,0-5.071,0C174.813,90.602,174.813,82.923,174.813,75.289z M179.908,86.403
		c1.28,0,2.521,0.017,3.762-0.006c0.871-0.017,1.757,0,2.608-0.152c1.767-0.315,2.71-1.584,2.627-3.365
		c-0.087-1.875-1.36-3.013-3.543-3.075c-1.697-0.049-3.397-0.016-5.096-0.015c-0.115,0-0.231,0.042-0.358,0.066
		C179.908,82.036,179.908,84.172,179.908,86.403z"/>
	<path fill-rule="evenodd" fill="#FFFFFF" d="M88.324,127.028c0,2.49,0,4.878,0,7.33c-1.726,0-3.38,0-5.091,0
		c0-7.658,0-15.315,0-23.067c0.222-0.012,0.46-0.036,0.698-0.036c3.373-0.001,6.748-0.077,10.116,0.04
		c1.421,0.049,2.902,0.31,4.225,0.816c2.864,1.095,4.362,3.751,4.261,6.995c-0.101,3.233-1.538,5.566-4.533,6.885
		c-0.11,0.048-0.209,0.121-0.376,0.22c1.848,2.706,3.673,5.379,5.557,8.136c-0.262,0.032-0.441,0.071-0.622,0.072
		c-1.499,0.005-2.999-0.022-4.497,0.016c-0.586,0.015-0.946-0.153-1.276-0.664c-1.341-2.077-2.747-4.112-4.1-6.181
		c-0.281-0.43-0.591-0.589-1.096-0.572C90.545,127.053,89.498,127.028,88.324,127.028z M88.314,122.42
		c2.091,0,4.065,0.101,6.023-0.029c1.89-0.125,3.005-1.433,3.008-3.193c0.003-1.848-1.069-3.095-3.024-3.243
		c-1.839-0.14-3.692-0.094-5.54-0.095c-0.156,0-0.445,0.26-0.447,0.402C88.305,118.307,88.314,120.352,88.314,122.42z"/>
	<path fill-rule="evenodd" fill="#FFFFFF" d="M92.095,161.537c-1.769,0-3.41,0-5.131,0c0-1.377-0.019-2.694,0.03-4.009
		c0.005-0.129,0.42-0.347,0.646-0.349c2.623-0.024,5.247-0.016,7.871-0.016c0.471,0,0.941,0,1.474,0
		c0.023,0.28,0.058,0.496,0.058,0.711c0.003,2.923,0.013,5.847-0.014,8.77c-0.003,0.303-0.148,0.715-0.372,0.889
		c-4.245,3.302-8.972,4.306-14.103,2.601c-4.842-1.608-7.776-6.165-7.605-11.452c0.226-6.98,5.755-12.065,12.74-11.775
		c3.172,0.132,6.041,0.98,8.515,3.218c-1.045,1.268-2.084,2.529-3.188,3.868c-0.259-0.192-0.491-0.36-0.718-0.535
		c-1.826-1.408-3.895-2.062-6.176-1.734c-3.412,0.49-5.795,3.463-5.828,7.118c-0.034,3.704,2.127,6.589,5.55,7.261
		c1.962,0.385,3.875,0.104,5.663-0.856c0.412-0.221,0.629-0.482,0.601-0.993C92.061,163.389,92.095,162.519,92.095,161.537z"/>
	<path fill-rule="evenodd" fill="#FFFFFF" d="M173.697,147.358c0,1.513,0,2.978,0,4.521c-4.103,0-8.166,0-12.367,0
		c0,1.086,0,2.098,0,3.11c0.001,1.579,0.001,1.579,1.578,1.579c2.799,0,5.599,0,8.397,0c0.271,0,0.543,0,0.882,0
		c0,1.515,0,2.971,0,4.537c-0.265,0-0.53,0-0.795,0c-3.1,0-6.198,0.013-9.297-0.012c-0.573-0.005-0.802,0.133-0.777,0.745
		c0.045,1.123,0.043,2.25,0,3.373c-0.021,0.595,0.175,0.766,0.765,0.762c3.624-0.024,7.248-0.012,10.872-0.012
		c0.292,0,0.585,0,0.903,0c0,1.563,0,3.022,0,4.525c-5.864,0-11.674,0-17.542,0c0-7.716,0-15.397,0-23.129
		C162.089,147.358,167.85,147.358,173.697,147.358z"/>
	<path fill-rule="evenodd" fill="#FFFFFF" d="M112.042,120.453c3.668,0,7.254,0,10.89,0c0,1.54,0,3.001,0,4.582
		c-3.6,0-7.203,0-10.886,0c0,1.559-0.004,3.001,0.002,4.443c0.002,0.53,0.417,0.399,0.712,0.399
		c2.949,0.008,5.897,0.004,8.845,0.004c0.97,0,1.941,0,2.969,0c0,1.527,0,2.984,0,4.49c-5.85,0-11.683,0-17.569,0
		c0-7.664,0-15.321,0-23.049c5.785,0,11.583,0,17.423,0c0,1.465,0,2.903,0,4.429c-0.304,0.014-0.592,0.039-0.88,0.039
		c-3.573,0.003-7.146,0.016-10.719-0.011c-0.62-0.005-0.823,0.166-0.8,0.795C112.075,117.84,112.042,119.108,112.042,120.453z"/>
	<path fill-rule="evenodd" fill="#FFFFFF" d="M190.897,134.39c-5.876,0-11.692,0-17.562,0c0-7.688,0-15.346,0-23.07
		c5.788,0,11.568,0,17.407,0c0,1.444,0,2.902,0,4.449c-4.093,0-8.177,0-12.317,0c0,1.594,0,3.1,0,4.687c3.604,0,7.189,0,10.826,0
		c0,1.54,0,3.001,0,4.557c-3.59,0-7.175,0-10.821,0c0,1.646,0,3.201,0,4.847c4.144,0,8.277,0,12.467,0
		C190.897,131.406,190.897,132.863,190.897,134.39z"/>
	<path fill-rule="evenodd" fill="#FFFFFF" d="M151.524,134.418c-1.707,0-3.348,0.016-4.987-0.022c-0.183-0.004-0.435-0.29-0.524-0.5
		c-0.579-1.354-1.136-2.718-1.669-4.091c-0.158-0.407-0.372-0.575-0.822-0.572c-2.872,0.018-5.745,0.019-8.618-0.001
		c-0.453-0.003-0.657,0.168-0.814,0.572c-0.525,1.348-1.104,2.674-1.623,4.024c-0.167,0.434-0.375,0.616-0.862,0.605
		c-1.494-0.033-2.989-0.012-4.593-0.012c0.136-0.34,0.229-0.59,0.333-0.835c3.098-7.278,6.202-14.554,9.283-21.839
		c0.216-0.51,0.466-0.727,1.038-0.703c1.122,0.048,2.248,0.032,3.372,0.006c0.437-0.01,0.672,0.131,0.847,0.544
		c3.153,7.445,6.321,14.883,9.484,22.324C151.424,134.048,151.455,134.19,151.524,134.418z M139.229,117.254
		c-1.057,2.574-2.032,4.952-3.035,7.395c2.051,0,3.997,0,6.058,0C141.247,122.191,140.281,119.829,139.229,117.254z"/>
	<path fill-rule="evenodd" fill="#FFFFFF" d="M124.286,170.528c-1.723,0-3.366,0.016-5.007-0.024
		c-0.174-0.004-0.407-0.313-0.5-0.528c-0.579-1.354-1.144-2.714-1.672-4.088c-0.172-0.446-0.41-0.587-0.881-0.583
		c-2.824,0.022-5.648,0.027-8.472-0.004c-0.521-0.006-0.745,0.175-0.922,0.635c-0.529,1.373-1.091,2.733-1.673,4.084
		c-0.089,0.207-0.343,0.482-0.526,0.487c-1.57,0.039-3.141,0.022-4.847,0.022c0.12-0.333,0.194-0.581,0.295-0.816
		c3.109-7.302,6.224-14.601,9.322-21.907c0.2-0.472,0.422-0.701,0.976-0.676c1.123,0.049,2.249,0.035,3.373,0.005
		c0.461-0.012,0.707,0.119,0.896,0.567c3.135,7.399,6.289,14.79,9.436,22.185C124.159,170.062,124.2,170.25,124.286,170.528z
		 M112.077,153.565c-0.064,0.003-0.128,0.007-0.193,0.01c-0.967,2.366-1.934,4.733-2.931,7.174c2.062,0,3.992,0,6.059,0
		C114.01,158.296,113.044,155.931,112.077,153.565z"/>
	<path fill-rule="evenodd" fill="#FFFFFF" d="M95.137,98.359c0.157-0.4,0.241-0.632,0.337-0.858
		c3.084-7.259,6.175-14.515,9.241-21.782c0.239-0.566,0.529-0.781,1.149-0.75c1.096,0.055,2.197,0.029,3.296,0.008
		c0.419-0.008,0.668,0.09,0.851,0.521c3.15,7.448,6.32,14.887,9.483,22.33c0.056,0.131,0.089,0.271,0.173,0.532
		c-1.168,0-2.256,0-3.344,0c-1.973,0-1.974,0-2.726-1.852c-0.376-0.926-0.771-1.844-1.115-2.781
		c-0.165-0.452-0.419-0.586-0.889-0.583c-2.823,0.021-5.646,0.024-8.468-0.002c-0.505-0.004-0.758,0.146-0.938,0.62
		c-0.506,1.329-1.079,2.633-1.587,3.961c-0.176,0.459-0.399,0.663-0.923,0.649C98.212,98.334,96.747,98.359,95.137,98.359z
		 M110.393,88.589c-1.012-2.469-1.991-4.857-3.04-7.416c-0.583,1.408-1.083,2.604-1.574,3.803c-0.485,1.186-0.96,2.375-1.46,3.613
		C106.394,88.589,108.332,88.589,110.393,88.589z"/>
	<path fill-rule="evenodd" fill="#FFFFFF" d="M194.38,149.923c-0.902,1.308-1.764,2.555-2.673,3.874
		c-0.257-0.161-0.48-0.299-0.703-0.44c-1.428-0.905-2.933-1.669-4.64-1.771c-0.844-0.05-1.73,0.121-2.552,0.353
		c-0.69,0.195-1.063,0.809-1.1,1.553c-0.038,0.761,0.23,1.423,0.936,1.74c0.93,0.417,1.901,0.745,2.868,1.071
		c1.56,0.527,3.17,0.928,4.688,1.554c2.087,0.861,3.539,2.36,3.784,4.72c0.438,4.208-1.668,7.167-5.827,7.989
		c-4.662,0.92-8.789-0.354-12.5-3.408c1.023-1.228,2.009-2.409,3.027-3.631c0.49,0.351,0.938,0.695,1.407,1.004
		c2.07,1.358,4.301,2.153,6.8,1.64c0.612-0.125,1.269-0.515,1.693-0.977c0.715-0.779,0.449-2.127-0.512-2.651
		c-0.867-0.473-1.822-0.802-2.766-1.112c-1.351-0.445-2.75-0.746-4.085-1.229c-3.397-1.23-4.714-3.131-4.618-6.511
		c0.083-2.939,1.972-5.395,5.057-6.237C186.928,146.287,190.796,147.28,194.38,149.923z"/>
	<path fill-rule="evenodd" fill="#FFFFFF" d="M211.409,113.871c-0.906,1.309-1.769,2.556-2.519,3.64
		c-1.632-0.668-3.133-1.421-4.718-1.877c-0.887-0.255-1.931-0.119-2.873,0.03c-0.833,0.131-1.428,0.711-1.521,1.633
		c-0.097,0.949,0.232,1.625,1.218,2.011c1.296,0.508,2.654,0.851,3.975,1.298c1.202,0.408,2.425,0.782,3.574,1.311
		c2.135,0.982,3.421,2.629,3.545,5.052c0.138,2.69-0.71,4.919-3.067,6.411c-1.452,0.919-3.067,1.284-4.768,1.355
		c-3.609,0.151-6.853-0.857-9.732-3.034c-0.256-0.193-0.491-0.412-0.791-0.665c1.008-1.205,1.98-2.368,3.012-3.601
		c0.279,0.207,0.532,0.393,0.783,0.579c1.944,1.438,4.077,2.343,6.541,2.183c0.633-0.041,1.305-0.187,1.866-0.467
		c1.419-0.708,1.488-2.538,0.112-3.32c-0.792-0.45-1.691-0.731-2.565-1.018c-1.564-0.514-3.174-0.901-4.714-1.476
		c-2.623-0.977-4.07-2.84-4.097-5.733c-0.026-2.987,1.257-5.161,3.953-6.407c2.727-1.26,5.552-1.052,8.358-0.259
		C208.584,111.971,210.032,112.747,211.409,113.871z"/>
	<path fill-rule="evenodd" fill="#FFFFFF" d="M79.088,114.486c-1.046,1.206-2.103,2.425-3.206,3.696
		c-2.028-1.838-4.267-2.969-7.04-2.527c-1.542,0.246-2.817,0.988-3.827,2.174c-2.383,2.797-2.349,7.351,0.069,10.084
		c0.941,1.063,2.099,1.763,3.498,2.037c1.353,0.264,2.729,0.265,3.977-0.311c1.23-0.568,2.361-1.353,3.528-2.039
		c0.972,0.96,2.032,2.006,3.097,3.058c-1.72,3.094-7.454,4.921-12.201,3.868c-4.945-1.097-8.645-5.382-9.059-10.493
		c-0.452-5.568,2.503-10.466,7.458-12.36C70.15,109.851,76.494,111.127,79.088,114.486z"/>
	<path fill-rule="evenodd" fill="#FFFFFF" d="M157.391,115.968c-2.389,0-4.676,0-7.017,0c0-1.589,0-3.098,0-4.661
		c6.375,0,12.73,0,19.143,0c0,1.535,0,3.041,0,4.63c-2.329,0-4.617,0-7.004,0c0,6.188,0,12.294,0,18.441c-1.739,0-3.379,0-5.122,0
		C157.391,128.261,157.391,122.155,157.391,115.968z"/>
	<path fill-rule="evenodd" fill="#FFFFFF" d="M76.824,75.188c1.699,0,3.336,0,5.065,0c0,6.17,0,12.3,0,18.508
		c3.876,0,7.662,0,11.499,0c0,1.564,0,3.051,0,4.601c-5.504,0-11.008,0-16.564,0C76.824,90.602,76.824,82.923,76.824,75.188z"/>
	<path fill-rule="evenodd" fill="#FFFFFF" d="M106.311,214.708c-6.377-0.004-11.519-5.17-11.509-11.564
		c0.01-6.319,5.16-11.578,11.501-11.516c6.901,0.069,11.539,5.538,11.554,11.547C117.874,209.549,112.69,214.712,106.311,214.708z
		 M114.776,203.239c0.023-4.617-3.708-8.486-8.207-8.508c-4.87-0.022-8.67,3.641-8.705,8.393c-0.034,4.652,3.73,8.487,8.365,8.521
		C110.936,211.679,114.752,207.925,114.776,203.239z"/>
	<path fill-rule="evenodd" fill="#FFFFFF" d="M170.124,211.046c-2.597-0.021-4.687-2.152-4.666-4.761
		c0.021-2.596,2.161-4.693,4.763-4.669c2.597,0.024,4.688,2.163,4.664,4.769C174.86,208.988,172.737,211.066,170.124,211.046z
		 M170.188,207.952c0.905-0.008,1.613-0.718,1.613-1.619c0.001-0.933-0.744-1.654-1.681-1.628c-0.904,0.025-1.581,0.743-1.566,1.66
		C168.569,207.278,169.27,207.959,170.188,207.952z"/>
	<path fill-rule="evenodd" fill="#FFFFFF" d="M169.369,196.873c0.012,2.616-2.069,4.722-4.683,4.735
		c-2.609,0.014-4.736-2.084-4.751-4.685c-0.015-2.59,2.108-4.736,4.697-4.749C167.231,192.161,169.357,194.269,169.369,196.873z
		 M164.662,195.277c-0.907,0-1.613,0.687-1.631,1.585c-0.018,0.926,0.712,1.683,1.624,1.685c0.883,0.003,1.672-0.802,1.651-1.682
		C166.285,195.98,165.556,195.277,164.662,195.277z"/>
	<path fill-rule="evenodd" fill="#FFFFFF" d="M163.81,206.636c-0.005,2.6-2.123,4.707-4.721,4.698
		c-2.596-0.009-4.709-2.137-4.703-4.734c0.007-2.599,2.129-4.704,4.736-4.697C161.726,201.91,163.816,204.019,163.81,206.636z
		 M159.118,208.232c0.901-0.005,1.615-0.721,1.614-1.618c-0.001-0.899-0.718-1.627-1.609-1.636c-0.925-0.01-1.664,0.739-1.647,1.669
		C157.491,207.552,158.201,208.237,159.118,208.232z"/>
	<path fill-rule="evenodd" d="M241.167,130.408c-2-0.586-3.801-1.193-5.643-1.621c-0.998-0.231-0.754-0.914-0.878-1.526
		c-0.13-0.645,0.329-0.738,0.746-0.902c2.718-1.068,5.435-2.141,8.153-3.209c0.228-0.089,0.464-0.155,0.783-0.261
		c0.042,0.584,0.054,1.102,0.123,1.611c0.065,0.481-0.109,0.715-0.569,0.873c-1.632,0.557-3.25,1.152-4.872,1.735
		c-0.254,0.091-0.505,0.191-0.967,0.367c0.443,0.144,0.688,0.234,0.938,0.303c1.686,0.467,3.362,0.972,5.063,1.375
		c0.738,0.176,0.673,0.661,0.713,1.177c0.039,0.517,0.048,0.91-0.613,1.142c-1.901,0.666-3.769,1.432-5.869,2.244
		c1.585,0.411,2.956,0.768,4.328,1.122c0.604,0.156,1.202,0.335,1.813,0.447c0.434,0.08,0.576,0.293,0.575,0.711
		c-0.002,0.519,0.049,1.037,0.081,1.643c-0.294-0.056-0.506-0.08-0.708-0.138c-2.899-0.831-5.787-1.704-8.7-2.478
		c-0.96-0.255-0.548-0.957-0.698-1.481c-0.145-0.501,0.154-0.687,0.58-0.851c1.584-0.609,3.153-1.253,4.728-1.887
		C240.52,130.705,240.758,130.589,241.167,130.408z"/>
	<path fill-rule="evenodd" d="M130.67,25.874c0.267,3.191,0.534,6.371,0.808,9.65c-0.726,0.069-1.379,0.131-2.122,0.202
		c-0.18-2.059-0.353-4.035-0.526-6.011c-0.058-0.021-0.117-0.042-0.175-0.063c-0.729,1.338-1.458,2.675-2.255,4.14
		c-1.015-1.286-1.959-2.484-2.905-3.682c-0.048,0.019-0.096,0.038-0.145,0.057c0.095,1.225,0.188,2.45,0.285,3.675
		c0.039,0.498,0.032,1.006,0.136,1.491c0.165,0.768-0.173,0.978-0.862,0.948c-0.367-0.017-0.737,0.035-1.184,0.061
		c-0.277-3.271-0.547-6.469-0.824-9.737c0.687-0.066,1.328-0.172,1.967-0.165c0.237,0.003,0.535,0.222,0.695,0.428
		c0.842,1.082,1.649,2.191,2.566,3.423c0.333-0.645,0.611-1.185,0.889-1.725c0.183-0.356,0.428-0.694,0.534-1.072
		C128,25.906,129.151,25.659,130.67,25.874z"/>
	<path fill-rule="evenodd" d="M29.001,164.499c-0.141-0.604-0.307-1.128-0.367-1.664c-0.025-0.225,0.124-0.517,0.279-0.707
		c1.408-1.717,2.834-3.418,4.193-5.301c-1.842,0.412-3.684,0.823-5.591,1.25c-0.16-0.699-0.304-1.324-0.472-2.057
		c3.198-0.735,6.343-1.459,9.469-2.178c0.491,1.062,0.54,1.884-0.298,2.78c-1.429,1.527-2.703,3.199-4.178,4.973
		c2.105-0.478,4.01-0.91,6.028-1.368c0.159,0.681,0.309,1.324,0.483,2.07C35.36,163.032,32.215,163.757,29.001,164.499z"/>
	<path fill-rule="evenodd" d="M181.757,36.115c-1.295,3.059-2.545,6.01-3.789,8.946c-1.186-0.216-1.885-0.717-2.111-1.976
		c-0.332-1.837-0.9-3.632-1.37-5.444c-0.042-0.163-0.103-0.321-0.224-0.697c-0.834,1.969-1.591,3.758-2.384,5.632
		c-0.686-0.291-1.291-0.548-1.958-0.831c1.268-3.012,2.505-5.951,3.735-8.875c1.305,0.09,1.871,0.549,2.17,1.705
		c0.485,1.883,0.976,3.766,1.465,5.648c0.028,0.11,0.069,0.218,0.168,0.521c0.805-1.884,1.532-3.589,2.326-5.45
		C180.411,35.554,181.031,35.813,181.757,36.115z"/>
	<path fill-rule="evenodd" d="M239.044,143.716c2.89-0.005,5.12,2.223,5.128,5.123c0.008,2.98-2.197,5.311-5.035,5.32
		c-2.868,0.009-5.115-2.244-5.123-5.136C234.006,146.025,236.191,143.721,239.044,143.716z M239.066,145.966
		c-1.688-0.011-3.034,1.28-3.07,2.943c-0.036,1.618,1.373,2.968,3.118,2.988c1.678,0.02,3.039-1.291,3.063-2.949
		C242.201,147.303,240.818,145.978,239.066,145.966z"/>
	<path fill-rule="evenodd" d="M241.684,162.151c-0.487,1.664-0.898,3.252-1.422,4.802c-0.531,1.57-1.749,2.422-3.114,2.329
		c-1.725-0.118-2.768-1.011-3.193-2.73c-0.012-0.047-0.042-0.089-0.116-0.237c-1.238,0.406-2.495,0.819-3.915,1.285
		c0.232-0.824,0.401-1.515,0.634-2.183c0.059-0.167,0.304-0.313,0.495-0.383c0.631-0.229,1.263-0.5,1.918-0.607
		c1.146-0.189,1.535-0.914,1.608-2.038c-0.94-0.283-1.901-0.572-2.92-0.878c0.2-0.708,0.38-1.345,0.582-2.063
		C235.422,160.358,238.521,161.245,241.684,162.151z M236.449,162.913c-0.23,0.987-0.504,1.865-0.624,2.763
		c-0.095,0.709,0.368,1.141,1.049,1.332c0.657,0.185,1.19-0.068,1.437-0.627c0.37-0.845,0.601-1.75,0.907-2.679
		C238.248,163.425,237.419,163.189,236.449,162.913z"/>
	<path fill-rule="evenodd" d="M226.264,87.628c-0.894,0.446-1.78,0.889-2.718,1.357c-0.325-0.634-0.629-1.227-0.984-1.921
		c2.907-1.469,5.786-2.923,8.826-4.459c0.825,1.824,1.733,3.545,2.38,5.359c0.435,1.219-0.047,2.375-1.161,3.142
		c-1.16,0.799-2.377,0.997-3.641,0.218c-0.147-0.091-0.287-0.196-0.531-0.364c-0.657,1.187-1.304,2.352-2.03,3.663
		c-0.391-0.763-0.74-1.402-1.04-2.065c-0.063-0.14,0.021-0.385,0.106-0.546c0.313-0.595,0.592-1.225,1.001-1.75
		C227.201,89.329,227.066,88.507,226.264,87.628z M228.043,86.723c0.443,0.832,0.796,1.602,1.247,2.309
		c0.426,0.666,1.101,0.794,1.757,0.451c0.634-0.332,0.914-0.922,0.64-1.638c-0.309-0.802-0.728-1.562-1.122-2.392
		C229.699,85.888,228.929,86.276,228.043,86.723z"/>
	<path fill-rule="evenodd" d="M75.896,52.659c-0.012,2.808-2.537,5.263-5.388,5.237c-2.719-0.024-4.972-2.321-4.971-5.067
		c0.001-2.825,2.49-5.28,5.35-5.275C73.621,47.558,75.908,49.889,75.896,52.659z M67.685,52.574
		c-0.004,1.686,1.487,3.199,3.146,3.19c1.555-0.008,2.879-1.304,2.912-2.85c0.035-1.668-1.452-3.211-3.11-3.229
		C69.052,49.669,67.688,51.005,67.685,52.574z"/>
	<path fill-rule="evenodd" d="M64.152,207.871c2.867,0.012,5.321,2.477,5.293,5.316c-0.026,2.736-2.3,4.973-5.056,4.973
		c-2.89,0-5.326-2.421-5.315-5.282C59.085,210.093,61.35,207.86,64.152,207.871z M64.354,209.986
		c-1.657,0.005-3.152,1.522-3.134,3.183c0.017,1.562,1.388,2.919,2.937,2.906c1.654-0.013,3.143-1.538,3.129-3.206
		C67.272,211.285,65.946,209.981,64.354,209.986z"/>
	<path fill-rule="evenodd" d="M212.75,203.908c-1.369-0.145-2.649-0.279-4.151-0.438c0.585-0.682,1.044-1.249,1.545-1.774
		c0.104-0.109,0.371-0.103,0.558-0.087c0.672,0.059,1.361,0.065,2.007,0.235c1.099,0.288,1.759-0.174,2.275-1.22
		c-0.723-0.615-1.49-1.27-2.313-1.971c0.455-0.542,0.884-1.053,1.386-1.651c2.505,2.106,4.977,4.185,7.523,6.327
		c-1.216,1.392-2.319,2.782-3.562,4.036c-1.063,1.073-2.396,1.19-3.575,0.547c-1.354-0.738-1.961-1.908-1.767-3.406
		C212.698,204.335,212.718,204.166,212.75,203.908z M216.506,201.899c-0.596,0.748-1.167,1.378-1.636,2.077
		c-0.425,0.635-0.276,1.287,0.267,1.747c0.557,0.471,1.203,0.512,1.76-0.021c0.622-0.596,1.157-1.283,1.779-1.985
		C217.93,203.091,217.267,202.537,216.506,201.899z"/>
	<path fill-rule="evenodd" d="M51.957,207.546c-1.135-1.469-2.304-2.835-3.301-4.316c-0.837-1.242-0.67-2.579,0.203-3.608
		c1.002-1.183,2.33-1.537,3.769-1.008c0.114,0.042,0.229,0.083,0.446,0.161c0.396-1.3,0.782-2.569,1.215-3.993
		c0.536,0.664,0.995,1.182,1.386,1.747c0.112,0.161,0.087,0.471,0.03,0.688c-0.17,0.65-0.311,1.326-0.604,1.923
		c-0.511,1.038-0.104,1.746,0.77,2.456c0.75-0.598,1.537-1.226,2.383-1.901c0.458,0.563,0.877,1.077,1.361,1.671
		C57.063,203.423,54.553,205.451,51.957,207.546z M54.334,202.843c-0.605-0.711-1.127-1.41-1.74-2.019
		c-0.534-0.53-1.221-0.503-1.765-0.049c-0.559,0.469-0.697,1.076-0.32,1.672c0.472,0.746,1.054,1.421,1.623,2.173
		C52.908,203.994,53.582,203.451,54.334,202.843z"/>
	<path fill-rule="evenodd" d="M43.16,75.27c0.874-1.204,1.651-2.37,2.523-3.459c1.737-2.17,4.525-2.595,6.683-1.077
		c2.172,1.529,2.746,4.28,1.306,6.646c-0.738,1.212-1.617,2.337-2.507,3.608C48.493,79.079,45.865,77.202,43.16,75.27z
		 M46.014,74.64c1.631,1.165,3.202,2.286,4.817,3.438c0.427-0.616,0.831-1.125,1.155-1.68c0.786-1.345,0.435-2.828-0.852-3.76
		c-1.31-0.948-2.792-0.847-3.839,0.312C46.847,73.447,46.481,74.018,46.014,74.64z"/>
	<path fill-rule="evenodd" d="M188.939,39.73c1.502,1.026,3.049,1.875,4.34,3.013c1.76,1.55,1.955,4.053,0.727,6.005
		c-1.24,1.972-3.501,2.761-5.743,1.993c-0.329-0.112-0.66-0.242-0.957-0.419c-1.155-0.688-2.297-1.397-3.543-2.16
		C185.477,45.369,187.165,42.62,188.939,39.73z M186.623,47.635c0.69,0.403,1.269,0.803,1.897,1.094
		c1.257,0.582,2.556,0.203,3.382-0.923c0.916-1.248,0.954-2.7-0.044-3.697c-0.599-0.599-1.376-1.02-2.115-1.552
		C188.668,44.305,187.677,45.919,186.623,47.635z"/>
	<path fill-rule="evenodd" d="M39.324,187.01c0.618,0.1,1.249,0.202,1.935,0.313c0,0.413-0.017,0.784,0.003,1.152
		c0.082,1.55,1.146,2.692,2.66,2.875c1.379,0.165,2.945-0.854,3.392-2.21c0.414-1.254-0.257-3.032-1.499-3.576
		c-0.369-0.161-0.955,0.171-1.59,0.31c0.28,0.499,0.445,0.795,0.612,1.091c0.158,0.28,0.318,0.561,0.527,0.929
		c-0.522,0.313-1.02,0.61-1.595,0.953c-0.731-1.24-1.422-2.412-2.16-3.662c1.191-0.702,2.321-1.376,3.464-2.028
		c0.127-0.073,0.346-0.066,0.491-0.014c2.596,0.955,4.604,3.882,3.802,6.742c-0.931,3.318-5.103,4.749-7.89,2.726
		C39.735,191.345,38.736,188.817,39.324,187.01z"/>
	<path fill-rule="evenodd" d="M97.117,33.709c-0.218,0.711-0.406,1.324-0.569,1.854c-0.733,0-1.387-0.085-2.01,0.019
		c-1.17,0.194-2.014,0.848-2.33,2.05c-0.338,1.285,0.043,2.386,0.974,3.272c0.878,0.835,1.932,0.987,3.06,0.531
		c0.23-0.093,0.457-0.205,0.667-0.336c1.087-0.685,1.154-1.042,0.388-2.209c-0.601,0.239-1.218,0.485-1.913,0.762
		c-0.238-0.563-0.457-1.081-0.721-1.704c1.307-0.545,2.562-1.069,3.92-1.637c0.537,1.281,1.063,2.51,1.556,3.753
		c0.058,0.146-0.033,0.394-0.128,0.549c-1.233,2-3.008,3.126-5.381,3.095c-2.188-0.029-3.938-1.494-4.574-3.672
		c-0.619-2.122,0.174-4.368,2.042-5.577C93.606,33.481,95.242,33.119,97.117,33.709z"/>
	<path fill-rule="evenodd" d="M35.523,125.168c-3.286-0.456-6.462-0.896-9.725-1.349c0.341-2.462,0.672-4.846,1.015-7.319
		c0.635,0.079,1.195,0.147,1.89,0.233c-0.228,1.723-0.45,3.41-0.685,5.19c0.648,0.104,1.25,0.2,1.927,0.308
		c0.225-1.535,0.444-3.028,0.672-4.581c0.639,0.089,1.22,0.17,1.881,0.262c-0.203,1.541-0.398,3.031-0.602,4.579
		c0.695,0.091,1.301,0.171,2.003,0.264c0.254-1.761,0.499-3.454,0.755-5.232c0.616,0.077,1.197,0.149,1.89,0.235
		C36.206,120.215,35.875,122.624,35.523,125.168z"/>
	<path fill-rule="evenodd" d="M53.224,62.273c1.714-1.797,3.381-3.544,5.137-5.384c0.43,0.514,0.824,0.985,1.241,1.483
		c-1.09,1.149-2.257,2.38-3.458,3.646c0.447,0.448,0.878,0.881,1.246,1.251c1.14-1.043,2.252-2.061,3.412-3.121
		c0.412,0.395,0.854,0.817,1.313,1.256c-1.071,1.13-2.099,2.216-3.171,3.348c0.493,0.472,0.957,0.915,1.315,1.258
		c1.338-1.186,2.643-2.341,3.992-3.536c0.321,0.305,0.749,0.712,1.234,1.175c-1.73,1.808-3.416,3.569-5.167,5.398
		C57.951,66.789,55.614,64.556,53.224,62.273z"/>
	<path fill-rule="evenodd" d="M217.588,192.167c1.351-2.144,2.647-4.204,3.982-6.323c2.79,1.753,5.511,3.461,8.308,5.219
		c-1.314,2.092-2.597,4.135-3.938,6.271c-0.549-0.344-1.062-0.666-1.632-1.023c0.936-1.493,1.832-2.925,2.786-4.449
		c-0.534-0.34-1.05-0.668-1.654-1.052c-0.823,1.292-1.636,2.565-2.483,3.895c-0.538-0.338-1.054-0.662-1.62-1.018
		c0.822-1.314,1.611-2.577,2.44-3.905c-0.584-0.371-1.122-0.713-1.717-1.092c-0.946,1.497-1.862,2.947-2.829,4.477
		C218.685,192.834,218.185,192.531,217.588,192.167z"/>
	<path fill-rule="evenodd" d="M138.62,25.825c0.26,0,0.431-0.009,0.6,0.001c2.215,0.142,4.43,0.287,6.749,0.437
		c-0.037,0.655-0.071,1.257-0.108,1.905c-1.765-0.104-3.427-0.203-5.194-0.308c-0.053,0.665-0.102,1.269-0.155,1.946
		c1.551,0.112,3.029,0.218,4.576,0.33c-0.031,0.662-0.06,1.246-0.09,1.892c-1.576-0.087-3.059-0.168-4.478-0.247
		c-0.079,0.108-0.104,0.126-0.106,0.146c-0.162,2.25-0.519,1.859,1.617,1.981c1.144,0.066,2.284,0.159,3.505,0.246
		c-0.037,0.649-0.069,1.233-0.107,1.901c-2.505-0.156-4.915-0.306-7.43-0.461C138.206,32.33,138.409,29.129,138.62,25.825z"/>
	<path fill-rule="evenodd" d="M236.808,177.024c-0.305,0.683-0.574,1.288-0.878,1.97c-1.26-0.559-2.474-1.097-3.867-1.715
		c0.31,0.757,0.547,1.348,0.792,1.936c0.27,0.646,0.453,1.351,0.838,1.919c0.93,1.371,0.229,2.478-0.486,3.798
		c-0.294-0.715-0.535-1.297-0.771-1.881c-0.376-0.927-0.767-1.848-1.112-2.785c-0.166-0.449-0.339-0.605-0.869-0.476
		c-1.79,0.439-3.6,0.802-5.402,1.189c-0.236,0.051-0.479,0.074-0.81,0.123c0.325-0.723,0.575-1.376,0.913-1.98
		c0.12-0.216,0.435-0.393,0.691-0.452c1.455-0.334,2.919-0.628,4.407-0.941c-0.195-0.952-0.521-1.687-1.515-1.975
		c-0.566-0.164-1.089-0.482-1.742-0.781c0.297-0.655,0.577-1.273,0.888-1.959C230.883,174.361,233.81,175.676,236.808,177.024z"/>
	<path fill-rule="evenodd" d="M27.154,139.131c-1.941,0.272-1.939,0.272-1.932-1.481c0.01-2.048,0.015-4.097,0.025-6.145
		c0-0.046,0.029-0.093,0.065-0.203c0.786-0.117,1.516-0.196,2.236,0.46c1.77,1.613,3.613,3.146,5.552,4.82c0-1.831,0-3.526,0-5.281
		c0.681,0,1.265,0,1.935,0c0.012,0.26,0.035,0.525,0.034,0.79c-0.003,2.049,0.002,4.097-0.028,6.146
		c-0.006,0.385-0.158,1.097-0.248,1.098c-0.592,0.005-1.336,0.051-1.752-0.274c-1.67-1.307-3.238-2.743-4.845-4.131
		c-0.297-0.257-0.598-0.509-1.042-0.888C27.154,135.844,27.154,137.47,27.154,139.131z"/>
	<path fill-rule="evenodd" d="M202.576,48.922c0.558,0.472,1.066,0.901,1.631,1.377c-0.965,1.149-1.893,2.253-2.82,3.358
		c-0.289,0.345-0.589,0.682-0.861,1.04c-0.87,1.145-0.801,2.23,0.182,3.05c0.998,0.833,2.066,0.725,3.025-0.358
		c0.878-0.992,1.716-2.019,2.571-3.031c0.354-0.419,0.709-0.837,1.133-1.336c0.547,0.459,1.068,0.898,1.699,1.428
		c-1.543,1.733-2.931,3.514-4.551,5.05c-1.549,1.468-3.51,1.236-5.265-0.309c-1.76-1.551-2.158-3.388-0.923-5.191
		c0.957-1.396,2.126-2.647,3.206-3.959C201.901,49.68,202.218,49.333,202.576,48.922z"/>
	<path fill-rule="evenodd" d="M105.962,39.629c0.244-1.558,0.483-3.125,0.734-4.689c0.276-1.722,0.59-3.438,0.828-5.164
		c0.068-0.495,0.278-0.699,0.721-0.775c0.196-0.034,0.395-0.074,0.579-0.145c0.512-0.195,0.848-0.069,1.19,0.396
		c1.817,2.474,3.674,4.918,5.515,7.375c0.132,0.175,0.25,0.361,0.448,0.646c-0.668,0.168-1.255,0.359-1.856,0.441
		c-0.193,0.026-0.537-0.185-0.623-0.374c-0.626-1.372-1.608-1.546-2.9-1.004c-0.5,0.21-1.055,0.308-1.595,0.398
		c-0.486,0.081-0.64,0.352-0.7,0.804c-0.248,1.859-0.258,1.857-2.121,2.145C106.139,39.69,106.09,39.662,105.962,39.629z
		 M109.357,31.683c-0.062,0.007-0.124,0.015-0.186,0.022c-0.146,1.015-0.291,2.03-0.45,3.142c0.883-0.223,1.62-0.408,2.484-0.626
		C110.542,33.31,109.95,32.496,109.357,31.683z"/>
	<path fill-rule="evenodd" d="M40.203,167.846c0.23,0.574,0.4,1.068,0.626,1.536c0.184,0.381,0.147,0.684-0.208,0.901
		c-1.27,0.777-1.384,1.779-0.617,2.975c0.066,0.103,0.114,0.227,0.136,0.347c0.259,1.435,1.055,2.063,2.541,1.795
		c0.205-0.037,0.57,0.231,0.693,0.451c0.262,0.466,0.413,0.994,0.63,1.551c-0.266,0.017-0.434,0.04-0.602,0.036
		c-3.168-0.079-6.335-0.182-9.504-0.223c-0.625-0.008-0.764-0.365-0.885-0.794c-0.136-0.478-0.632-0.905-0.044-1.477
		c2.326-2.261,4.613-4.563,6.916-6.848C39.955,168.029,40.039,167.975,40.203,167.846z M37.875,173.09
		c-0.745,0.837-1.415,1.59-1.971,2.215c0.759,0,1.758,0,2.861,0C38.45,174.521,38.168,173.82,37.875,173.09z"/>
	<path fill-rule="evenodd" d="M207.928,64.879c0.594-0.03,1.202-0.061,1.74-0.088c0.261,0.804,0.426,1.562,0.754,2.241
		c0.217,0.449,0.614,0.862,1.031,1.144c0.24,0.163,0.778,0.162,1.001-0.006c0.213-0.16,0.313-0.661,0.243-0.961
		c-0.122-0.524-0.413-1.009-0.632-1.511c-0.199-0.456-0.428-0.903-0.589-1.372c-0.354-1.029-0.21-1.96,0.604-2.748
		c0.851-0.823,1.84-1.074,2.958-0.704c1.56,0.516,3.076,2.579,3.117,4.247c0.005,0.165-0.208,0.444-0.366,0.483
		c-0.453,0.114-0.931,0.131-1.464,0.194c-0.092-0.352-0.122-0.71-0.275-1.005c-0.315-0.609-0.633-1.241-1.08-1.749
		c-0.186-0.21-0.807-0.286-1.043-0.133c-0.23,0.148-0.334,0.68-0.292,1.018c0.051,0.403,0.318,0.777,0.487,1.166
		c0.25,0.571,0.536,1.13,0.734,1.719c0.356,1.063,0.167,2.017-0.698,2.794c-0.901,0.811-1.92,1.035-3.054,0.6
		C209.258,69.499,207.735,66.979,207.928,64.879z"/>
	<path fill-rule="evenodd" d="M206.062,209.875c-0.997,0.436-1.89,0.783-2.738,1.218c-0.285,0.146-0.539,0.479-0.658,0.784
		c-0.1,0.259-0.096,0.7,0.065,0.88c0.184,0.206,0.647,0.367,0.892,0.278c0.934-0.341,1.813-0.824,2.739-1.191
		c1.301-0.517,2.242-0.292,3.116,0.683c0.843,0.94,1,2.035,0.444,3.127c-0.913,1.791-2.487,2.633-4.536,2.875
		c-0.088-0.669-0.167-1.272-0.248-1.888c0.551-0.167,1.069-0.232,1.487-0.474c0.523-0.302,1.004-0.71,1.417-1.152
		c0.14-0.149,0.126-0.627-0.013-0.802c-0.161-0.206-0.553-0.368-0.812-0.33c-0.432,0.063-0.841,0.293-1.252,0.469
		c-0.643,0.272-1.263,0.606-1.922,0.828c-0.973,0.326-1.87,0.164-2.622-0.594c-0.805-0.811-1.135-1.767-0.818-2.874
		c0.569-1.989,3.059-3.511,5.026-3.528c0.143-0.002,0.392,0.271,0.412,0.439C206.099,209.087,206.062,209.563,206.062,209.875z"/>
	<path fill-rule="evenodd" d="M35.257,89.478c2.506,2.433,4.923,4.777,7.333,7.127c0.1,0.097,0.197,0.247,0.205,0.377
		c0.052,0.853-0.75,1.655-1.613,1.649c-2.92-0.021-5.839-0.038-8.759-0.057c-0.246-0.001-0.492,0-0.895,0
		c0.294-0.723,0.507-1.354,0.817-1.934c0.085-0.159,0.461-0.231,0.702-0.227c1.896,0.039,3.792,0.106,5.687,0.162
		c0.243,0.007,0.485,0.001,0.892,0.001c-0.236-0.263-0.362-0.427-0.512-0.565c-1.411-1.305-2.812-2.62-4.248-3.896
		c-0.406-0.36-0.492-0.67-0.241-1.146C34.856,90.535,35.014,90.062,35.257,89.478z"/>
	<path fill-rule="evenodd" d="M230.04,104.258c-0.235-0.683-0.453-1.312-0.701-2.028c0.926-0.325,1.798-0.679,2.699-0.931
		c0.69-0.193,1.172-0.577,1.602-1.132c1.192-1.536,2.426-3.039,3.733-4.667c0.28,0.8,0.551,1.479,0.739,2.179
		c0.046,0.173-0.138,0.451-0.282,0.625c-0.81,0.979-1.64,1.941-2.57,3.036c1.141,0.25,2.158,0.542,3.195,0.681
		c0.995,0.134,1.579,0.569,1.719,1.584c0.039,0.288,0.182,0.563,0.324,0.981c-0.318-0.052-0.546-0.075-0.766-0.127
		c-1.792-0.429-3.58-0.882-5.379-1.282c-0.389-0.086-0.843-0.065-1.226,0.046C232.105,103.521,231.106,103.895,230.04,104.258z"/>
	<path fill-rule="evenodd" d="M221.467,71.011c0.563-0.389,1.069-0.738,1.632-1.127c1.548,2.232,3.063,4.418,4.624,6.67
		c-0.546,0.388-1.063,0.755-1.624,1.153c-0.579-0.824-1.134-1.613-1.718-2.443c-2.149,1.485-4.253,2.938-6.419,4.433
		c-0.415-0.601-0.794-1.148-1.228-1.775c2.133-1.481,4.23-2.939,6.401-4.447C222.576,72.647,222.041,71.857,221.467,71.011z"/>
	<path fill-rule="evenodd" d="M164.493,29.788c0.728,0.214,1.362,0.401,2.065,0.608c-0.908,3.143-1.799,6.221-2.714,9.388
		c-0.609-0.168-1.193-0.284-1.73-0.51c-0.134-0.056-0.215-0.497-0.154-0.714c0.725-2.592,1.479-5.176,2.228-7.761
		C164.277,30.49,164.373,30.184,164.493,29.788z"/>
	<path fill-rule="evenodd" d="M25.989,148.592c-0.081-0.767-0.149-1.405-0.228-2.146c3.248-0.354,6.438-0.702,9.74-1.063
		c0.079,0.721,0.153,1.396,0.237,2.151C32.463,147.891,29.274,148.236,25.989,148.592z"/>
	<path fill-rule="evenodd" d="M39.33,81.727c2.811,1.545,5.519,3.033,8.227,4.524c0.105,0.058,0.194,0.145,0.336,0.254
		c-0.33,0.602-0.651,1.186-1.011,1.842c-2.865-1.576-5.692-3.131-8.593-4.727C38.644,82.975,38.963,82.395,39.33,81.727z"/>
	<path fill-rule="evenodd" d="M33.637,106.479c1.189,0.005,2.081,0.895,2.075,2.073c-0.006,1.157-0.946,2.103-2.084,2.097
		c-1.13-0.006-2.098-0.977-2.097-2.103C31.532,107.408,32.484,106.473,33.637,106.479z"/>
	<path fill-rule="evenodd" d="M239.86,114.252c0.007,1.175-0.907,2.098-2.079,2.1c-1.14,0.001-2.116-0.98-2.099-2.11
		c0.017-1.119,0.938-2.035,2.071-2.057C238.921,112.163,239.852,113.076,239.86,114.252z"/>
	<path fill-rule="evenodd" d="M154.464,30.37c1.173,0.04,2.068,0.993,2.026,2.158c-0.044,1.178-0.982,2.048-2.167,2.006
		c-1.174-0.042-2.033-0.992-1.978-2.184C152.399,31.213,153.342,30.332,154.464,30.37z"/>
	<path fill-rule="evenodd" d="M84.483,44.833c-0.015,1.157-0.984,2.104-2.121,2.072c-1.12-0.032-2.018-0.963-2.02-2.094
		c-0.001-1.188,0.898-2.089,2.082-2.084C83.601,42.731,84.499,43.649,84.483,44.833z"/>
	<path fill-rule="evenodd" d="M128.111,93.882c0-1.731,0-3.365,0-5.096c1.154,0,2.27-0.021,3.385,0.005
		c1.37,0.032,2.751,0.007,4.104,0.186c1.357,0.18,2.075,1.063,2.104,2.238c0.034,1.376-0.736,2.32-2.243,2.507
		c-1.208,0.149-2.439,0.131-3.661,0.155C130.605,93.9,129.409,93.882,128.111,93.882z"/>
	<path fill-rule="evenodd" d="M128.105,84.385c0-1.554,0-3.091,0-4.74c0.45,0,0.864-0.009,1.278,0.001
		c1.667,0.043,3.345-0.015,4.996,0.17c1.493,0.168,2.251,1.237,1.962,2.625c-0.113,0.546-0.556,1.076-0.973,1.487
		c-0.273,0.269-0.767,0.427-1.166,0.436C132.193,84.408,130.183,84.385,128.105,84.385z"/>
	<path fill-rule="evenodd" d="M151.167,86.695c0.007-3.846,2.54-6.796,6.165-7.178c3.649-0.385,6.775,1.943,7.6,5.66
		c1.041,4.692-2.346,8.976-7,8.856C154.078,93.935,151.159,90.768,151.167,86.695z"/>
	<path fill-rule="evenodd" d="M179.908,86.403c0-2.231,0-4.367,0-6.546c0.127-0.024,0.243-0.066,0.358-0.066
		c1.698-0.001,3.398-0.034,5.096,0.015c2.183,0.063,3.456,1.201,3.543,3.075c0.083,1.781-0.86,3.049-2.627,3.365
		c-0.852,0.152-1.737,0.136-2.608,0.152C182.429,86.42,181.188,86.403,179.908,86.403z"/>
	<path fill-rule="evenodd" d="M88.314,122.42c0-2.068-0.009-4.113,0.02-6.158c0.002-0.142,0.292-0.402,0.447-0.402
		c1.848,0.001,3.701-0.045,5.54,0.095c1.955,0.148,3.028,1.396,3.024,3.243c-0.003,1.761-1.119,3.068-3.008,3.193
		C92.379,122.521,90.405,122.42,88.314,122.42z"/>
	<path fill-rule="evenodd" d="M139.229,117.254c1.052,2.574,2.018,4.937,3.022,7.395c-2.061,0-4.007,0-6.058,0
		C137.197,122.206,138.172,119.828,139.229,117.254z"/>
	<path fill-rule="evenodd" d="M112.077,153.565c0.967,2.366,1.933,4.731,2.935,7.184c-2.067,0-3.997,0-6.059,0
		c0.997-2.441,1.964-4.808,2.931-7.174C111.949,153.572,112.013,153.568,112.077,153.565z"/>
	<path fill-rule="evenodd" d="M110.393,88.589c-2.061,0-3.999,0-6.074,0c0.5-1.237,0.976-2.427,1.46-3.613
		c0.491-1.199,0.991-2.395,1.574-3.803C108.402,83.732,109.381,86.12,110.393,88.589z"/>
	<path fill-rule="evenodd" d="M114.776,203.239c-0.024,4.687-3.84,8.44-8.547,8.406c-4.635-0.034-8.399-3.869-8.365-8.521
		c0.035-4.752,3.835-8.415,8.705-8.393C111.068,194.752,114.8,198.622,114.776,203.239z M104.678,204.729
		c0.016,0.287,0.041,0.55,0.042,0.813c0.004,0.85-0.033,1.7,0.007,2.548c0.041,0.865,0.677,1.464,1.489,1.487
		c0.847,0.024,1.512-0.57,1.599-1.459c0.029-0.296,0.002-0.599,0.002-0.898c0-0.813,0-1.626,0-2.502c0.396,0,0.667,0,0.938-0.001
		c0.75-0.002,1.5,0.023,2.249-0.014c1.002-0.049,1.636-0.646,1.652-1.491c0.017-0.881-0.623-1.493-1.661-1.561
		c-0.423-0.028-0.85-0.011-1.274-0.012c-0.613-0.001-1.225,0-1.925,0c0-1.198,0.048-2.271-0.015-3.337
		c-0.056-0.947-0.712-1.524-1.545-1.508c-0.797,0.015-1.395,0.59-1.481,1.5c-0.055,0.569-0.026,1.147-0.03,1.723
		c-0.003,0.515,0,1.03,0,1.611c-1.053,0-1.997,0.006-2.94-0.002c-1.168-0.009-1.903,0.572-1.916,1.529
		c-0.014,0.985,0.733,1.585,1.945,1.574C102.734,204.722,103.657,204.729,104.678,204.729z"/>
	<path fill-rule="evenodd" d="M170.188,207.952c-0.918,0.008-1.619-0.674-1.634-1.587c-0.015-0.917,0.662-1.635,1.566-1.66
		c0.937-0.026,1.682,0.695,1.681,1.628C171.801,207.234,171.093,207.944,170.188,207.952z"/>
	<path fill-rule="evenodd" d="M164.662,195.277c0.895,0,1.623,0.703,1.645,1.588c0.021,0.88-0.769,1.685-1.651,1.682
		c-0.912-0.002-1.642-0.759-1.624-1.685C163.048,195.963,163.754,195.277,164.662,195.277z"/>
	<path fill-rule="evenodd" d="M159.118,208.232c-0.917,0.005-1.627-0.68-1.643-1.585c-0.017-0.93,0.723-1.679,1.647-1.669
		c0.892,0.009,1.608,0.736,1.609,1.636C160.733,207.511,160.019,208.227,159.118,208.232z"/>
	<path fill-rule="evenodd" fill="#FFFFFF" d="M239.066,145.966c1.752,0.011,3.135,1.337,3.111,2.982
		c-0.024,1.659-1.386,2.969-3.063,2.949c-1.745-0.021-3.154-1.371-3.118-2.988C236.032,147.246,237.378,145.956,239.066,145.966z"/>
	<path fill-rule="evenodd" fill="#FFFFFF" d="M236.449,162.913c0.971,0.276,1.799,0.512,2.769,0.788
		c-0.307,0.929-0.537,1.834-0.907,2.679c-0.246,0.56-0.779,0.812-1.437,0.627c-0.681-0.191-1.144-0.622-1.049-1.332
		C235.945,164.777,236.218,163.899,236.449,162.913z"/>
	<path fill-rule="evenodd" fill="#FFFFFF" d="M228.043,86.723c0.886-0.447,1.655-0.834,2.521-1.271
		c0.395,0.83,0.813,1.59,1.122,2.392c0.274,0.716-0.006,1.307-0.64,1.638c-0.656,0.343-1.331,0.215-1.757-0.451
		C228.839,88.325,228.487,87.555,228.043,86.723z"/>
	<path fill-rule="evenodd" fill="#FFFFFF" d="M67.685,52.574c0.004-1.569,1.368-2.905,2.948-2.889
		c1.658,0.018,3.145,1.561,3.11,3.229c-0.032,1.545-1.357,2.842-2.912,2.85C69.172,55.773,67.681,54.26,67.685,52.574z"/>
	<path fill-rule="evenodd" fill="#FFFFFF" d="M64.354,209.986c1.592-0.005,2.918,1.299,2.931,2.883
		c0.014,1.668-1.475,3.193-3.129,3.206c-1.548,0.013-2.92-1.345-2.937-2.906C61.202,211.508,62.697,209.991,64.354,209.986z"/>
	<path fill-rule="evenodd" fill="#FFFFFF" d="M216.506,201.899c0.761,0.638,1.424,1.192,2.17,1.817
		c-0.622,0.702-1.157,1.39-1.779,1.985c-0.557,0.533-1.203,0.492-1.76,0.021c-0.543-0.46-0.691-1.112-0.267-1.747
		C215.339,203.277,215.911,202.647,216.506,201.899z"/>
	<path fill-rule="evenodd" fill="#FFFFFF" d="M54.334,202.843c-0.752,0.607-1.426,1.15-2.202,1.777
		c-0.569-0.752-1.151-1.427-1.623-2.173c-0.377-0.596-0.239-1.203,0.32-1.672c0.543-0.454,1.23-0.481,1.765,0.049
		C53.207,201.433,53.729,202.132,54.334,202.843z"/>
	<path fill-rule="evenodd" fill="#FFFFFF" d="M46.014,74.64c0.467-0.622,0.833-1.193,1.281-1.69c1.046-1.158,2.529-1.26,3.839-0.312
		c1.287,0.932,1.638,2.415,0.852,3.76c-0.324,0.555-0.728,1.064-1.155,1.68C49.216,76.926,47.646,75.805,46.014,74.64z"/>
	<path fill-rule="evenodd" fill="#FFFFFF" d="M186.623,47.635c1.055-1.716,2.046-3.33,3.12-5.078
		c0.739,0.532,1.517,0.953,2.115,1.552c0.998,0.998,0.96,2.45,0.044,3.697c-0.826,1.125-2.125,1.505-3.382,0.923
		C187.891,48.438,187.313,48.039,186.623,47.635z"/>
	<path fill-rule="evenodd" fill="#FFFFFF" d="M109.357,31.683c0.593,0.813,1.185,1.627,1.849,2.538
		c-0.864,0.218-1.601,0.403-2.484,0.626c0.159-1.112,0.304-2.127,0.45-3.142C109.233,31.697,109.295,31.69,109.357,31.683z"/>
	<path fill-rule="evenodd" fill="#FFFFFF" d="M37.875,173.09c0.293,0.73,0.575,1.432,0.89,2.215c-1.103,0-2.102,0-2.861,0
		C36.459,174.68,37.13,173.927,37.875,173.09z"/>
	<path fill-rule="evenodd" fill="#FFFFFF" d="M104.678,204.729c-1.021,0-1.944-0.007-2.867,0.001
		c-1.212,0.011-1.959-0.589-1.945-1.574c0.013-0.957,0.748-1.538,1.916-1.529c0.944,0.008,1.888,0.002,2.94,0.002
		c0-0.581-0.003-1.097,0-1.611c0.004-0.575-0.025-1.153,0.03-1.723c0.087-0.91,0.685-1.485,1.481-1.5
		c0.833-0.017,1.489,0.561,1.545,1.508c0.063,1.065,0.015,2.139,0.015,3.337c0.7,0,1.313-0.001,1.925,0
		c0.424,0.001,0.851-0.017,1.274,0.012c1.039,0.067,1.678,0.68,1.661,1.561c-0.016,0.846-0.65,1.442-1.652,1.491
		c-0.748,0.037-1.499,0.012-2.249,0.014c-0.271,0.001-0.542,0.001-0.938,0.001c0,0.876,0,1.688,0,2.502
		c0,0.3,0.027,0.603-0.002,0.898c-0.087,0.889-0.751,1.483-1.599,1.459c-0.812-0.023-1.449-0.622-1.489-1.487
		c-0.04-0.848-0.003-1.698-0.007-2.548C104.718,205.279,104.693,205.016,104.678,204.729z"/>
</g>
<g>
</g>
<g>
</g>
<g>
</g>
<g>
</g>
<g>
</g>
<g>
</g>
</svg>
