<?xml version="1.0" standalone="no"?>
<!DOCTYPE svg PUBLIC "-//W3C//DTD SVG 20010904//EN"
 "http://www.w3.org/TR/2001/REC-SVG-20010904/DTD/svg10.dtd">
<svg version="1.0" xmlns="http://www.w3.org/2000/svg"
 width="1892.000000pt" height="1892.000000pt" viewBox="0 0 1892.000000 1892.000000"
 preserveAspectRatio="xMidYMid meet">
<metadata>
Created by potrace 1.11, written by Peter Selinger 2001-2013
</metadata>
<g transform="translate(0.000000,1892.000000) scale(0.100000,-0.100000)"
fill="#000000" stroke="none">
<path d="M1960 13909 c-356 -43 -632 -224 -788 -518 -37 -69 -142 -338 -232
-596 -15 -44 -96 -267 -180 -495 -83 -228 -162 -453 -176 -499 -31 -106 -41
-236 -24 -316 27 -134 120 -261 231 -318 43 -21 59 -37 79 -74 60 -114 180
-198 350 -243 80 -22 108 -24 474 -28 527 -5 670 14 879 117 53 26 97 47 97
45 0 -2 -13 -40 -29 -84 l-30 -80 450 0 c351 0 451 3 454 13 5 15 117 323 188
517 l53 145 152 3 c84 1 152 -1 152 -5 0 -5 -34 -98 -75 -208 l-74 -200 175
-3 175 -2 -7 -23 c-3 -12 -24 -70 -44 -130 l-38 -107 770 2 771 3 118 325
c204 560 232 635 240 644 4 4 10 -27 14 -70 3 -44 8 -85 10 -91 3 -10 37 -13
125 -13 66 0 120 -2 120 -5 0 -6 -103 -285 -161 -437 -16 -43 -29 -82 -29 -88
0 -6 60 -10 170 -10 129 0 170 -3 170 -12 0 -7 -18 -62 -40 -121 -22 -60 -40
-113 -40 -118 0 -5 2165 -8 5681 -7 l5682 3 79 215 c43 118 110 300 148 404
39 104 70 190 70 192 0 2 -79 4 -175 4 -96 0 -175 3 -174 8 0 4 17 52 37 107
l37 100 102 3 102 3 22 57 c11 31 52 140 89 242 38 102 96 259 129 349 34 90
61 166 61 167 0 2 -79 4 -176 4 -137 0 -175 3 -172 13 3 6 15 42 27 79 l23 68
240 2 240 3 79 215 c44 118 109 296 146 395 36 99 68 186 70 193 4 9 -34 12
-171 12 -97 0 -176 2 -176 4 0 3 20 60 45 127 25 67 45 124 45 126 0 2 -2548
2 -5662 1 l-5662 -3 -233 -263 c-127 -145 -236 -263 -240 -263 -4 0 -17 65
-28 143 l-20 143 -112 3 -112 3 -6 32 c-3 18 -11 70 -18 117 l-13 85 -411 3
-411 2 -26 -67 c-24 -64 -206 -563 -257 -702 -31 -87 -33 -76 -49 257 l-13
272 -122 0 -122 0 -7 38 c-3 20 -6 67 -6 104 0 108 42 98 -404 98 l-391 -1
-285 -364 -285 -364 -13 71 c-25 134 -100 244 -214 311 -50 29 -73 51 -106
102 -73 111 -172 177 -323 216 -79 21 -110 22 -509 25 -234 1 -459 -2 -500 -7z
m896 -180 c104 -14 179 -44 230 -91 104 -96 115 -233 36 -462 l-38 -110 -49
-12 c-245 -59 -497 -115 -500 -112 -2 2 12 48 30 103 19 55 35 110 35 122 0
36 -20 68 -53 89 -30 18 -54 19 -317 19 -279 0 -286 -1 -338 -24 -58 -26 -106
-75 -133 -135 -10 -23 -115 -308 -233 -634 -233 -640 -241 -668 -194 -712 40
-37 87 -42 387 -38 399 4 384 -5 506 333 32 88 60 166 62 173 4 9 -36 12 -181
12 -102 0 -186 3 -186 8 0 4 30 91 67 194 l68 188 437 0 437 0 -28 -77 c-16
-43 -86 -235 -156 -428 -70 -192 -146 -387 -170 -431 -122 -233 -284 -355
-555 -421 -85 -20 -805 -31 -935 -14 -212 29 -317 106 -345 255 -15 83 -3 164
49 316 95 281 501 1381 531 1440 104 207 255 339 465 409 50 16 124 34 165 39
107 13 812 14 906 1z m1958 -71 c3 -46 27 -460 52 -920 l46 -836 -116 -318
c-64 -175 -118 -319 -120 -321 -1 -2 -115 -2 -252 -1 l-250 3 102 280 c92 255
101 285 97 333 l-6 52 -478 0 -478 0 -43 -55 c-36 -46 -60 -101 -144 -333
l-101 -277 -255 -3 -255 -2 59 162 c32 90 84 233 115 320 l57 156 171 219
c154 197 340 435 1000 1278 116 149 224 287 239 308 l28 37 263 0 263 0 6 -82z
m1511 -417 c39 -272 75 -496 80 -497 6 -2 205 222 443 497 l433 499 265 0
c159 0 264 -4 264 -9 0 -6 -115 -326 -256 -713 -141 -387 -292 -802 -336 -923
-44 -121 -106 -292 -138 -380 -32 -88 -82 -226 -112 -307 l-53 -148 -252 0
c-139 0 -253 4 -253 9 0 5 12 40 26 77 38 101 492 1347 519 1427 13 37 20 67
15 67 -5 0 -145 -163 -310 -362 -166 -200 -313 -375 -326 -390 l-24 -28 -149
0 c-102 0 -152 4 -157 11 -4 7 -24 180 -45 387 -21 206 -40 377 -44 380 -12
12 -26 -18 -81 -168 -78 -215 -192 -530 -275 -755 -38 -104 -107 -293 -153
-420 l-83 -230 -252 -3 c-138 -1 -251 0 -251 4 0 3 81 229 181 502 99 273 297
817 439 1207 142 391 263 722 269 738 l11 27 267 -2 268 -3 70 -494z m3375
494 c0 -3 -37 -107 -81 -230 l-82 -225 -608 0 c-569 0 -609 -1 -617 -17 -11
-20 -182 -488 -182 -497 0 -3 223 -6 495 -6 272 0 495 -1 495 -3 0 -6 -139
-384 -154 -422 l-15 -35 -497 -2 -497 -3 -59 -160 c-92 -251 -138 -382 -138
-394 0 -8 172 -11 605 -11 333 0 605 -3 605 -7 -1 -5 -38 -109 -84 -233 l-83
-225 -866 -3 -866 -2 39 107 c21 60 179 493 350 963 323 886 404 1107 472
1298 l41 112 863 0 c475 0 864 -2 864 -5z m8524 -92 c-20 -54 -56 -154 -81
-223 -24 -69 -48 -128 -52 -133 -4 -4 -1871 -6 -4148 -5 l-4142 3 75 205 c40
113 78 215 84 228 l10 22 4145 0 4145 0 -36 -97z m-458 -920 c-30 -82 -145
-399 -151 -415 -7 -17 -216 -18 -4191 -18 -3644 0 -4184 2 -4184 14 0 8 36
113 80 232 44 120 80 219 80 221 0 2 1885 3 4190 3 l4189 0 -13 -37z m-223
-1010 c2 -5 -33 -109 -79 -233 l-82 -225 -4147 -3 c-3947 -2 -4147 -1 -4140
15 4 10 20 54 35 98 15 44 49 136 74 205 26 69 49 131 51 138 3 9 841 12 4144
12 2277 0 4142 -3 4144 -7z"/>
<path d="M4035 12783 c-159 -207 -291 -380 -293 -385 -2 -4 141 -8 317 -8 177
0 321 3 321 8 0 4 -7 156 -15 337 -8 182 -15 351 -15 378 0 31 -4 47 -12 47
-7 0 -143 -170 -303 -377z"/>
<path d="M1095 10668 c-2 -7 -45 -130 -95 -273 -50 -143 -110 -316 -135 -385
-24 -69 -94 -269 -155 -445 -61 -176 -131 -376 -155 -445 -91 -256 -235 -671
-235 -675 0 -3 92 -5 205 -5 l204 0 -44 -126 c-25 -69 -45 -127 -45 -130 0 -2
1226 -4 2724 -4 l2725 0 19 53 c10 28 32 87 47 130 l28 77 83 0 c98 0 93 12
64 -140 -11 -58 -20 -108 -20 -112 0 -5 148 -8 328 -8 l329 0 66 97 67 97 0
-97 0 -97 321 2 322 3 78 145 c42 79 82 146 87 148 6 2 21 -22 35 -52 46 -99
155 -182 292 -222 50 -14 117 -18 398 -21 376 -5 509 6 629 52 15 6 17 3 12
-24 l-7 -31 384 2 383 3 45 128 45 127 103 0 c78 0 103 -3 103 -13 0 -7 -18
-62 -40 -123 -22 -60 -40 -112 -40 -117 0 -4 278 -6 618 -5 l617 3 45 128 44
127 133 0 c108 0 133 -3 133 -14 0 -8 -18 -65 -40 -126 -22 -61 -40 -114 -40
-116 0 -2 612 -4 1359 -4 l1359 0 26 73 c14 39 34 97 45 127 l18 55 106 3 c59
1 107 -1 107 -5 0 -4 -18 -57 -40 -116 -22 -60 -40 -115 -40 -123 0 -12 57
-14 379 -14 l380 0 21 57 c12 31 23 60 26 64 2 5 24 -5 48 -21 24 -16 63 -38
88 -49 97 -41 149 -46 493 -46 309 0 336 1 418 22 217 56 385 172 501 347 50
75 81 147 154 352 74 206 93 316 73 420 -13 73 -47 148 -80 178 -37 33 -26 43
77 65 53 13 117 28 142 35 l45 12 37 99 c110 302 56 518 -161 634 -52 28 -64
40 -86 85 -31 66 -117 149 -187 181 -123 56 -156 60 -513 60 -308 0 -335 -2
-412 -22 -123 -33 -226 -79 -310 -140 l-75 -54 -16 23 c-34 50 -100 103 -168
134 -142 66 -88 64 -1733 64 l-1486 -1 -150 -129 -150 -129 -57 -1 -58 0 45
127 c25 70 45 129 45 130 0 2 -172 3 -383 3 l-383 0 -19 -52 c-10 -29 -19 -54
-21 -56 -1 -2 -26 10 -56 27 -30 17 -90 41 -134 53 -76 21 -97 22 -650 26
l-571 3 -23 -60 c-12 -34 -24 -61 -26 -61 -1 0 -24 13 -51 30 -128 79 -240 93
-679 87 -321 -4 -382 -10 -467 -43 -15 -6 -17 -3 -11 20 l6 26 -369 0 -369 0
-16 -47 c-54 -163 -163 -458 -188 -510 l-30 -63 -75 0 c-47 0 -75 4 -75 11 0
6 25 80 55 165 30 85 55 162 55 169 0 13 -28 15 -170 15 -93 0 -170 3 -170 8
0 4 18 58 40 120 22 62 40 117 40 123 0 5 -1156 9 -3095 9 -2468 0 -3097 -3
-3100 -12z m5163 -260 c-16 -46 -44 -123 -62 -173 l-32 -90 -2524 -3 c-1388
-1 -2527 1 -2531 5 -5 6 57 186 113 326 7 16 137 17 2537 17 l2530 0 -31 -82z
m772 74 c0 -4 -31 -94 -70 -199 -65 -180 -74 -218 -151 -598 -44 -224 -78
-409 -75 -413 11 -10 29 15 221 308 103 157 191 291 197 298 7 8 45 12 124 12
l114 0 0 -36 c0 -37 -27 -466 -34 -541 -2 -29 0 -43 8 -43 7 0 86 141 176 313
90 171 187 355 215 408 29 53 80 173 114 267 34 93 67 184 74 201 l11 31 173
0 c95 0 173 -3 173 -6 0 -3 -38 -111 -85 -238 -61 -168 -105 -269 -158 -367
-40 -74 -140 -255 -222 -404 -155 -283 -197 -359 -340 -620 -48 -88 -96 -175
-107 -192 l-20 -33 -170 0 -171 0 7 188 c3 103 9 240 13 305 4 78 2 117 -5
117 -5 0 -104 -137 -218 -304 l-209 -305 -172 0 c-132 -1 -173 2 -173 12 0 6
24 147 54 312 30 165 85 469 122 675 l66 375 78 215 c43 118 83 227 89 243
l11 27 170 0 c93 0 170 -3 170 -8z m2493 -15 c85 -25 132 -60 163 -124 51
-102 42 -134 -211 -828 -86 -236 -170 -461 -187 -499 -83 -190 -194 -291 -393
-357 -67 -22 -86 -23 -420 -27 -391 -4 -462 2 -544 50 -93 52 -127 142 -102
269 7 34 91 278 187 543 201 552 237 646 272 701 99 158 239 248 437 281 122
20 719 13 798 -9z m1472 0 c163 -47 222 -171 166 -352 -41 -134 -116 -334
-148 -396 -65 -126 -185 -233 -308 -274 -30 -11 -55 -24 -55 -31 0 -6 30 -87
67 -180 l66 -168 -32 -90 c-18 -50 -54 -148 -79 -218 l-45 -128 -188 0 c-104
0 -189 2 -189 5 0 3 27 80 61 171 l61 166 -62 161 c-34 89 -66 170 -72 180 -8
16 -25 17 -176 15 l-166 -3 -126 -347 -125 -347 -192 -1 -193 0 11 28 c21 53
201 547 419 1147 32 88 76 210 98 270 23 61 61 168 87 238 25 70 50 139 55
153 l10 25 498 -3 c432 -4 505 -6 557 -21z m771 7 c-13 -33 -199 -543 -233
-637 -19 -54 -33 -101 -29 -104 3 -3 211 166 463 376 l457 381 245 0 c134 0
242 -2 240 -4 -2 -2 -204 -167 -449 -366 -245 -199 -444 -366 -443 -370 2 -5
76 -121 165 -257 89 -136 161 -255 161 -263 0 -8 -48 -145 -107 -304 -58 -159
-106 -290 -106 -292 0 -2 -84 -4 -186 -4 -173 0 -186 1 -179 18 3 9 26 73 51
142 25 69 58 159 73 200 22 58 26 80 18 95 -18 35 -220 360 -231 372 -8 9 -55
-21 -191 -123 -98 -74 -182 -139 -186 -145 -3 -6 -51 -134 -105 -285 l-99
-274 -187 0 c-104 0 -188 2 -188 5 0 3 45 130 101 283 56 152 127 349 159 437
122 336 211 580 310 853 l103 282 190 0 c169 0 188 -2 183 -16z m2482 4 c-2
-7 -31 -86 -63 -175 l-59 -163 -459 -2 -460 -3 -63 -175 c-35 -96 -66 -183
-70 -192 -5 -17 17 -18 365 -18 204 0 371 -4 371 -8 0 -5 -26 -81 -59 -168
l-59 -159 -374 -3 -374 -2 -74 -203 c-41 -111 -76 -208 -78 -214 -3 -10 92
-13 453 -13 l456 0 -7 -22 c-3 -13 -32 -92 -62 -175 l-56 -153 -648 0 c-356 0
-648 2 -648 4 0 2 12 35 26 72 15 38 61 166 104 284 176 487 523 1437 536
1468 l13 32 647 0 c512 0 645 -3 642 -12z m1119 1 c174 -24 263 -105 263 -240
0 -49 -28 -148 -89 -318 -81 -227 -132 -311 -234 -389 -55 -42 -147 -92 -170
-92 -7 0 -21 -6 -30 -12 -14 -12 -9 -30 53 -188 l70 -175 -60 -165 c-34 -91
-69 -187 -79 -215 l-18 -50 -187 -3 c-123 -2 -186 1 -186 8 0 6 27 83 59 171
l59 161 -68 177 -68 176 -169 3 -169 2 -94 -257 c-52 -142 -108 -298 -126
-348 l-31 -90 -192 -3 c-105 -1 -191 0 -191 2 0 3 14 42 31 88 30 80 376 1029
541 1483 44 121 85 235 91 253 l10 32 453 0 c270 0 484 -4 531 -11z m1558 -11
c94 -28 151 -72 177 -137 18 -45 11 -160 -14 -236 l-23 -70 -199 -48 c-109
-26 -201 -46 -203 -43 -3 3 2 26 11 52 21 63 20 100 -4 124 -30 30 -51 32
-271 28 -184 -3 -207 -5 -239 -24 -45 -26 -71 -66 -109 -165 -32 -85 -39 -121
-28 -155 14 -42 47 -47 342 -54 273 -7 310 -11 371 -43 95 -49 128 -167 89
-317 -20 -76 -107 -313 -145 -393 -56 -118 -170 -230 -293 -287 -127 -60 -155
-63 -487 -68 -327 -4 -389 2 -470 43 -83 43 -120 104 -120 202 0 55 26 168 48
210 9 15 49 28 195 62 101 23 194 45 206 48 l22 6 -21 -52 c-36 -92 -24 -143
38 -161 20 -5 114 -10 208 -10 208 0 256 11 307 71 38 44 107 219 107 270 0
33 -28 66 -62 73 -13 3 -138 7 -278 10 -279 4 -333 13 -404 63 -61 44 -81 92
-80 193 1 76 7 101 56 240 93 260 140 341 253 433 98 80 213 127 356 147 105
14 605 5 664 -12z m-10895 -721 c0 -16 -110 -319 -119 -330 -4 -4 -1144 -6
-2533 -5 l-2526 3 54 150 c30 83 59 160 64 173 l10 22 2525 0 c2077 0 2525 -2
2525 -13z m-210 -782 c0 -7 -59 -175 -95 -272 l-27 -73 -2529 0 c-1391 0
-2529 2 -2529 5 0 3 28 81 61 175 l61 170 2529 0 c1391 0 2529 -2 2529 -5z"/>
<path d="M8685 10116 c-27 -14 -60 -41 -73 -59 -28 -43 -362 -959 -362 -996 0
-17 10 -37 26 -52 l26 -24 256 0 c232 0 261 2 295 19 70 35 83 61 267 576 27
74 74 203 104 287 62 167 69 218 35 249 -19 17 -42 19 -273 22 l-251 3 -50
-25z"/>
<path d="M10182 10113 c-5 -15 -42 -116 -81 -224 -39 -108 -71 -201 -71 -208
0 -18 452 -15 518 4 74 22 108 67 160 211 58 163 59 174 29 210 l-25 29 -260
3 -260 3 -10 -28z"/>
<path d="M14630 10115 c-27 -70 -160 -439 -160 -442 0 -3 116 -3 258 -1 243 3
259 4 299 25 57 31 77 63 129 205 50 137 55 185 23 214 -19 17 -42 19 -280 22
l-259 3 -10 -26z"/>
<path d="M1367 7998 c-8 -24 -95 -261 -192 -528 -97 -267 -203 -557 -235 -645
-32 -88 -95 -261 -141 -385 -211 -578 -233 -664 -210 -816 22 -147 110 -275
232 -339 43 -22 61 -39 80 -74 36 -68 124 -151 199 -187 36 -17 103 -42 150
-54 80 -22 107 -24 484 -28 538 -5 667 12 879 117 67 33 96 43 92 32 -4 -9
-18 -46 -30 -83 l-24 -68 447 0 447 0 42 112 c23 62 83 227 134 366 51 139 96
247 99 240 4 -7 31 -118 60 -245 l54 -233 101 0 101 0 29 -120 29 -120 1395 2
1395 3 148 405 c81 223 148 411 148 418 0 9 -40 12 -170 12 -98 0 -170 4 -170
9 0 5 18 56 40 112 22 57 40 106 40 111 0 4 -65 8 -145 8 -80 0 -145 2 -145 6
0 3 34 100 76 217 77 214 213 596 241 675 l15 42 448 0 449 0 -13 -37 c-410
-1132 -626 -1732 -626 -1739 0 -2 79 -4 175 -4 96 0 175 -1 175 -2 0 -2 -20
-54 -45 -117 -25 -63 -45 -116 -45 -118 0 -1 201 -3 448 -3 l447 1 365 1007
366 1007 142 3 142 3 -36 -98 c-20 -54 -49 -134 -64 -178 -15 -44 -105 -294
-200 -555 -207 -572 -340 -943 -340 -947 0 -2 79 -3 175 -3 96 0 175 -1 175
-3 0 -1 -20 -54 -45 -117 -25 -63 -45 -116 -45 -117 0 -2 645 -3 1434 -3
l1434 0 50 137 c28 76 80 219 115 318 87 239 273 756 353 980 36 99 85 234
109 300 24 66 84 233 133 370 50 138 129 357 176 487 47 131 86 240 86 243 0
3 -79 5 -175 5 l-174 0 39 113 c21 61 42 120 45 130 7 16 -185 17 -3944 17
-3152 0 -3952 -3 -3956 -12 -27 -80 -259 -717 -265 -727 -10 -19 -10 -17 -60
214 -22 105 -45 207 -51 227 l-10 37 -102 3 -102 3 -22 105 c-13 58 -25 115
-28 128 l-5 22 -727 -2 -726 -3 -44 -120 c-23 -66 -65 -181 -92 -255 -27 -74
-160 -441 -296 -815 -294 -814 -281 -781 -313 -805 -25 -21 -82 -27 -82 -10 0
5 25 78 56 162 31 84 84 232 119 328 104 289 304 838 342 940 19 52 50 138 68
190 19 52 37 103 40 113 7 16 -5 17 -170 17 -165 0 -177 1 -170 18 3 9 21 60
40 112 18 52 36 103 40 113 7 16 -18 17 -443 17 l-450 0 -15 -42z m648 -155
c-4 -10 -34 -92 -66 -183 -33 -91 -78 -212 -99 -270 -184 -495 -502 -1381
-506 -1412 -9 -53 12 -97 52 -114 41 -17 577 -20 635 -4 51 14 99 49 131 95
15 22 86 200 159 400 72 198 185 509 251 690 161 444 266 733 282 775 l14 35
251 3 c138 1 251 0 251 -3 0 -3 -54 -155 -121 -338 -120 -330 -164 -449 -317
-872 -44 -121 -117 -321 -162 -445 -45 -124 -98 -263 -117 -310 -88 -208 -234
-363 -416 -437 -175 -72 -314 -87 -782 -81 -274 4 -354 8 -410 22 -136 33
-239 112 -265 204 -18 65 -12 180 14 272 13 47 103 303 201 570 97 267 203
557 235 645 83 231 162 448 227 623 l56 152 255 0 c238 0 254 -1 247 -17z
m2042 -48 c49 -229 305 -1390 315 -1430 13 -49 25 -60 40 -34 5 8 132 354 283
769 l274 755 253 0 c163 0 252 -4 251 -10 -1 -5 -106 -296 -234 -645 -215
-590 -307 -843 -445 -1225 -30 -82 -92 -251 -137 -375 l-82 -225 -247 -3
c-228 -2 -247 -1 -252 15 -6 24 -71 298 -141 598 -31 132 -90 384 -131 560
-40 176 -74 321 -74 323 0 2 -7 2 -16 0 -11 -2 -33 -50 -68 -148 -29 -80 -151
-416 -272 -747 l-219 -603 -252 0 -252 0 24 68 c13 37 67 186 120 332 98 267
147 402 293 805 214 590 446 1223 458 1253 l13 32 242 -2 243 -3 13 -60z
m3393 54 c0 -5 -37 -111 -81 -235 l-82 -224 -307 0 -308 0 -15 -42 c-8 -24
-95 -261 -192 -528 -97 -267 -203 -557 -235 -645 -32 -88 -71 -197 -88 -242
l-31 -83 326 0 325 0 -6 -22 c-3 -13 -41 -120 -84 -238 l-79 -215 -906 -3
c-499 -1 -907 0 -907 2 0 3 32 92 71 198 39 106 76 207 81 223 21 57 6 55 354
55 178 0 324 2 324 3 0 6 100 284 334 925 119 327 216 598 216 603 0 5 -127 9
-306 9 -241 0 -305 3 -301 13 5 13 155 424 162 445 6 16 1735 18 1735 1z
m2310 0 c0 -7 -24 -77 -54 -158 -29 -80 -66 -181 -81 -223 l-28 -78 -390 -2
-391 -3 -212 -585 c-118 -322 -249 -684 -294 -805 -44 -121 -113 -310 -153
-420 l-73 -200 -252 -3 c-139 -1 -252 -1 -252 1 0 2 140 388 311 858 313 860
419 1152 419 1156 0 2 -175 4 -389 5 l-390 3 58 155 c31 85 70 190 85 233 l28
77 1029 0 c758 0 1029 -3 1029 -11z m1980 4 c0 -5 -37 -110 -82 -235 l-83
-228 -611 0 -612 0 -91 -252 c-50 -139 -91 -256 -91 -260 0 -5 223 -8 495 -8
l494 0 -35 -97 c-19 -54 -56 -155 -82 -225 l-47 -128 -498 -2 -499 -3 -102
-280 -102 -280 608 -3 c334 -1 608 -4 608 -6 0 -5 -117 -333 -150 -418 l-21
-58 -866 0 c-771 0 -865 2 -859 15 3 9 80 221 172 473 91 251 181 498 199 547
33 88 97 263 215 590 169 467 303 832 311 848 9 16 61 17 869 17 473 0 860 -3
860 -7z m735 -10 c-9 -23 -302 -827 -360 -988 -24 -66 -94 -257 -155 -425 -62
-168 -114 -313 -117 -322 -5 -17 -26 -18 -259 -18 l-253 0 30 83 c17 45 50
136 74 202 140 392 533 1464 541 1476 3 5 118 9 256 9 234 0 250 -1 243 -17z
m-705 -1968 c0 -6 -111 -317 -156 -437 l-26 -68 -264 0 c-145 0 -264 4 -264 8
0 7 153 430 175 485 7 16 29 17 271 17 145 0 264 -2 264 -5z"/>
</g>
</svg>
